# https://github.com/mikedh/trimesh
v -33.85576426 -65.03052486 -94.36261090
v -20.07779806 -65.03052486 -94.36261090
v -33.94361800 -65.03052486 -92.91303370
v -33.94527634 -65.02412661 -92.90337595
v -34.03810191 -62.95155474 -94.36261090
v -21.80169979 0.31955075 -94.36261090
v -24.14388803 0.31955075 4.36292754
v -22.70177652 -65.03052486 4.36292754
v -33.99997604 -65.03052486 -90.77733702
v -34.08119961 -63.35454971 -92.90337595
v -34.11932231 -62.02401061 -94.12101470
v -34.08948812 -62.26069534 -94.36261090
v -35.12880163 0.31955075 -94.36261090
v -36.48969274 0.31955075 4.36292754
v -35.08238725 -65.03052486 4.36292754
v -34.68622260 -58.62729156 -80.11814369
v -34.64644158 -58.62729156 -82.24418262
v -34.76081600 -65.03052486 -28.95790865
v -34.35801800 -60.75744139 -88.64162763
v -34.86192691 -54.36059999 -86.51558869
v -34.42100622 -56.49714173 -92.90337595
v -34.13424099 -61.17962478 -94.36261090
v -34.97464618 -52.23045652 -86.51558869
v -34.86524358 -52.23045652 -88.64162763
v -34.58013669 -47.28570206 -94.36261090
v -35.41059185 -1.06856314 -92.90337595
v -35.42551053 0.31955075 -92.90337595
v -36.52781543 -3.19870980 4.36292754
v -36.49134790 0.31955075 4.27595062
v -35.08404559 -65.02412661 4.36292754
v -35.03929273 -65.03052486 -1.24208651
v -35.51833929 -52.23045652 -50.26662168
v -34.84037806 -56.49714173 -80.11814369
v -34.78567835 -65.03052486 -26.82220561
v -35.42385537 -47.96376495 -75.84673761
v -35.54817347 -45.83362147 -75.84673761
v -34.50222979 -54.36059999 -92.90337595
v -35.50507577 -39.43678325 -86.51558869
v -34.15578984 -60.59751670 -94.36261090
v -35.42053870 -41.57332816 -86.51558869
v -35.61613670 -39.43678325 -84.37989201
v -34.56687634 -47.96376495 -94.36261090
v -35.32274129 -33.03994820 -90.77733702
v -35.60453469 -11.73208817 -90.77733702
v -35.62110853 0.31955075 -91.52144747
v -36.53610394 -3.99831418 4.36292754
v -36.52449876 -1.06856314 3.01965546
v -36.67699905 -1.06856314 -7.63953151
v -36.50958326 0.31955075 3.01965546
v -35.02271571 -65.03052486 -3.37778954
v -35.47524158 -58.62729156 4.36292754
v -35.81836486 -52.23045652 -16.16301863
v -35.85648755 -45.83362147 -50.26662168
v -36.11009876 -37.30663659 -67.32325367
v -35.68907176 -43.70347482 -73.72069868
v -34.80888554 -65.02412661 -24.69616668
v -34.93817865 -65.03052486 -11.90127349
v -35.00282520 -65.03052486 -5.50382848
v -35.33268814 -58.62729156 -20.42475902
v -36.37697348 -39.43678325 -33.21965062
v -36.07860624 -37.30663659 -69.45895671
v -34.72600363 -47.96376495 -92.90337595
v -34.24198524 -58.14113194 -94.36261090
v -35.78521083 -30.91619981 -86.51558869
v -35.55646198 -33.03994820 -88.64162763
v -35.98246399 -28.78605315 -84.37989201
v -36.28912291 -28.85001985 -73.77868329
v -36.10844360 -35.17649312 -71.58499564
v -36.25928555 -30.25732534 -73.10221520
v -34.52543380 -49.41584871 -94.36261090
v -35.61282002 -30.91619981 -88.64162763
v -35.84488555 -13.86223482 -88.64162763
v -35.71890912 0.31955075 -90.77733702
v -35.87140623 -11.73208817 -88.64162763
v -36.54936429 -5.33525153 4.36292754
v -36.69854791 -3.19870980 -7.63953151
v -36.66208037 0.31955075 -7.63953151
v -36.70683641 -1.06856314 -9.76557045
v -35.55149014 -57.29035421 4.36292754
v -35.59624301 -56.49714173 4.36292754
v -35.93108095 -50.10030986 -16.16301863
v -36.50626658 -37.30663659 -31.09361169
v -36.19298066 -35.17649312 -67.32325367
v -36.16148814 -35.17649312 -69.45895671
v -36.11839044 -22.38921652 -84.37989201
v -36.36371313 -26.65590650 -73.72069868
v -36.53444561 -11.73208817 -80.11814369
v -36.43996169 -11.73208817 -82.24418262
v -36.34382262 -28.78605315 -71.58499564
v -36.41675768 -26.65590650 -71.58499564
v -36.09021142 -13.86223482 -86.51558869
v -35.98578066 0.31955075 -88.64162763
v -36.17972032 0.31955075 -86.97945289
v -36.55599446 -6.12846083 4.36292754
v -36.65876688 -5.33525153 -3.37778954
v -36.72672693 -3.19870980 -9.76557045
v -36.87756888 -7.46539819 -18.29872167
v -36.68860424 -5.33525153 -5.50382848
v -36.69191773 0.31955075 -9.76557045
v -36.70186458 0.31955075 -10.51934818
v -36.80795050 0.31955075 -19.04283371
v -36.81292233 -1.06856314 -18.29872167
v -36.83447118 -3.19870980 -18.29872167
v -35.66089274 -55.16020437 4.36292754
v -35.69901543 -54.36059999 4.36292754
v -35.75703181 -53.02366264 4.36292754
v -35.79018584 -52.23045652 4.36292754
v -35.87803641 -50.10030986 4.36292754
v -36.06202922 -45.83362147 0.89361653
v -36.14491113 -43.70347482 0.89361653
v -36.58085998 -35.17649312 -28.95790865
v -36.58417348 -35.17649312 -31.09361169
v -36.73004360 -24.51936317 -54.52836365
v -36.37200164 -30.91619981 -65.18755063
v -36.28912291 -13.86223482 -83.91602782
v -36.20789934 -13.86223482 -84.97904093
v -36.50792492 -18.12252813 -75.84673761
v -36.47311573 -24.51936317 -71.58499564
v -36.78474331 -13.86223482 -69.45895671
v -36.56096947 -9.59554484 -80.11814369
v -36.46814072 -9.59554484 -82.24418262
v -36.81789734 -11.73208817 -69.45895671
v -36.43167636 -1.06856314 -84.37989201
v -36.30735509 -11.73208817 -84.08031120
v -36.44327837 -28.78605315 -65.18755063
v -36.77479964 -22.38921652 -56.66406669
v -36.77811314 -20.25907145 -60.92580866
v -36.29243641 0.31955075 -85.91643978
v -36.56594130 -7.46539819 4.36292754
v -36.63555969 -18.12252813 3.01965546
v -36.57754331 -9.59554484 4.36292754
v -36.57091314 -8.25860590 4.36292754
v -36.70186458 -7.46539819 -5.50382848
v -36.82452434 0.31955075 -20.42475902
v -36.90243441 -7.46539819 -20.42475902
v -36.90574791 -9.59554484 -20.42475902
v -36.17474849 -42.36653428 4.36292754
v -36.13496428 -43.70347482 3.01965546
v -36.05208555 -45.83362147 3.01965546
v -36.59909216 -33.03994820 -16.16301863
v -36.67865739 -30.91619981 -22.56046364
v -36.63555969 -33.03994820 -28.95790865
v -36.98697148 -15.99238147 -46.00487971
v -36.79966199 -22.38921652 -54.52836365
v -36.82452434 -13.86223482 -67.32325367
v -36.65379187 0.31955075 -80.11814369
v -36.63058785 0.31955075 -80.86226049
v -36.57257147 -1.06856314 -82.24418262
v -36.88917407 -7.46539819 -67.32325367
v -36.83778786 -9.59554484 -69.45895671
v -36.53444561 0.31955075 -82.99796353
v -36.44162003 0.31955075 -84.37989201
v -36.80960883 -20.25907145 -58.79976973
v -36.82784101 -18.12252813 -60.92580866
v -36.73170194 -22.38921652 -11.90127349
v -36.61566918 -20.25907145 3.01965546
v -36.60240883 -20.25907145 4.36292754
v -36.61566918 -18.12252813 4.36292754
v -36.92895510 -9.59554484 -22.56046364
v -36.91403642 -11.73208817 -22.56046364
v -36.84441803 0.31955075 -22.56046364
v -36.86928038 0.31955075 -25.44028031
v -36.92066659 -7.46539819 -22.56046364
v -36.20458585 -41.49656495 4.36292754
v -36.24270854 -40.48586570 3.80242550
v -36.21618785 -41.36862837 3.06797598
v -36.24105020 -40.42189582 4.36292754
v -36.63390135 -30.91619981 -14.03697652
v -36.64550653 -30.91619981 -16.16301863
v -36.70352292 -28.78605315 -20.42475902
v -36.71346659 -28.78605315 -22.56046364
v -36.67368556 -28.78605315 -14.03697652
v -36.98034131 -15.99238147 -43.87883760
v -37.01017549 -13.86223482 -43.87883760
v -37.00520365 -13.86223482 -46.00487971
v -37.00852033 -11.73208817 -50.26662168
v -36.98034131 -13.86223482 -52.40232472
v -36.69191773 0.31955075 -77.98244700
v -36.58417348 0.31955075 -82.24418262
v -36.99691515 -11.73208817 -52.40232472
v -36.96210595 0.31955075 -55.28213821
v -36.95050395 0.31955075 -56.66406669
v -36.85602003 0.31955075 -67.32325367
v -36.82452434 0.31955075 -69.45895671
v -36.74993412 -22.38921652 -14.03697652
v -36.71180825 -24.51936317 -11.90127349
v -36.56594130 -24.51936317 3.01965546
v -36.52781543 -26.65590650 4.36292754
v -36.94719045 -9.59554484 -24.69616668
v -36.92895510 -11.73208817 -24.69616668
v -36.87922722 0.31955075 -26.82220561
v -36.93724360 -7.46539819 -24.69616668
v -36.31730193 -37.30663659 4.36292754
v -36.34879445 -35.96969924 4.36292754
v -36.36702981 -35.17649312 4.36292754
v -36.39520883 -33.83955258 4.36292754
v -36.41178267 -33.03994820 4.36292754
v -36.73170194 -26.65590650 -20.42475902
v -36.68362923 -26.65590650 -11.90127349
v -36.70186458 -26.65590650 -14.03697652
v -36.72838526 -24.51936317 -14.03697652
v -36.94055710 -11.73208817 -26.82220561
v -36.95547578 -9.59554484 -26.82220561
v -37.00354849 -11.73208817 -41.75279867
v -37.00686199 -11.73208817 -43.87883760
v -36.97039446 0.31955075 -52.40232472
v -36.97039446 0.31955075 -53.14643835
v -36.96707779 0.31955075 -54.52836365
v -36.94884561 -7.46539819 -26.82220561
v -36.88419906 0.31955075 -27.57598334
v -36.96542263 -3.19870980 -41.75279867
v -36.94553211 0.31955075 -41.75279867
v -36.89082923 0.31955075 -28.95790865
v -36.93889876 0.31955075 -39.61709563
f 1 2 8
f 1 8 15
f 1 15 31
f 1 31 50
f 1 50 58
f 1 58 57
f 1 57 34
f 1 34 18
f 1 18 9
f 1 9 3
f 1 3 4
f 1 4 5
f 1 5 12
f 1 12 22
f 1 22 39
f 1 39 63
f 1 63 70
f 1 70 42
f 1 42 25
f 1 25 13
f 1 13 6
f 1 6 2
f 2 6 7
f 2 7 8
f 3 9 4
f 4 10 5
f 4 9 10
f 5 10 11
f 5 11 12
f 6 13 27
f 6 27 45
f 6 45 73
f 6 73 92
f 6 92 93
f 6 93 128
f 6 128 152
f 6 152 151
f 6 151 179
f 6 179 147
f 6 147 146
f 6 146 178
f 6 178 184
f 6 184 183
f 6 183 182
f 6 182 181
f 6 181 208
f 6 208 207
f 6 207 206
f 6 206 212
f 6 212 214
f 6 214 213
f 6 213 210
f 6 210 191
f 6 191 162
f 6 162 161
f 6 161 134
f 6 134 101
f 6 101 100
f 6 100 99
f 6 99 77
f 6 77 49
f 6 49 29
f 6 29 14
f 6 14 7
f 7 14 28
f 7 28 46
f 7 46 75
f 7 75 94
f 7 94 129
f 7 129 132
f 7 132 131
f 7 131 158
f 7 158 157
f 7 157 188
f 7 188 197
f 7 197 196
f 7 196 195
f 7 195 194
f 7 194 193
f 7 193 167
f 7 167 164
f 7 164 137
f 7 137 108
f 7 108 107
f 7 107 106
f 7 106 105
f 7 105 104
f 7 104 80
f 7 80 79
f 7 79 51
f 7 51 30
f 7 30 15
f 7 15 8
f 9 16 17
f 9 17 10
f 9 18 16
f 10 17 19
f 10 19 20
f 10 20 11
f 11 21 22
f 11 22 12
f 11 20 23
f 11 23 24
f 11 24 21
f 13 25 26
f 13 26 27
f 14 29 28
f 15 30 31
f 16 32 33
f 16 33 17
f 16 18 34
f 16 34 32
f 17 33 20
f 17 20 19
f 20 33 35
f 20 35 36
f 20 36 23
f 21 37 22
f 21 24 38
f 21 38 37
f 22 37 39
f 23 40 24
f 23 36 41
f 23 41 40
f 24 40 38
f 25 42 43
f 25 43 44
f 25 44 26
f 26 44 27
f 27 44 45
f 28 29 47
f 28 47 48
f 28 48 46
f 29 49 47
f 30 50 31
f 30 51 52
f 30 52 50
f 32 53 54
f 32 54 55
f 32 55 36
f 32 36 35
f 32 35 33
f 32 34 56
f 32 56 57
f 32 57 58
f 32 58 59
f 32 59 52
f 32 52 60
f 32 60 53
f 34 57 56
f 36 55 61
f 36 61 41
f 37 38 62
f 37 62 63
f 37 63 39
f 38 64 65
f 38 65 62
f 38 40 41
f 38 41 66
f 38 66 64
f 41 67 66
f 41 61 68
f 41 68 69
f 41 69 67
f 42 70 62
f 42 62 71
f 42 71 43
f 43 71 72
f 43 72 44
f 44 73 45
f 44 72 74
f 44 74 92
f 44 92 73
f 46 48 76
f 46 76 75
f 47 49 77
f 47 77 48
f 48 77 99
f 48 99 78
f 48 78 76
f 50 52 59
f 50 59 58
f 51 79 52
f 52 79 80
f 52 80 81
f 52 81 82
f 52 82 60
f 53 60 54
f 54 83 84
f 54 84 61
f 54 61 55
f 54 60 82
f 54 82 83
f 61 84 68
f 62 70 63
f 62 65 71
f 64 71 65
f 64 66 85
f 64 85 71
f 66 67 86
f 66 86 87
f 66 87 88
f 66 88 85
f 67 69 86
f 68 84 69
f 69 84 89
f 69 89 90
f 69 90 86
f 71 85 91
f 71 91 72
f 72 91 74
f 74 93 92
f 74 91 93
f 75 76 95
f 75 95 94
f 76 78 96
f 76 96 97
f 76 97 98
f 76 98 95
f 78 99 100
f 78 100 101
f 78 101 102
f 78 102 103
f 78 103 97
f 78 97 96
f 80 104 81
f 81 104 105
f 81 105 106
f 81 106 82
f 82 106 107
f 82 107 108
f 82 108 109
f 82 109 110
f 82 110 111
f 82 111 112
f 82 112 113
f 82 113 83
f 83 114 84
f 83 113 114
f 84 114 90
f 84 90 89
f 85 115 116
f 85 116 91
f 85 88 115
f 86 117 87
f 86 90 118
f 86 118 119
f 86 119 117
f 87 120 121
f 87 121 88
f 87 117 119
f 87 119 122
f 87 122 120
f 88 121 123
f 88 123 124
f 88 124 115
f 90 114 125
f 90 125 126
f 90 126 127
f 90 127 118
f 91 116 124
f 91 124 123
f 91 123 128
f 91 128 93
f 94 95 129
f 95 98 129
f 97 130 131
f 97 131 132
f 97 132 133
f 97 133 98
f 97 103 101
f 97 101 134
f 97 134 135
f 97 135 136
f 97 136 130
f 98 133 132
f 98 132 129
f 101 103 102
f 108 137 138
f 108 138 139
f 108 139 109
f 109 139 138
f 109 138 110
f 110 138 140
f 110 140 111
f 111 141 142
f 111 142 112
f 111 140 141
f 112 142 143
f 112 143 144
f 112 144 113
f 113 144 126
f 113 126 114
f 114 126 125
f 115 124 116
f 118 127 145
f 118 145 119
f 119 145 122
f 120 146 147
f 120 147 148
f 120 148 121
f 120 122 146
f 121 148 123
f 122 145 149
f 122 149 150
f 122 150 146
f 123 148 179
f 123 179 151
f 123 151 152
f 123 152 128
f 126 144 153
f 126 153 127
f 127 154 145
f 127 153 154
f 130 155 156
f 130 156 157
f 130 157 158
f 130 158 131
f 130 136 159
f 130 159 160
f 130 160 155
f 134 161 135
f 135 161 162
f 135 162 163
f 135 163 189
f 135 189 159
f 135 159 136
f 137 164 165
f 137 165 166
f 137 166 138
f 138 166 140
f 140 166 165
f 140 165 167
f 140 167 168
f 140 168 169
f 140 169 141
f 141 170 171
f 141 171 143
f 141 143 142
f 141 169 172
f 141 172 170
f 143 171 173
f 143 173 174
f 143 174 175
f 143 175 176
f 143 176 177
f 143 177 153
f 143 153 144
f 145 154 177
f 145 177 149
f 146 150 149
f 146 149 178
f 147 179 148
f 149 177 180
f 149 180 181
f 149 181 182
f 149 182 183
f 149 183 184
f 149 184 178
f 153 177 154
f 155 185 186
f 155 186 156
f 155 160 185
f 156 187 188
f 156 188 157
f 156 186 187
f 159 189 160
f 160 189 190
f 160 190 185
f 162 191 192
f 162 192 163
f 163 192 189
f 164 167 165
f 167 193 168
f 168 172 169
f 168 193 194
f 168 194 195
f 168 195 196
f 168 196 197
f 168 197 172
f 170 198 174
f 170 174 171
f 170 172 200
f 170 200 198
f 171 174 173
f 172 197 188
f 172 188 199
f 172 199 200
f 174 198 200
f 174 200 201
f 174 201 190
f 174 190 202
f 174 202 189
f 174 189 203
f 174 203 204
f 174 204 205
f 174 205 176
f 174 176 175
f 176 206 207
f 176 207 208
f 176 208 180
f 176 180 177
f 176 205 206
f 180 208 181
f 185 201 186
f 185 190 201
f 186 201 200
f 186 200 199
f 186 199 188
f 186 188 187
f 189 192 209
f 189 209 203
f 189 202 190
f 191 210 192
f 192 210 209
f 203 209 204
f 204 209 211
f 204 211 206
f 204 206 205
f 206 211 212
f 209 210 213
f 209 213 214
f 209 214 212
f 209 212 211

