# https://github.com/mikedh/trimesh
v 34.53934223 50.10185065 90.43437577
v 34.53749963 49.99452892 90.43437577
v 34.52091309 49.99452892 88.30291071
v 34.52091309 50.10185065 88.30291071
v 34.47852701 52.23417348 90.43437577
v 34.30898587 52.23417348 92.56583448
v 34.28502576 49.99452892 92.72445665
v 34.44351449 49.99452892 86.17144564
v 34.44904228 52.23417348 88.30291071
v 34.29239932 54.36649630 90.43437577
v 34.14128415 55.55833870 92.01066009
v 33.35254156 62.89296652 96.82875826
v 34.20209938 54.38909035 92.65506064
v 34.09889807 55.11633786 93.42833495
v 34.12469760 53.69431702 93.70591897
v 34.28134057 50.27836507 92.75419234
v 34.12285501 52.23417348 93.69600707
v 33.54051184 50.10185065 96.82875826
v 33.53866925 49.99452892 96.82875826
v 29.84189285 49.99452892 4.37283626
v 29.84926641 51.97857672 4.37283626
v 29.87322017 62.89296652 4.37283626
v 29.87506594 64.41948167 4.37283626
v 34.22421371 54.36366887 88.50118682
v 33.21616717 64.41948167 96.82875826
v 33.45758546 60.76064370 96.82875826
v 32.91946779 64.41948167 98.96022332
v 33.53314146 54.36649630 96.82875826
v 33.54051184 52.23417348 96.82875826
v 32.96553906 60.76064370 98.96022332
v 32.95448348 58.62832087 98.96022332
v 32.93052655 56.49740859 98.96022332
v 32.89735346 54.36649630 98.96022332
v 32.85865257 52.23417348 98.96022332
v 32.77756878 50.10185065 98.96022332
v 32.77204099 49.99452892 98.96022332
v 17.42654916 49.99452892 4.37283626
v 17.48920698 64.41948167 4.37283626
v 32.94710992 62.89296652 98.96022332
v 32.32053808 64.41948167 100.66539410
v 32.29289595 58.62832087 100.48694814
v 32.17495388 52.23417348 100.29858392
v 32.08833912 49.99452892 100.18953397
v 17.42654916 56.49740859 4.37283626
v 17.35099158 49.99452892 5.05688759
v 17.43207696 58.62832087 4.37283626
v 17.35652096 58.62832087 5.16594073
v 16.54381826 52.23417348 13.69179145
v 16.57883395 54.36649630 13.69179145
v 16.40928963 54.36649630 15.82325334
v 17.42654916 64.41948167 5.16594073
v 32.15099694 64.41948167 100.97272018
v 31.72529674 64.41948167 101.73608258
v 29.65945036 49.99452892 103.99642141
v 17.34361960 49.99452892 5.12628360
v 17.34546220 56.49740859 5.16594073
v 16.54566244 49.99452892 13.58273832
v 16.53644787 49.99452892 13.69179145
v 16.36321836 49.99452892 15.82325334
v 16.37796231 52.23417348 15.82325334
v 16.06283380 49.99452892 19.97712716
v 16.05546182 49.99452892 20.08618029
v 16.05730442 50.10185065 20.08618029
v 16.31714709 56.49740859 17.95471840
v 16.45167571 56.49740859 15.82325334
v 16.92713397 64.41948167 11.56032956
v 16.95846288 64.41948167 11.14395036
v 17.03217628 64.41948167 10.19222691
v 17.05613322 64.41948167 9.88490084
v 17.25884904 64.41948167 7.29740261
v 31.42306640 64.41948167 102.16237687
v 30.54033549 64.41948167 103.38176926
v 30.19940744 64.41948167 103.84771750
v 29.84557804 63.97748083 104.29384193
v 29.60416292 49.99452892 104.05590551
v 17.33993441 50.10185065 5.16594073
v 16.21394738 49.99452892 17.84566527
v 15.93751816 49.99452892 22.10859222
v 16.54381826 64.41948167 17.34997816
v 16.63043301 64.41948167 15.82325334
v 16.49774698 58.62832087 15.82325334
v 15.93383296 50.10185065 22.21764218
v 16.20104761 56.49740859 20.08618029
v 16.77233361 64.41948167 13.69179145
v 29.85110901 64.41948167 104.29384193
v 28.59427696 50.10185065 105.08694004
v 28.59243436 49.99452892 105.08694004
v 15.93199037 49.99452892 22.21764218
v 16.51249094 64.41948167 17.95471840
v 15.84169042 50.10185065 24.34910724
v 16.29503275 64.41948167 22.21764218
v 29.39960609 64.41948167 104.58133785
v 28.72696298 62.89296652 104.96797818
v 28.49660662 49.99452892 105.11668209
v 28.93704760 64.41948167 104.86883377
v 15.83984782 49.99452892 24.34910724
v 15.76244605 50.10185065 26.48056913
v 16.20473281 64.41948167 24.34910724
v 26.64821842 64.41948167 105.38435421
v 26.64821842 49.99452892 105.64211443
v 15.76060346 49.99452892 26.48056913
v 15.71821738 49.99452892 28.51289614
v 15.71821738 50.10185065 28.61203419
v 15.76981803 52.23417348 28.61203419
v 15.82510387 54.36649630 28.61203419
v 15.88038972 56.49740859 28.61203419
v 16.10521987 62.89296652 26.48056913
v 16.14944855 64.41948167 26.48056913
v 25.32873014 64.41948167 104.71021796
v 25.29003084 49.99452892 104.83909807
v 15.71637478 49.99452892 28.61203419
v 15.71268959 49.99452892 30.64435802
v 15.76244605 52.23417348 30.74349290
v 15.87670452 56.49740859 30.74349290
v 15.93567556 58.62832087 30.74349290
v 16.00017598 60.76064370 30.74349290
v 16.07388938 62.89296652 28.61203419
v 16.12180483 64.41948167 28.61203419
v 20.64418211 64.41948167 97.01712247
v 20.65892447 58.52805820 99.03953123
v 21.24863961 57.74996772 100.11021971
v 25.23843019 49.99452892 104.75979017
v 21.24863961 57.43647848 100.11021971
v 15.73848912 49.99452892 32.87495797
v 15.74033172 50.10185065 32.87495797
v 15.98727621 58.62832087 35.01633493
v 16.04440465 60.76064370 35.01633493
v 16.08494813 62.89296652 32.87495797
v 16.06836159 62.89296652 30.74349290
v 16.11811805 64.41948167 30.74349290
v 19.73565167 64.41948167 94.75677730
v 18.52489248 64.41948167 91.60419596
v 18.17290727 64.41948167 90.43437577
v 20.06736674 58.62832087 96.82875826
v 20.73448206 49.99452892 96.90807252
v 20.81925263 49.99452892 97.10634228
v 21.27259655 49.99452892 97.93910705
v 15.79008977 49.99452892 35.01633493
v 15.79193237 50.10185065 35.01633493
v 15.83616104 52.23417348 35.01633493
v 15.88407650 54.36649630 35.01633493
v 15.93383296 56.49740859 35.01633493
v 16.09047592 60.76064370 37.14780000
v 16.15866153 62.89296652 37.14780000
v 16.11443286 62.89296652 35.01633493
v 16.13654720 64.41948167 32.87495797
v 16.13101941 64.41948167 32.28012962
v 18.10472166 64.41948167 90.01799339
v 17.93702153 64.41948167 88.30291071
v 16.22500455 49.99452892 43.54218566
v 15.86564735 49.99452892 37.14780000
v 15.90250405 52.23417348 37.14780000
v 15.93936075 54.36649630 37.14780000
v 15.98543203 56.49740859 37.14780000
v 16.23237652 60.76064370 41.41072377
v 16.31346190 64.41948167 40.80598353
v 16.25080408 64.41948167 38.67451846
v 16.21026218 64.41948167 37.14780000
v 16.19736242 64.41948167 36.54305657
v 16.16603351 64.41948167 35.01633493
v 16.33373364 64.41948167 41.41072377
v 15.96147509 49.99452892 39.27925871
v 16.07204678 49.99452892 41.41072377
f 1 2 3
f 1 3 4
f 1 4 5
f 1 5 6
f 1 6 7
f 1 7 2
f 2 7 19
f 2 19 36
f 2 36 43
f 2 43 54
f 2 54 75
f 2 75 87
f 2 87 94
f 2 94 100
f 2 100 110
f 2 110 122
f 2 122 137
f 2 137 136
f 2 136 135
f 2 135 150
f 2 150 163
f 2 163 162
f 2 162 151
f 2 151 138
f 2 138 124
f 2 124 112
f 2 112 111
f 2 111 102
f 2 102 101
f 2 101 96
f 2 96 88
f 2 88 78
f 2 78 62
f 2 62 61
f 2 61 77
f 2 77 59
f 2 59 58
f 2 58 57
f 2 57 55
f 2 55 45
f 2 45 37
f 2 37 20
f 2 20 8
f 2 8 3
f 3 8 4
f 4 8 9
f 4 9 5
f 5 9 10
f 5 10 11
f 5 11 12
f 5 12 13
f 5 13 6
f 6 13 14
f 6 14 15
f 6 15 16
f 6 16 7
f 7 16 17
f 7 17 18
f 7 18 19
f 8 20 21
f 8 21 22
f 8 22 23
f 8 23 9
f 9 24 10
f 9 23 24
f 10 24 25
f 10 25 12
f 10 12 11
f 12 26 14
f 12 14 13
f 12 25 27
f 12 27 26
f 14 26 15
f 15 17 16
f 15 26 28
f 15 28 29
f 15 29 18
f 15 18 17
f 18 29 30
f 18 30 31
f 18 31 32
f 18 32 33
f 18 33 19
f 19 33 34
f 19 34 35
f 19 35 36
f 20 37 44
f 20 44 46
f 20 46 38
f 20 38 23
f 20 23 22
f 20 22 21
f 23 38 51
f 23 51 70
f 23 70 69
f 23 69 68
f 23 68 67
f 23 67 66
f 23 66 84
f 23 84 80
f 23 80 79
f 23 79 89
f 23 89 91
f 23 91 98
f 23 98 108
f 23 108 118
f 23 118 130
f 23 130 147
f 23 147 146
f 23 146 160
f 23 160 159
f 23 159 158
f 23 158 157
f 23 157 156
f 23 156 161
f 23 161 149
f 23 149 148
f 23 148 133
f 23 133 132
f 23 132 131
f 23 131 119
f 23 119 109
f 23 109 99
f 23 99 95
f 23 95 92
f 23 92 85
f 23 85 73
f 23 73 72
f 23 72 71
f 23 71 53
f 23 53 52
f 23 52 40
f 23 40 27
f 23 27 25
f 23 25 24
f 26 27 39
f 26 39 28
f 27 40 39
f 28 39 30
f 28 30 29
f 30 39 40
f 30 40 31
f 31 40 32
f 32 40 33
f 33 40 34
f 34 40 41
f 34 41 42
f 34 42 35
f 35 42 36
f 36 42 43
f 37 45 44
f 38 46 47
f 38 47 48
f 38 48 49
f 38 49 50
f 38 50 51
f 40 52 41
f 41 52 53
f 41 53 42
f 42 53 54
f 42 54 43
f 44 45 55
f 44 55 56
f 44 56 46
f 46 56 47
f 47 56 48
f 48 56 57
f 48 57 58
f 48 58 59
f 48 59 60
f 48 60 50
f 48 50 49
f 50 60 61
f 50 61 62
f 50 62 63
f 50 63 64
f 50 64 65
f 50 65 66
f 50 66 67
f 50 67 68
f 50 68 69
f 50 69 70
f 50 70 51
f 53 71 54
f 54 71 72
f 54 72 73
f 54 73 74
f 54 74 75
f 55 57 76
f 55 76 56
f 56 76 57
f 59 77 60
f 60 77 61
f 62 78 63
f 63 78 64
f 64 79 80
f 64 80 81
f 64 81 65
f 64 78 82
f 64 82 83
f 64 83 79
f 65 81 84
f 65 84 66
f 73 85 74
f 74 85 86
f 74 86 87
f 74 87 75
f 78 88 82
f 79 83 89
f 80 84 81
f 82 88 96
f 82 96 90
f 82 90 91
f 82 91 83
f 83 91 89
f 85 92 86
f 86 93 94
f 86 94 87
f 86 92 95
f 86 95 93
f 90 96 101
f 90 101 97
f 90 97 98
f 90 98 91
f 93 99 100
f 93 100 94
f 93 95 99
f 97 101 102
f 97 102 103
f 97 103 104
f 97 104 105
f 97 105 106
f 97 106 107
f 97 107 98
f 98 107 108
f 99 109 100
f 100 109 110
f 102 111 103
f 103 111 112
f 103 112 113
f 103 113 104
f 104 113 105
f 105 113 106
f 106 113 114
f 106 114 115
f 106 115 116
f 106 116 117
f 106 117 108
f 106 108 107
f 108 117 118
f 109 119 120
f 109 120 121
f 109 121 110
f 110 121 123
f 110 123 122
f 112 124 125
f 112 125 113
f 113 125 126
f 113 126 127
f 113 127 114
f 114 127 115
f 115 127 128
f 115 128 116
f 116 118 117
f 116 128 129
f 116 129 118
f 118 129 130
f 119 131 120
f 120 131 132
f 120 132 133
f 120 133 134
f 120 134 135
f 120 135 136
f 120 136 123
f 120 123 121
f 122 123 137
f 123 136 137
f 124 138 139
f 124 139 125
f 125 139 140
f 125 140 141
f 125 141 142
f 125 142 126
f 126 142 143
f 126 143 127
f 127 143 144
f 127 144 145
f 127 145 128
f 128 145 160
f 128 160 146
f 128 146 147
f 128 147 130
f 128 130 129
f 133 148 135
f 133 135 134
f 135 148 149
f 135 149 150
f 138 151 152
f 138 152 139
f 139 152 153
f 139 153 140
f 140 153 154
f 140 154 141
f 141 154 142
f 142 154 143
f 143 154 155
f 143 155 156
f 143 156 157
f 143 157 144
f 144 158 159
f 144 159 145
f 144 157 158
f 145 159 160
f 149 161 155
f 149 155 154
f 149 154 153
f 149 153 152
f 149 152 151
f 149 151 162
f 149 162 163
f 149 163 150
f 155 161 156

