# https://github.com/mikedh/trimesh
v -35.13039643 0.31955075 -94.36261090
v -21.80037820 0.31955075 -94.36261090
v -34.99119778 0.31955075 -95.04400317
v -33.59920173 -60.75428356 -99.30767034
v -34.49074215 -47.96916566 -95.04400317
v -34.58022882 -47.28410408 -94.36261090
v -1.27175391 0.31955075 -95.38272963
v -1.27175391 -68.15451419 -94.36261090
v -34.41119916 0.31955075 -97.06183085
v -32.86674729 -62.88911613 -101.43884313
v -32.85017663 -67.15081998 -101.43884313
v -32.80377496 -69.28565890 -101.43884313
v -33.54948656 -62.88911613 -99.30767034
v -33.95382853 -60.75428356 -97.17649755
v -34.07314302 0.31955075 -98.12807804
v -34.56696847 -47.96916566 -94.36261090
v -1.27175391 0.31955075 -107.72692684
v -1.27175391 -81.04318602 -94.36261090
v -32.21714934 -71.42049782 -102.94660826
v -33.91405703 0.31955075 -98.55905506
v -33.33405841 0.31955075 -100.05496403
v -32.77394713 -1.06649816 -101.43884313
v -32.16412068 -3.20133709 -102.92947847
v -32.21714934 -73.54736275 -102.92420483
v -32.74411930 -71.42049782 -101.43884313
v -32.66125963 -73.54736275 -101.43884313
v -33.38045690 -67.15081998 -99.30767034
v -33.25451859 -69.28565890 -99.30767034
v -33.82457354 -62.88911613 -97.17649755
v -34.02011436 -62.79352984 -94.91879555
v -34.08971368 -62.25981852 -94.36261090
v -34.07645652 -60.75428356 -95.54747684
v -34.52388348 -49.41893983 -94.36261090
v -3.20066200 -1.06649816 -107.72823572
v -3.20066200 0.31955075 -107.71637957
v -1.27175391 -18.12925520 -107.81258853
v -3.20066200 -20.25612648 -107.82708786
v -3.20066200 -81.04318602 -94.36261090
v -3.20066200 -81.05912131 -95.04400317
v -1.27175391 -81.05115366 -95.04400317
v -31.60731972 -71.42049782 -104.01285545
v -31.62389038 -5.33617283 -104.00758181
v -32.76068996 0.31955075 -101.43884313
v -32.16412068 -1.06649816 -102.87412432
v -31.58412206 -73.54736275 -103.99045202
v -31.56755140 -75.68220167 -103.91268808
v -32.16080401 -75.68220167 -102.84644089
v -32.88000128 -73.54736275 -99.30767034
v -32.07463402 -76.99656404 -102.70674029
v -32.43257432 -75.68220167 -101.43884313
v -34.03668502 -62.95284456 -94.36261090
v -34.15599951 -60.59496248 -94.36261090
v -34.14274235 -60.75428356 -94.48122965
v -34.24216950 -58.14150046 -94.36261090
v -5.33174186 -18.12925520 -107.80600601
v -7.46282093 -18.12925520 -107.78491146
v -11.72829416 0.31955075 -107.62939629
v -1.27175391 -20.25612648 -107.82049264
v -3.20066200 -22.39096222 -107.82576627
v -5.33174186 -20.25612648 -107.81654058
v -4.32088774 -81.03522473 -94.36261090
v -3.20066200 -81.05115366 -97.17649755
v -1.27175391 -81.05115366 -97.39132527
v -4.93734277 -81.03522473 -95.04400317
v -5.11299942 -81.02725709 -97.17649755
v -30.59315448 -41.57262289 -105.32819630
v -30.54343931 -71.42049782 -105.28602625
v -30.48046698 -77.81704060 -105.32556584
v -31.58412206 -3.20133709 -103.99571930
v -30.47715348 0.31955075 -105.19903663
v -30.51029481 -9.59787668 -105.24911713
v -30.52686547 -35.18404459 -105.37433111
v -32.54526181 0.31955075 -101.94099521
v -32.14423334 0.31955075 -102.82535904
v -31.54103707 0.31955075 -103.89159988
v -33.06228810 -73.54736275 -94.36261090
v -33.26777258 -71.42049782 -94.36261090
v -33.46994357 -69.28565890 -94.36261090
v -33.53291590 -68.60060050 -94.36261090
v -33.85439820 -65.02395505 -94.36261090
v -32.53200465 -75.68220167 -99.30767034
v -32.86011712 -74.99714327 -94.36261090
v -32.12766268 -77.07621505 -101.43884313
v -31.50789256 -77.74534452 -103.47907424
v -30.53018215 -79.65714029 -103.57133115
v -31.59406573 -78.14363769 -101.43884313
v -7.46282093 -20.25612648 -107.79018510
v -9.59390080 -18.12925520 -107.75460392
v -13.85937403 0.31955075 -107.60171922
v -13.11366163 0.31955075 -107.61225379
v -1.27175391 -71.42049782 -107.73746141
v -3.20066200 -71.42049782 -107.75196074
v -9.59390080 -71.42049782 -107.74800869
v -11.72829416 -71.42049782 -107.72823572
v -4.81802828 -81.02725709 -94.36261090
v -1.27175391 -81.03522473 -99.45923980
v -4.89757127 -81.01929580 -98.91491132
v -3.29346216 -81.02725709 -99.49877939
v -9.59390080 -80.90777422 -94.36261090
v -26.64916514 -80.58913842 -103.57133115
v -7.46282093 -80.97149630 -99.30767034
v -28.25327266 -71.42049782 -107.18391994
v -29.31715624 -71.42049782 -106.35095185
v -28.78024262 -77.81704060 -106.14534347
v -30.25178167 -79.29867898 -105.09623244
v -29.88389770 0.31955075 -105.51799012
v -32.71760497 -75.68220167 -95.04400317
v -32.74080263 -75.68220167 -94.36261090
v -32.25029067 -77.29129056 -95.04400317
v -32.42594732 -76.77352088 -94.36261090
v -30.53018215 -79.67306922 -101.43884313
v -31.63052055 -78.38260978 -94.36261090
v -28.78024262 -80.50948106 -103.57133115
v -32.06137685 -77.65772587 -94.36261090
v -9.59390080 -20.25612648 -107.75591280
v -11.72829416 -18.12925520 -107.72033162
v -15.24474150 0.31955075 -107.56217328
v -13.85937403 -18.12925520 -107.66760794
v -1.27175391 -73.54736275 -107.38951561
v -3.20066200 -73.54736275 -107.50022391
v -5.33174186 -73.54736275 -107.62147948
v -7.46282093 -73.54736275 -107.67288158
v -15.99045310 -73.54736275 -107.50418867
v -18.12484726 -73.54736275 -107.44091771
v -26.64916514 -71.42049782 -107.28012891
v -1.27175391 -81.01929580 -100.64805144
v -5.49745564 -81.00336052 -99.49877939
v -4.06568809 -81.01132816 -100.33569318
v -3.29346216 -81.00336052 -101.28200002
v -11.04555330 -80.86794237 -94.36261090
v -28.78024262 -80.50151341 -101.43884313
v -20.25261283 -80.68473107 -103.57133115
v -11.72829416 -80.87590365 -101.43884313
v -26.64916514 -79.72086236 -105.33610676
v -24.51477098 -79.75273293 -105.42968526
v -25.81065337 -76.85317189 -106.79905867
v -28.78024262 -1.06649816 -106.10185184
v -26.92093545 -3.20133709 -106.64090669
v -25.78413904 -1.06649816 -106.80433231
v -24.51477098 -1.06649816 -106.95853859
v -22.38369191 0.31955075 -107.15887333
v -20.25261283 0.31955075 -107.31966214
v -26.57293564 -77.66568716 -106.43530466
v -24.51477098 -78.04008375 -106.49592609
v -28.78024262 -79.60137950 -105.31765538
v -28.78024262 0.31955075 -106.07549635
v -32.25360734 -77.31519349 -94.36261090
v -30.56664015 -79.34647212 -94.36261090
v -30.90800978 -79.06766818 -94.36261090
v -15.99045310 0.31955075 -107.53844826
v -15.99045310 -18.12925520 -107.59117194
v -1.27175391 -77.81704060 -106.34172616
v -7.46282093 -75.60254431 -107.16282539
v -22.38369191 -77.09215034 -106.86100804
v -20.25261283 -75.68220167 -107.13382673
v -22.38369191 -75.68220167 -107.06002120
v -19.50689964 0.31955075 -107.36316013
v -18.12484726 0.31955075 -107.44356088
v -1.27175391 -80.99539287 -101.69716884
v -9.59390080 -80.90777422 -101.43884313
v -18.12484726 -80.70862129 -103.57133115
v -13.17994667 -80.80421393 -94.36261090
v -15.31102574 -80.73252421 -94.36261090
v -15.99045310 -80.70862129 -94.36261090
v -18.12484726 -80.62897028 -94.36261090
v -19.56987039 -80.56524185 -94.36261090
v -21.70426454 -80.46965555 -94.36261090
v -22.38369191 -80.43778498 -94.36261090
v -23.83534520 -80.36609526 -94.36261090
v -24.51477098 -80.32626340 -94.36261090
v -25.96642269 -80.23864475 -94.36261090
v -26.64916514 -80.19085161 -94.36261090
v -28.09750335 -80.04745946 -94.36261090
v -28.78024262 -79.95984081 -94.36261090
v -22.38369191 -78.15956662 -106.54073932
v -22.38369191 -79.73679765 -105.47449213
v -1.27175391 -80.78828500 -103.57133115
v -24.51477098 -76.97266111 -106.82805733
v -28.10413034 0.31955075 -106.25342130
v -26.85133612 -1.06649816 -106.61190803
v -25.71122463 0.31955075 -106.79247615
v -24.51477098 0.31955075 -106.94271768
v -1.27175391 -79.56154764 -105.47317690
v -5.33174186 -77.81704060 -106.41421646
v -1.27175391 -79.73679765 -105.37959840
v -15.99045310 -79.72086236 -105.49031304
v -26.77842012 0.31955075 -106.57896367
f 1 2 7
f 1 7 17
f 1 17 35
f 1 35 57
f 1 57 90
f 1 90 89
f 1 89 117
f 1 117 150
f 1 150 158
f 1 158 157
f 1 157 142
f 1 142 141
f 1 141 182
f 1 182 181
f 1 181 187
f 1 187 179
f 1 179 146
f 1 146 106
f 1 106 70
f 1 70 75
f 1 75 74
f 1 74 73
f 1 73 43
f 1 43 21
f 1 21 20
f 1 20 15
f 1 15 9
f 1 9 3
f 1 3 4
f 1 4 5
f 1 5 6
f 1 6 16
f 1 16 33
f 1 33 54
f 1 54 52
f 1 52 31
f 1 31 51
f 1 51 80
f 1 80 79
f 1 79 78
f 1 78 77
f 1 77 76
f 1 76 82
f 1 82 108
f 1 108 110
f 1 110 147
f 1 147 114
f 1 114 112
f 1 112 149
f 1 149 148
f 1 148 174
f 1 174 173
f 1 173 172
f 1 172 171
f 1 171 170
f 1 170 169
f 1 169 168
f 1 168 167
f 1 167 166
f 1 166 165
f 1 165 164
f 1 164 163
f 1 163 162
f 1 162 130
f 1 130 99
f 1 99 95
f 1 95 61
f 1 61 38
f 1 38 18
f 1 18 8
f 1 8 2
f 2 8 7
f 3 9 4
f 4 10 11
f 4 11 12
f 4 12 13
f 4 13 14
f 4 14 5
f 4 9 15
f 4 15 10
f 5 14 16
f 5 16 6
f 7 8 18
f 7 18 40
f 7 40 63
f 7 63 96
f 7 96 126
f 7 126 159
f 7 159 177
f 7 177 185
f 7 185 183
f 7 183 152
f 7 152 119
f 7 119 91
f 7 91 58
f 7 58 36
f 7 36 17
f 10 19 11
f 10 15 20
f 10 20 21
f 10 21 22
f 10 22 23
f 10 23 19
f 11 19 24
f 11 24 12
f 12 24 25
f 12 25 13
f 13 25 26
f 13 26 27
f 13 27 14
f 14 27 28
f 14 28 29
f 14 29 30
f 14 30 31
f 14 31 32
f 14 32 33
f 14 33 16
f 17 34 35
f 17 36 37
f 17 37 34
f 18 38 39
f 18 39 40
f 19 41 24
f 19 23 42
f 19 42 41
f 21 43 22
f 22 43 23
f 23 43 44
f 23 44 42
f 24 41 45
f 24 45 46
f 24 46 47
f 24 47 25
f 25 47 26
f 26 48 28
f 26 28 27
f 26 47 49
f 26 49 50
f 26 50 48
f 28 48 51
f 28 51 30
f 28 30 29
f 30 51 31
f 31 52 53
f 31 53 32
f 32 53 52
f 32 52 54
f 32 54 33
f 34 55 56
f 34 56 57
f 34 57 35
f 34 37 55
f 36 58 37
f 37 58 59
f 37 59 60
f 37 60 55
f 38 61 39
f 39 62 63
f 39 63 40
f 39 61 64
f 39 64 65
f 39 65 62
f 41 66 67
f 41 67 68
f 41 68 45
f 41 42 66
f 42 44 69
f 42 69 70
f 42 70 71
f 42 71 72
f 42 72 66
f 43 73 44
f 44 73 74
f 44 74 75
f 44 75 69
f 45 68 46
f 46 68 49
f 46 49 47
f 48 76 77
f 48 77 78
f 48 78 79
f 48 79 80
f 48 80 51
f 48 50 81
f 48 81 82
f 48 82 76
f 49 83 50
f 49 68 84
f 49 84 85
f 49 85 86
f 49 86 83
f 50 83 81
f 55 60 56
f 56 60 87
f 56 87 88
f 56 88 89
f 56 89 90
f 56 90 57
f 58 91 92
f 58 92 59
f 59 92 93
f 59 93 60
f 60 93 94
f 60 94 87
f 61 95 64
f 62 96 63
f 62 65 97
f 62 97 98
f 62 98 96
f 64 95 99
f 64 99 100
f 64 100 65
f 65 101 97
f 65 100 101
f 66 102 103
f 66 103 68
f 66 68 67
f 66 72 102
f 68 104 105
f 68 105 84
f 68 103 102
f 68 102 104
f 69 75 70
f 70 106 102
f 70 102 71
f 71 102 72
f 81 107 82
f 81 83 107
f 82 107 108
f 83 109 110
f 83 110 108
f 83 108 107
f 83 86 109
f 84 105 85
f 85 111 112
f 85 112 86
f 85 105 113
f 85 113 111
f 86 112 114
f 86 114 109
f 87 115 116
f 87 116 88
f 87 94 115
f 88 116 89
f 89 116 118
f 89 118 117
f 91 119 120
f 91 120 121
f 91 121 122
f 91 122 92
f 92 122 93
f 93 122 94
f 94 122 123
f 94 123 124
f 94 124 125
f 94 125 118
f 94 118 116
f 94 116 115
f 96 98 129
f 96 129 126
f 97 101 127
f 97 127 128
f 97 128 98
f 98 128 129
f 99 130 131
f 99 131 100
f 100 132 133
f 100 133 101
f 100 131 113
f 100 113 134
f 100 134 135
f 100 135 132
f 101 133 127
f 102 125 136
f 102 136 104
f 102 106 137
f 102 137 138
f 102 138 139
f 102 139 140
f 102 140 141
f 102 141 142
f 102 142 125
f 104 136 143
f 104 143 144
f 104 144 145
f 104 145 105
f 105 145 113
f 106 146 137
f 109 114 147
f 109 147 110
f 111 148 149
f 111 149 112
f 111 113 131
f 111 131 148
f 113 145 134
f 117 118 150
f 118 151 150
f 118 125 151
f 119 152 120
f 120 152 121
f 121 152 153
f 121 153 122
f 122 153 154
f 122 154 155
f 122 155 123
f 123 155 124
f 124 155 156
f 124 156 125
f 125 156 136
f 125 142 157
f 125 157 158
f 125 158 150
f 125 150 151
f 126 129 159
f 127 133 128
f 128 133 160
f 128 160 129
f 129 160 132
f 129 132 161
f 129 161 159
f 130 162 131
f 131 162 163
f 131 163 164
f 131 164 165
f 131 165 166
f 131 166 167
f 131 167 168
f 131 168 169
f 131 169 170
f 131 170 171
f 131 171 172
f 131 172 173
f 131 173 174
f 131 174 148
f 132 160 133
f 132 135 161
f 134 145 135
f 135 145 175
f 135 175 176
f 135 176 177
f 135 177 161
f 136 156 155
f 136 155 178
f 136 178 144
f 136 144 143
f 137 146 138
f 138 146 179
f 138 179 180
f 138 180 181
f 138 181 139
f 139 181 182
f 139 182 140
f 140 182 141
f 144 178 175
f 144 175 145
f 152 183 184
f 152 184 153
f 153 184 175
f 153 175 154
f 154 178 155
f 154 175 178
f 159 161 177
f 175 184 183
f 175 183 185
f 175 185 186
f 175 186 176
f 176 186 177
f 177 186 185
f 179 187 180
f 180 187 181

