# https://github.com/mikedh/trimesh
v 14.18530080 -78.32745895 104.55282208
v -31.23176991 -67.01676789 106.68623140
v 9.59278174 -77.81574442 104.78319750
v 14.18530080 -79.23543343 104.55282208
v 14.18530080 -78.16364575 104.47270089
v -30.16711752 -67.01676789 106.30562716
v -32.40288627 -67.01676789 106.68623140
v -31.65279056 -77.81574442 106.55601700
v 14.18530080 -77.26191068 104.00194920
v 14.18530080 -71.31794779 100.43625767
v 12.94159487 -70.32104577 100.05564708
v 9.59278174 -69.93258191 100.39619072
v 14.18530080 -69.89670210 99.09411021
v -31.72537934 -78.97957299 106.49592293
v 3.19519218 -79.44136586 104.76315767
v 3.19519218 -80.50690777 103.52117759
v 14.18530080 -80.11064782 103.44105004
v -28.77823165 -67.01676789 105.78479496
v -33.37558991 -77.81574442 105.95506360
v -32.30609911 -77.81574442 106.55601700
v -33.25460755 -67.01676789 105.61451996
v -34.30957995 -73.55356404 104.83327165
v -34.41120551 -75.68465423 104.84329157
v -34.47411748 -77.81574442 104.88335216
v 14.18530080 -71.08705135 100.28601614
v 14.18530080 -70.75943130 100.04562716
v 14.18530080 -70.36005164 99.66502292
v 14.18530080 -69.77033173 98.64339835
v -32.21415353 -78.97957299 106.49592293
v -30.91237483 -80.98741888 104.13215089
v 3.19519218 -81.16059120 102.44946615
v 7.45863856 -81.11066318 102.33929157
v 14.18530080 -80.29317291 103.20066742
v -26.63925006 -67.01676789 104.91339920
v 14.18530080 -69.27734180 96.83049919
v -34.34829354 -79.22919402 104.73311699
v -33.59335942 -67.01676789 105.18382886
v -33.65143299 -67.01676789 105.09368776
v -34.12084721 -67.01676789 104.32245937
v -34.78383258 -75.68465423 103.22070089
v -34.85642453 -77.81574442 103.22070089
v -32.97392606 -79.55837075 105.41420428
v -32.99812126 -80.64732000 103.33087547
v -32.25770553 -81.08414250 102.69986869
v -30.91237483 -81.11846563 103.06044581
v 3.19519218 -81.46636695 101.09731148
v 7.45863856 -81.43516353 101.09731148
v 14.18530080 -81.33843991 101.04723097
v 14.18530080 -80.98117946 102.07887547
v 14.18530080 -80.90005438 102.23913055
v -25.36650496 -67.01676789 104.38255343
v 14.18530080 -69.26953936 96.49997546
v -22.11931899 -67.01676789 101.09731148
v -22.75810915 -67.01676789 102.81004326
v -24.18571179 -67.01676789 103.80162716
v -24.31153256 -67.01676789 103.87173479
v -34.46443750 -79.51156879 103.22070089
v -34.32409834 -67.01676789 103.43103648
v -34.61929822 -67.01676789 101.26758648
v -34.63865502 -67.01676789 101.09731148
v -34.64349342 -67.15873679 101.09731148
v -34.90965652 -75.68465423 101.09731148
v -34.98708688 -75.68465423 98.96390852
v -35.14194443 -75.68465423 92.56369326
v -34.90481811 -77.81574442 101.09731148
v -34.47411748 -79.68317808 101.09731148
v -33.53044745 -80.74872636 101.09731148
v -32.46579824 -81.11378925 101.09731148
v -30.91237483 -81.46481028 94.69709623
v -30.91237483 -81.24951238 101.09731148
v -3.20239578 -81.63953928 98.96390852
v -1.06825340 -81.65825752 98.96390852
v 5.32933537 -81.69726338 98.96390852
v 7.45863856 -81.70974221 98.96390852
v 9.59278174 -81.71598162 98.96390852
v 11.72208493 -81.71754466 98.96390852
v 13.85622573 -81.35091874 101.00717038
v 14.18530080 -81.61145556 99.32447928
v 14.18530080 -69.23522258 94.69709623
v 14.18530080 -69.19777975 92.56369326
v 14.18530080 -68.94192566 77.26928266
v 14.18530080 -68.09323196 23.55355022
v 14.18530080 -68.08230981 22.28151992
v -22.12415739 -67.01676789 4.36292119
v -34.89029972 -67.01676789 94.69709623
v -34.95321169 -67.01676789 92.70391487
v -35.15646282 -75.68465423 90.43028394
v -35.00644368 -77.81574442 92.56369326
v -34.95321169 -77.81574442 98.96390852
v -35.00644368 -67.01676789 90.43028394
v -35.05483726 -67.01676789 88.29688097
v -35.09355085 -67.01676789 86.17349156
v -35.14194443 -67.01676789 79.91350427
v -34.49347428 -79.71281848 98.96390852
v -33.67562819 -80.77680372 96.83049919
v -32.69324457 -81.23547687 94.69709623
v -7.46584136 -81.91255493 88.29688097
v -18.11719572 -81.66762299 94.69709623
v -20.25133890 -81.57869546 96.83049919
v -28.77823165 -81.37120001 98.96390852
v -30.91237483 -81.42424773 84.04008224
v 13.85622573 -82.94689978 26.48823497
v 14.18530080 -82.95313919 26.48823497
v -18.11719572 -81.60989888 96.83049919
v -9.59514455 -81.71286192 96.83049919
v -3.20239578 -81.76746632 96.83049919
v -1.06825340 -81.77994515 96.83049919
v 1.06588979 -81.78462788 96.83049919
v 3.19519218 -81.78774759 96.83049919
v 5.32933537 -81.79086730 96.83049919
v 13.85622573 -81.67386241 98.96390852
v 7.45863856 -81.78462788 96.83049919
v 14.18530080 -81.65825752 98.96390852
v 14.18530080 -68.26952399 18.92616399
v 14.18530080 -69.31478464 4.36292119
v -34.95805010 -67.01676789 4.36292119
v -35.16613963 -75.68465423 84.04008224
v -35.01612049 -77.81574442 90.43028394
v -35.17098121 -67.01676789 75.50647037
v -35.18065802 -67.01676789 73.51328901
v -35.24840840 -67.01676789 54.20246867
v -34.47411748 -79.58801114 90.43028394
v -34.40152870 -79.46788654 77.63987334
v -33.75789696 -80.72220567 94.69709623
v -32.38836788 -81.19023159 79.77327630
v -30.91237483 -81.39928372 79.77327630
v 1.06588979 -81.82987316 94.69709623
v -3.20239578 -81.81738798 94.69709623
v -5.33169897 -81.80959189 94.69709623
v -7.46584136 -81.79710671 94.69709623
v -9.59514455 -81.77994515 94.69709623
v -22.38548208 -81.20115375 20.08801971
v 14.18530080 -82.92973821 24.35482882
v 14.18530080 -81.86730965 4.36292119
v -34.96772691 -67.01676789 5.16419979
v -34.81770776 -69.28982063 4.36292119
v -34.59993825 -75.68465423 9.43101208
v -35.16130122 -75.68465423 81.90668563
v -35.25324998 -67.01676789 43.53544112
v -34.93869330 -77.81574442 79.77327630
v -35.01612049 -75.68465423 45.66884726
v -34.20311598 -78.97645329 35.01183645
v -32.02541762 -81.03734054 59.34066401
v -32.13672317 -81.07322670 64.84945638
v -34.13052402 -78.90313064 28.61162437
v -32.94488927 -79.52561065 15.82121060
v -31.77377292 -81.00925683 52.06906252
v -31.64311057 -81.00301741 49.93565638
v -28.77823165 -80.96713761 30.74503052
v -26.64892687 -80.89537164 13.68780445
v -26.64892687 -80.87041399 11.56441505
v -24.51478369 -80.93905389 9.43101208
v 14.18530080 -82.85328951 22.55195276
v -26.64892687 -80.75652245 4.36292119
v -25.31327298 -80.81268988 4.36292119
v -24.51478369 -80.84544998 4.36292119
v -18.11235731 -81.08570553 4.36292119
v -15.98789412 -81.15747150 4.36292119
v -13.85375093 -81.22611140 4.36292119
v 13.85622573 -81.86418994 4.36292119
v 14.18530080 -82.18401390 9.75152225
v -34.99192529 -67.01676789 7.29760593
v -34.48863587 -74.35077305 4.36292119
v -34.36281193 -75.68465423 4.36292119
v -34.29989996 -76.23224857 4.36292119
v -34.18375601 -77.05597826 4.36292119
v -34.32893674 -77.27126980 9.43101208
v -34.55638625 -77.81574442 35.01183645
v -35.24840840 -67.01676789 41.41205171
v -34.57574305 -77.81574442 37.14524260
v -35.13226444 -67.01676789 24.35482882
v -35.03063888 -67.01676789 11.56441505
v -32.72711976 -79.38364175 4.36292119
v -34.01438007 -78.59579186 15.82121060
v -34.11116723 -78.88596908 27.36964111
v -31.59471699 -79.87039227 4.36292119
v -30.91237483 -80.16056948 4.36292119
v -30.91237483 -80.48195012 17.95461357
v -28.77823165 -80.57087130 4.36292119
v -28.77823165 -80.78460616 15.82121060
v 14.18530080 -82.83925401 22.22142585
v -27.44257776 -80.69100225 4.36292119
v -12.51809704 -81.26667394 4.36292119
v 13.05773882 -81.85483082 4.36292119
v 14.18530080 -82.29009664 11.56441505
v -33.94179129 -77.72369719 4.36292119
v -33.79177215 -78.12308320 4.36292119
v -33.96114808 -78.55679235 13.68780445
v -29.57672094 -80.41954327 4.36292119
v 14.18530080 -82.75656589 20.41854662
v -11.72444774 -81.28851825 4.36292119
v 10.92843404 -81.82050769 4.36292119
v 14.18530080 -82.30882124 11.88492839
v 14.18530080 -82.65515953 18.28514365
v 3.19519218 -81.66917967 4.36292119
v 14.18530080 -82.54751376 16.15173751
v 9.59278174 -81.79710671 4.36292119
v 8.79429245 -81.78306485 4.36292119
v 14.18530080 -82.41178427 13.68780445
v 4.53084608 -81.69882006 4.36292119
v 14.18530080 -82.43050887 14.01833136
v 7.45863856 -81.75810720 4.36292119
v 6.66498926 -81.74250231 4.36292119
f 1 2 3
f 1 3 4
f 1 4 17
f 1 17 33
f 1 33 50
f 1 50 49
f 1 49 48
f 1 48 78
f 1 78 113
f 1 113 103
f 1 103 133
f 1 133 153
f 1 153 181
f 1 181 190
f 1 190 194
f 1 194 196
f 1 196 201
f 1 201 199
f 1 199 193
f 1 193 185
f 1 185 161
f 1 161 134
f 1 134 115
f 1 115 114
f 1 114 83
f 1 83 82
f 1 82 81
f 1 81 80
f 1 80 79
f 1 79 52
f 1 52 35
f 1 35 28
f 1 28 13
f 1 13 27
f 1 27 26
f 1 26 25
f 1 25 10
f 1 10 9
f 1 9 5
f 1 5 2
f 2 6 18
f 2 18 34
f 2 34 51
f 2 51 56
f 2 56 55
f 2 55 54
f 2 54 53
f 2 53 84
f 2 84 116
f 2 116 135
f 2 135 162
f 2 162 172
f 2 172 171
f 2 171 169
f 2 169 139
f 2 139 121
f 2 121 120
f 2 120 119
f 2 119 93
f 2 93 92
f 2 92 91
f 2 91 90
f 2 90 86
f 2 86 85
f 2 85 60
f 2 60 59
f 2 59 58
f 2 58 39
f 2 39 38
f 2 38 37
f 2 37 21
f 2 21 7
f 2 7 20
f 2 20 8
f 2 8 3
f 2 5 9
f 2 9 10
f 2 10 11
f 2 11 12
f 2 12 13
f 2 13 6
f 3 8 4
f 4 8 14
f 4 14 15
f 4 15 16
f 4 16 17
f 6 13 18
f 7 19 20
f 7 21 22
f 7 22 23
f 7 23 24
f 7 24 19
f 8 20 29
f 8 29 14
f 10 25 11
f 11 26 27
f 11 27 13
f 11 13 12
f 11 25 26
f 13 28 18
f 14 29 30
f 14 30 15
f 15 30 16
f 16 30 31
f 16 31 32
f 16 32 33
f 16 33 17
f 18 28 35
f 18 35 34
f 19 29 20
f 19 24 36
f 19 36 29
f 21 37 22
f 22 37 38
f 22 38 39
f 22 39 23
f 23 39 40
f 23 40 41
f 23 41 24
f 24 41 36
f 29 36 42
f 29 42 30
f 30 42 43
f 30 43 44
f 30 44 45
f 30 45 46
f 30 46 31
f 31 46 47
f 31 47 48
f 31 48 32
f 32 49 50
f 32 50 33
f 32 48 49
f 34 35 51
f 35 52 53
f 35 53 54
f 35 54 55
f 35 55 56
f 35 56 51
f 36 43 42
f 36 41 57
f 36 57 43
f 39 58 40
f 40 59 60
f 40 60 61
f 40 61 41
f 40 58 59
f 41 61 62
f 41 62 63
f 41 63 64
f 41 64 65
f 41 65 66
f 41 66 57
f 43 57 67
f 43 67 44
f 44 67 68
f 44 68 69
f 44 69 70
f 44 70 45
f 45 70 71
f 45 71 72
f 45 72 73
f 45 73 74
f 45 74 46
f 46 74 75
f 46 75 76
f 46 76 47
f 47 76 77
f 47 77 48
f 48 77 76
f 48 76 78
f 52 79 53
f 53 79 80
f 53 80 81
f 53 81 82
f 53 82 83
f 53 83 84
f 57 66 67
f 60 85 61
f 61 85 62
f 62 85 63
f 63 85 86
f 63 86 64
f 64 87 88
f 64 88 89
f 64 89 65
f 64 86 90
f 64 90 91
f 64 91 92
f 64 92 93
f 64 93 87
f 65 89 66
f 66 89 94
f 66 94 95
f 66 95 67
f 67 95 96
f 67 96 68
f 68 96 69
f 69 97 98
f 69 98 99
f 69 99 100
f 69 100 70
f 69 96 101
f 69 101 102
f 69 102 103
f 69 103 97
f 70 100 104
f 70 104 105
f 70 105 71
f 71 105 72
f 72 105 106
f 72 106 73
f 73 106 74
f 74 106 107
f 74 107 75
f 75 107 108
f 75 108 109
f 75 109 110
f 75 110 76
f 76 111 78
f 76 110 112
f 76 112 103
f 76 103 111
f 78 111 113
f 83 114 84
f 84 114 115
f 84 115 134
f 84 134 160
f 84 160 184
f 84 184 192
f 84 192 197
f 84 197 198
f 84 198 202
f 84 202 203
f 84 203 200
f 84 200 195
f 84 195 191
f 84 191 183
f 84 183 159
f 84 159 158
f 84 158 157
f 84 157 156
f 84 156 155
f 84 155 154
f 84 154 182
f 84 182 179
f 84 179 189
f 84 189 177
f 84 177 176
f 84 176 173
f 84 173 187
f 84 187 186
f 84 186 166
f 84 166 165
f 84 165 164
f 84 164 163
f 84 163 136
f 84 136 116
f 87 117 118
f 87 118 88
f 87 93 119
f 87 119 120
f 87 120 121
f 87 121 117
f 88 94 89
f 88 118 94
f 94 118 122
f 94 122 123
f 94 123 124
f 94 124 95
f 95 124 96
f 96 124 125
f 96 125 126
f 96 126 101
f 97 127 128
f 97 128 129
f 97 129 130
f 97 130 131
f 97 131 98
f 97 103 127
f 98 131 104
f 98 104 99
f 99 104 100
f 101 126 102
f 102 132 133
f 102 133 103
f 102 126 132
f 103 113 111
f 103 112 110
f 103 110 127
f 104 131 105
f 105 131 106
f 106 131 130
f 106 130 129
f 106 129 107
f 107 129 128
f 107 128 127
f 107 127 108
f 108 127 109
f 109 127 110
f 116 136 137
f 116 137 135
f 117 138 118
f 117 121 139
f 117 139 138
f 118 140 122
f 118 138 141
f 118 141 140
f 122 140 142
f 122 142 123
f 123 142 124
f 124 143 144
f 124 144 125
f 124 142 145
f 124 145 146
f 124 146 143
f 125 144 143
f 125 143 147
f 125 147 126
f 126 147 148
f 126 148 149
f 126 149 150
f 126 150 132
f 132 150 151
f 132 151 152
f 132 152 133
f 133 152 154
f 133 154 155
f 133 155 156
f 133 156 157
f 133 157 158
f 133 158 159
f 133 159 153
f 134 161 160
f 135 137 141
f 135 141 162
f 136 163 137
f 137 163 164
f 137 164 165
f 137 165 166
f 137 166 167
f 137 167 168
f 137 168 141
f 138 139 169
f 138 169 141
f 140 141 170
f 140 170 142
f 141 169 171
f 141 171 172
f 141 172 162
f 141 168 170
f 142 170 168
f 142 168 145
f 143 146 173
f 143 173 147
f 145 167 174
f 145 174 175
f 145 175 146
f 145 168 167
f 146 175 173
f 147 173 176
f 147 176 177
f 147 177 148
f 148 177 178
f 148 178 179
f 148 179 180
f 148 180 149
f 149 180 151
f 149 151 150
f 151 154 152
f 151 180 154
f 153 159 181
f 154 180 182
f 159 183 181
f 160 161 184
f 161 185 184
f 166 186 167
f 167 186 187
f 167 187 188
f 167 188 174
f 173 175 174
f 173 174 188
f 173 188 187
f 177 189 178
f 178 189 179
f 179 182 180
f 181 183 190
f 183 191 190
f 184 185 193
f 184 193 192
f 190 191 194
f 191 195 196
f 191 196 194
f 192 193 197
f 193 198 197
f 193 199 198
f 195 200 196
f 196 200 201
f 198 199 201
f 198 201 202
f 200 203 201
f 201 203 202

