# https://github.com/mikedh/trimesh
v 25.74324451 3.18692988 106.47120672
v 26.80982051 3.18692988 106.06974937
v 26.64889828 33.04216885 106.13769035
v 26.64889828 35.17230597 106.13151448
v 25.70394955 5.32816468 106.45885496
v 25.46817977 3.18692988 106.47120672
v 23.40426335 -45.00747734 106.46503084
v 24.79081103 -45.63986289 106.45267909
v 25.62161724 -51.51993851 106.44032734
v 28.49762640 33.04216885 105.10008601
v 28.59306021 49.99452892 105.08773426
v 26.69942037 -41.56818795 105.89064261
v 26.64889828 37.30244945 106.11298685
v 25.66091221 7.45830419 106.44650321
v 25.48502047 5.32816468 106.45885496
v 23.40426335 -44.50822894 106.46503084
v 19.10615233 -4.34621947 102.20961088
v 17.02726798 -15.00801230 100.06646121
v 23.43045999 -55.46957001 106.44650321
v 23.71675187 -55.46957001 106.44650321
v 24.51949025 -60.75054118 106.02034236
v 26.64889828 -60.75054118 105.45830588
v 26.45803703 -52.22997998 105.87211498
v 29.65776343 49.99452892 104.00071656
v 29.60537014 49.99452892 104.05629945
v 28.04105953 -41.56818795 104.82215889
v 28.49762640 49.99452892 105.11861364
v 28.00363575 -50.09984286 104.70480454
v 28.02234764 -47.95861203 104.72950804
v 26.64889828 45.83409800 105.83505337
v 24.65608703 35.17230597 105.32243026
v 25.53741375 8.91168095 106.43415146
v 25.61226130 8.91168095 106.43415146
v 25.50186116 7.45830419 106.44650321
v 19.10615233 -4.10214133 102.20961088
v 17.02726798 -14.85268933 100.06646121
v 15.47231331 -58.62040406 43.38105057
v 15.47418450 -60.75054118 43.38105057
v 15.48541163 -62.89177201 43.38105057
v 15.48915401 -63.34664561 43.38105057
v 18.26224938 -63.34664561 96.83011797
v 18.62900079 -63.34664561 98.48534802
v 18.53169897 -58.62040406 98.83739201
v 21.00540573 -60.05158706 102.61106823
v 22.90091516 -60.75054118 105.06303076
v 24.51949025 -63.34664561 105.79182224
v 24.51949025 -62.89177201 105.84122925
v 26.85472904 -63.34664561 105.17419653
v 27.83148639 -60.75054118 104.50098793
v 26.64889828 -54.36012346 105.67447425
v 32.08656006 49.99452892 100.18998509
v 26.64889828 49.99452892 105.63741264
v 27.91568988 -54.36012346 104.64304578
v 30.15175408 -63.34664561 100.51732557
v 25.01909606 45.83409800 105.05067901
v 18.36329357 -3.31443321 101.19671005
v 20.73221217 47.96424148 98.50387565
v 19.10053876 27.94980334 98.00359793
v 16.22452801 49.99452892 43.53545700
v 16.21330088 49.99452892 43.38105057
v 16.18710424 47.96424148 43.38105057
v 16.18523305 47.80891693 43.38105057
v 16.16464997 45.66768610 43.38105057
v 16.11600065 39.43258658 43.38105057
v 27.87452373 -63.34664561 43.38105057
v 23.19094942 -63.34664561 104.78509728
v 27.73418457 -63.34664561 104.32805705
v 27.78657786 -62.44799212 104.42070154
v 32.73960176 49.99452892 99.02268100
v 26.57217954 49.99452892 105.60035738
v 28.31425308 -63.34664561 103.43250421
v 30.68130049 -63.34664561 99.30060812
v 32.77141515 49.99452892 98.96091588
v 25.28854724 49.99452892 104.84686239
v 25.12201144 47.96424148 104.91479703
v 23.23772914 47.22091255 102.49371388
v 21.09709398 49.39543084 98.12712816
v 20.81828685 49.99452892 97.10804509
v 20.73408336 49.99452892 96.91041071
v 20.15588763 47.96424148 96.83011797
v 28.60241297 49.99452892 43.38105057
v 32.99969700 -18.11446677 79.77755240
v 33.51053152 -15.98432647 84.03915459
v 31.16219600 -41.56818795 69.12356281
v 27.88575086 -63.34664561 43.49839857
v 28.35541924 -18.11446677 43.38105057
v 28.37787350 -18.11446677 43.53545700
v 32.00984133 3.73055946 67.86361423
v 33.39264663 13.84872350 77.64057861
v 34.18041709 9.58844290 84.55177771
v 33.74068774 3.18692988 81.90835032
v 30.81415489 -63.34664561 98.96091588
v 33.45252467 43.70396088 96.83011797
v 33.53859935 49.99452892 96.83011797
v 25.23802514 49.99452892 104.76039378
v 21.27298572 49.99452892 97.94183917
v 33.48059250 49.99452892 75.50978069
v 28.41903965 -3.20348863 43.38105057
v 33.56666719 -13.85418617 84.03915459
v 33.68642327 -13.85418617 86.16995251
v 32.97350035 -35.16667652 86.16995251
v 32.81444931 -35.16667652 84.03915459
v 32.62546242 -35.16667652 81.90835032
v 32.43834355 -43.69833143 84.03915459
v 32.53002862 -45.82846855 86.16995251
v 30.18730666 -58.62040406 66.98658902
v 29.90662835 -60.75054118 65.33753484
v 29.85797745 -61.93765001 65.79457508
v 28.06725617 -63.34664561 45.67243080
v 32.73399137 -37.30791370 84.03915459
v 33.31031433 30.91202537 75.50978069
v 33.54234173 24.51051553 77.64057861
v 33.80243697 24.51051553 79.77755240
v 34.12802381 22.38037523 82.82243714
v 34.30952594 26.64065583 84.03915459
v 34.44050915 26.64065583 86.16995251
v 34.18041709 9.58844290 85.93525016
v 34.15608846 8.06850075 84.77412195
v 31.18839264 -63.34664561 97.28715820
v 31.42041687 -60.75054118 96.83011797
v 32.10714314 -35.16667652 96.16926112
v 32.16327880 -28.77625880 96.43483649
v 33.96896959 41.72914195 94.48932756
v 34.28520049 49.99452892 92.72292538
v 33.97458633 43.52644892 94.48932756
v 33.74255893 49.99452892 77.64057861
v 32.96040203 -35.16667652 90.43772422
v 33.05209028 -35.16667652 88.30075042
v 34.15608846 8.06850075 85.68820241
v 34.18041709 15.97886222 88.08458206
v 32.89303924 -37.30791370 86.16995251
v 32.63294718 -45.82846855 88.30075042
v 32.53564536 -47.95861203 88.30075042
v 32.29426202 -52.22997998 88.30075042
v 32.40091977 -47.95861203 86.16995251
v 32.11649908 -52.32983602 86.02789465
v 32.06036342 -53.92743727 86.63934449
v 31.01437209 -58.62040406 77.64057861
v 30.99940258 -60.75054118 79.77755240
v 29.67460413 -63.34664561 64.96078735
v 34.16544758 30.91202537 82.51362428
v 34.13925094 24.51051553 82.72361677
v 34.42553964 45.83409800 84.03915459
v 34.58833306 45.83409800 86.16995251
v 34.55652286 41.56272370 88.30075042
v 34.53406859 39.43258658 88.30075042
v 34.36004804 26.64065583 88.30075042
v 31.26136900 -63.34664561 96.83011797
v 31.29505040 -62.89177201 96.83011797
v 31.61689169 -60.75054118 94.69932005
v 31.98551587 -55.49175742 93.69259509
v 32.66101183 -37.30791370 92.56852213
v 32.40091977 -35.16667652 94.69932005
v 34.01949486 30.91202537 92.85262513
v 34.10182717 41.13004387 93.56907122
v 34.11117993 42.55013316 93.64318808
v 34.30765475 47.96424148 92.52529100
v 34.52658384 49.99452892 90.54272046
v 33.75378606 49.99452892 77.75175073
v 32.71340512 -35.16667652 92.56852213
v 32.20070258 -52.22997998 92.56852213
v 32.13146859 -54.36012346 92.56852213
v 32.49635040 -47.95861203 90.43772422
v 34.09060003 15.97886222 89.14688990
v 34.10556954 17.46552167 89.30747538
v 34.14486133 30.91202537 91.79031729
v 32.33729936 -52.22997998 90.43772422
v 34.46296342 41.56272370 90.43772422
v 32.21380090 -54.36012346 90.43772422
v 32.11088552 -54.52654171 88.18340243
v 31.58882386 -60.75054118 92.56852213
v 31.33059981 -62.89177201 92.56852213
v 31.26511138 -63.34664561 92.56852213
v 30.62329364 -63.34664561 79.77755240
v 30.49605281 -63.34664561 77.64057861
v 30.23595757 -63.34664561 73.38515865
v 29.93095698 -63.34664561 68.66652258
v 29.82055367 -63.34664561 66.98658902
v 32.01171252 -55.69145678 88.81954942
v 34.38998706 47.96424148 84.03915459
v 34.54716691 47.96424148 86.16995251
v 34.53781097 49.99452892 90.43772422
v 34.56587880 45.83409800 88.30075042
v 34.52284146 47.96424148 90.43772422
v 31.33621655 -63.34664561 95.15018441
v 31.39047785 -62.89177201 94.69932005
v 34.22345126 41.72914195 92.74145301
v 33.94464731 49.99452892 79.77755240
v 32.05287867 -55.91334990 90.43772422
v 31.28756565 -63.34664561 93.01938649
v 34.08124091 49.99452892 81.29073096
v 34.28707168 49.99452892 84.03915459
v 34.44238034 49.99452892 86.16995251
v 34.52097027 49.99452892 88.30075042
v 31.33434219 -63.34664561 94.69932005
f 1 2 3
f 1 3 4
f 1 4 5
f 1 5 15
f 1 15 6
f 1 6 7
f 1 7 8
f 1 8 9
f 1 9 2
f 2 10 11
f 2 11 3
f 2 9 12
f 2 12 10
f 3 11 4
f 4 11 13
f 4 13 14
f 4 14 5
f 5 14 34
f 5 34 15
f 6 15 16
f 6 16 7
f 7 16 35
f 7 35 17
f 7 17 18
f 7 18 19
f 7 19 20
f 7 20 9
f 7 9 8
f 9 20 21
f 9 21 22
f 9 22 23
f 9 23 12
f 10 24 25
f 10 25 11
f 10 12 26
f 10 26 24
f 11 25 24
f 11 24 51
f 11 51 69
f 11 69 73
f 11 73 94
f 11 94 124
f 11 124 158
f 11 158 182
f 11 182 194
f 11 194 193
f 11 193 192
f 11 192 191
f 11 191 188
f 11 188 159
f 11 159 126
f 11 126 97
f 11 97 81
f 11 81 60
f 11 60 59
f 11 59 79
f 11 79 78
f 11 78 96
f 11 96 95
f 11 95 74
f 11 74 70
f 11 70 52
f 11 52 27
f 11 27 13
f 12 23 28
f 12 28 29
f 12 29 26
f 13 27 30
f 13 30 31
f 13 31 32
f 13 32 33
f 13 33 14
f 14 33 32
f 14 32 34
f 15 34 16
f 16 34 32
f 16 32 31
f 16 31 35
f 17 35 36
f 17 36 18
f 18 36 37
f 18 37 38
f 18 38 39
f 18 39 40
f 18 40 41
f 18 41 42
f 18 42 43
f 18 43 44
f 18 44 19
f 19 44 45
f 19 45 46
f 19 46 47
f 19 47 21
f 19 21 20
f 21 47 22
f 22 47 48
f 22 48 49
f 22 49 50
f 22 50 23
f 23 50 28
f 24 26 51
f 26 29 51
f 27 52 30
f 28 50 53
f 28 53 49
f 28 49 54
f 28 54 51
f 28 51 29
f 30 52 55
f 30 55 31
f 31 55 35
f 35 55 56
f 35 56 36
f 36 56 57
f 36 57 58
f 36 58 59
f 36 59 60
f 36 60 61
f 36 61 62
f 36 62 63
f 36 63 64
f 36 64 37
f 37 64 63
f 37 63 62
f 37 62 61
f 37 61 60
f 37 60 81
f 37 81 98
f 37 98 86
f 37 86 65
f 37 65 40
f 37 40 39
f 37 39 38
f 40 65 85
f 40 85 109
f 40 109 140
f 40 140 178
f 40 178 177
f 40 177 176
f 40 176 175
f 40 175 174
f 40 174 173
f 40 173 190
f 40 190 195
f 40 195 185
f 40 185 148
f 40 148 119
f 40 119 92
f 40 92 72
f 40 72 54
f 40 54 71
f 40 71 67
f 40 67 48
f 40 48 46
f 40 46 66
f 40 66 42
f 40 42 41
f 42 66 45
f 42 45 44
f 42 44 43
f 45 66 46
f 46 48 47
f 48 67 68
f 48 68 49
f 49 68 54
f 49 53 50
f 51 54 69
f 52 70 55
f 54 68 71
f 54 72 73
f 54 73 69
f 55 70 74
f 55 74 75
f 55 75 76
f 55 76 56
f 56 76 57
f 57 76 74
f 57 74 77
f 57 77 78
f 57 78 79
f 57 79 80
f 57 80 58
f 58 80 59
f 59 80 79
f 65 82 83
f 65 83 84
f 65 84 85
f 65 86 87
f 65 87 88
f 65 88 89
f 65 89 90
f 65 90 91
f 65 91 82
f 67 71 68
f 72 92 73
f 73 93 94
f 73 92 93
f 74 95 77
f 74 76 75
f 77 95 96
f 77 96 78
f 81 97 98
f 82 99 83
f 82 91 99
f 83 99 100
f 83 100 101
f 83 101 102
f 83 102 103
f 83 103 84
f 84 103 85
f 85 104 105
f 85 105 106
f 85 106 107
f 85 107 108
f 85 108 109
f 85 103 110
f 85 110 104
f 86 98 97
f 86 97 87
f 87 97 88
f 88 97 111
f 88 111 112
f 88 112 89
f 89 112 90
f 90 112 113
f 90 113 114
f 90 114 115
f 90 115 116
f 90 116 117
f 90 117 129
f 90 129 118
f 90 118 99
f 90 99 91
f 92 119 120
f 92 120 121
f 92 121 122
f 92 122 93
f 93 123 94
f 93 122 121
f 93 121 123
f 94 123 125
f 94 125 124
f 97 126 112
f 97 112 111
f 99 118 100
f 100 127 128
f 100 128 101
f 100 118 129
f 100 129 117
f 100 117 130
f 100 130 127
f 101 128 131
f 101 131 110
f 101 110 102
f 102 110 103
f 104 110 105
f 105 132 133
f 105 133 134
f 105 134 135
f 105 135 106
f 105 110 131
f 105 131 132
f 106 136 137
f 106 137 107
f 106 135 136
f 107 137 108
f 108 137 138
f 108 138 139
f 108 139 140
f 108 140 109
f 112 126 113
f 113 126 141
f 113 141 115
f 113 115 142
f 113 142 114
f 114 142 115
f 115 141 126
f 115 126 143
f 115 143 144
f 115 144 116
f 116 144 145
f 116 145 146
f 116 146 147
f 116 147 117
f 117 147 130
f 119 148 149
f 119 149 120
f 120 149 150
f 120 150 151
f 120 151 152
f 120 152 153
f 120 153 121
f 121 153 123
f 123 154 155
f 123 155 156
f 123 156 125
f 123 153 154
f 124 157 158
f 124 125 156
f 124 156 157
f 126 159 143
f 127 160 152
f 127 152 151
f 127 151 161
f 127 161 162
f 127 162 163
f 127 163 128
f 127 130 164
f 127 164 165
f 127 165 166
f 127 166 160
f 128 163 167
f 128 167 132
f 128 132 131
f 130 147 168
f 130 168 165
f 130 165 164
f 132 167 133
f 133 167 134
f 134 167 169
f 134 169 170
f 134 170 137
f 134 137 136
f 134 136 135
f 137 170 139
f 137 139 138
f 139 171 172
f 139 172 173
f 139 173 174
f 139 174 175
f 139 175 176
f 139 176 177
f 139 177 178
f 139 178 140
f 139 170 179
f 139 179 171
f 143 159 180
f 143 180 144
f 144 180 181
f 144 181 182
f 144 182 183
f 144 183 145
f 145 168 146
f 145 183 182
f 145 182 184
f 145 184 168
f 146 168 147
f 148 185 150
f 148 150 149
f 150 185 186
f 150 186 171
f 150 171 169
f 150 169 162
f 150 162 151
f 151 162 161
f 152 160 153
f 153 160 154
f 154 166 187
f 154 187 155
f 154 160 166
f 155 187 156
f 156 187 157
f 157 184 182
f 157 182 158
f 157 187 168
f 157 168 184
f 159 188 180
f 162 169 167
f 162 167 163
f 165 168 166
f 166 168 187
f 169 171 189
f 169 189 170
f 170 189 179
f 171 186 172
f 171 179 189
f 172 186 190
f 172 190 173
f 180 188 191
f 180 191 192
f 180 192 181
f 181 192 193
f 181 193 194
f 181 194 182
f 185 195 186
f 186 195 190

