# https://github.com/mikedh/trimesh
v -34.48996699 64.95619832 4.36292436
v -33.92711087 77.81580161 11.55563094
v -33.89711149 77.81580161 9.42482985
v -34.09568306 72.20085025 4.36292436
v -22.12713732 64.95619832 4.36292436
v -34.73996924 64.95619832 39.20604408
v -34.44425471 77.81580161 60.58409276
v -34.30282588 77.81580161 41.40687338
v -34.19282603 79.09665413 41.40687338
v -33.22854116 79.94761613 7.29402875
v -33.39282772 79.15127124 4.36292436
v -33.76853954 77.81580161 4.36292436
v -34.01711219 73.55393256 4.36292436
v -22.12285169 64.95619832 5.12320837
v -20.25428388 69.03131702 4.36292436
v -20.25142785 69.03131702 4.37292839
v -20.25142785 67.18315438 79.77131934
v -34.75568215 64.95619832 41.40687338
v -34.55711058 77.81580161 81.90211726
v -34.27853855 79.17241027 58.45328849
v -32.35425760 81.21965596 7.29402875
v -34.28568337 79.19531566 60.58409276
v -33.17282802 79.94761613 5.16322448
v -33.14282864 79.94761613 4.36292436
v -21.60142541 64.95619832 101.08934384
v -20.25142785 81.51564688 4.36292436
v -20.25142785 67.18668072 81.90211726
v -34.76568300 64.95619832 43.46764627
v -34.76425340 65.02667447 43.53767447
v -34.84139466 65.02667447 81.90211726
v -34.84425387 64.95619832 83.97289735
v -34.82996739 65.02667447 88.30452457
v -34.81282488 65.02667447 90.43532884
v -34.74711090 65.02667447 96.82774165
v -34.53139683 77.81580161 84.03292153
v -34.31711236 79.34330794 84.03292153
v -34.33568446 79.26226545 81.90211726
v -34.77425425 64.95619832 45.59845054
v -34.77853988 64.95619832 47.73925566
v -32.44139972 81.27779942 32.88366265
v -30.91283230 81.65659283 32.88366265
v -30.91283230 81.55088496 7.29402875
v -30.91283230 81.52269323 4.36292436
v -31.76568773 81.29365210 4.36292436
v -32.24425775 81.15094616 4.36292436
v -32.57997252 80.70520295 4.36292436
v -33.51139881 80.27003243 62.71489703
v -20.25142785 67.32762667 86.17372665
v -20.25142785 67.44390723 88.30452457
v -20.25142785 67.75046449 90.43532884
v -20.25142785 69.44358215 98.95853957
v -20.25142785 69.85232729 100.50912284
v -20.25142785 71.42211804 101.26941002
v -21.62856718 64.95619832 101.13936081
v -20.25142785 81.55088496 4.36292436
v -34.84282426 64.95619832 81.83209223
v -34.83139381 64.95619832 88.30452457
v -34.81425131 64.95619832 90.43532884
v -34.74854050 64.95619832 96.82774165
v -34.70282504 65.02667447 98.95853957
v -34.63996707 67.15848899 98.95853957
v -34.55139535 69.29030352 98.95853957
v -34.25996644 77.81580161 94.69693738
v -34.11568477 78.89933108 98.02818707
v -34.17425393 79.10546047 94.69693738
v -34.27282650 79.33450160 86.17372665
v -33.48997069 80.03571132 96.82774165
v -32.33568550 81.29365210 101.08934384
v -32.42283079 81.22670866 96.82774165
v -32.45140057 81.31832384 64.84569494
v -30.91283230 81.82573050 101.08934384
v -28.78140854 82.23094929 101.08934384
v -26.64998477 82.53398656 101.08934384
v -28.78140854 81.83453684 5.16322448
v -28.78140854 81.82925049 4.36292436
v -20.25142785 78.88875839 104.34056764
v -22.51856522 64.95619832 102.68994408
v -25.85427208 81.81691780 4.36292436
v -26.64998477 81.92615202 7.29402875
v -20.25142785 82.95329803 101.08934384
v -34.70568106 64.95619832 98.88851454
v -34.70282504 64.95619832 98.95853957
v -34.33568446 65.04605351 101.28941808
v -34.31711236 67.04749478 101.24940196
v -34.28568337 69.38191870 101.24940196
v -34.07711096 75.68398709 101.72958267
v -34.13139767 77.08640652 100.29904140
v -34.14425455 77.80346892 98.82849036
v -34.08568221 78.50643863 99.44872748
v -33.31139765 79.94761613 101.08934384
v -32.19854547 81.19675693 103.22014176
v -30.91283230 81.73939531 103.22014176
v -24.51856101 82.75597499 101.08934384
v -26.64998477 81.85391587 4.36292436
v -22.38713724 82.88811459 101.08934384
v -26.64998477 81.94729105 9.42482985
v -20.25142785 79.80138384 104.51063297
v -26.46284207 64.95619832 104.75071697
v -25.56998800 64.95619832 104.30055153
v -24.69427485 64.97029737 103.86038694
v -24.71141735 64.95619832 103.86038694
v -20.25428388 82.95329803 101.08934384
v -24.51856101 82.34018350 103.22014176
v -22.38713724 82.33137716 103.22014176
v -20.25142785 82.26794736 103.22014176
v -34.35139736 64.95619832 101.18938414
v -34.33711088 64.95619832 101.27941722
v -34.11854079 65.77016861 102.17974811
v -34.11996721 70.15359821 102.18975531
v -34.11996721 70.64691218 102.18975531
v -34.09282704 73.55393256 101.95966581
v -33.69711350 73.55393256 103.22014176
v -32.88711434 79.94761613 103.22014176
v -34.01854180 77.80346892 101.03932052
v -32.02283163 81.06637733 104.35056850
v -30.91283230 81.30599115 104.59066520
v -20.25142785 79.88242633 104.52063382
v -29.76569194 65.83887840 106.46137106
v -28.94569510 65.08833792 105.96117594
v -28.93569425 64.95619832 105.93116068
v -29.29855237 81.35179556 104.63067497
v -24.51856101 81.42050536 104.47061685
v -22.38713724 81.35532191 104.51063297
v -20.25142785 81.24784769 104.48061770
v -34.30568190 64.95619832 101.39945922
v -33.81568460 64.95619832 102.91002637
v -33.76853954 64.95619832 103.03007473
v -33.81425500 71.38335997 103.03007473
v -32.75425676 71.42211804 105.36094688
v -32.54854354 73.45703103 105.44097912
v -32.23711610 79.94761613 104.48061770
v -32.03425891 72.68006518 106.47137191
v -30.91283230 79.94761613 104.97079926
v -29.84283638 70.36678029 106.42134859
v -29.80140655 69.29030352 106.44135665
v -29.74426381 67.15848899 106.47137191
v -30.91283230 67.15848899 106.56140500
v -30.96568941 65.08833792 106.51138803
v -30.83426144 64.95619832 106.48137277
v -30.09140586 64.95619832 106.39133968
v -29.20712145 64.95619832 106.04120818
v -31.78854546 72.68006518 106.47137191
v -32.73997028 64.95619832 105.29092821
v -32.70997090 65.02667447 105.36094688
v -32.05854624 65.02667447 106.50137447
v -32.05711664 67.15848899 106.50137447
v -32.04997499 71.42211804 106.49137362
v -31.01140487 71.21422230 106.47137191
v -30.91283230 69.29030352 106.51138803
v -32.05711664 64.95619832 106.50137447
v -31.03711863 64.95619832 106.50137447
v -32.70282925 64.95619832 105.36094688
f 1 2 3
f 1 3 4
f 1 4 13
f 1 13 12
f 1 12 11
f 1 11 24
f 1 24 46
f 1 46 45
f 1 45 44
f 1 44 43
f 1 43 75
f 1 75 94
f 1 94 78
f 1 78 55
f 1 55 26
f 1 26 15
f 1 15 5
f 1 5 14
f 1 14 25
f 1 25 54
f 1 54 77
f 1 77 101
f 1 101 99
f 1 99 98
f 1 98 120
f 1 120 141
f 1 141 140
f 1 140 139
f 1 139 151
f 1 151 150
f 1 150 152
f 1 152 143
f 1 143 127
f 1 127 126
f 1 126 125
f 1 125 107
f 1 107 106
f 1 106 82
f 1 82 81
f 1 81 59
f 1 59 58
f 1 58 57
f 1 57 31
f 1 31 56
f 1 56 39
f 1 39 38
f 1 38 28
f 1 28 18
f 1 18 6
f 1 6 7
f 1 7 8
f 1 8 2
f 2 8 9
f 2 9 3
f 3 9 10
f 3 10 11
f 3 11 12
f 3 12 13
f 3 13 4
f 5 15 16
f 5 16 17
f 5 17 14
f 6 18 7
f 7 19 20
f 7 20 9
f 7 9 8
f 7 18 19
f 9 21 10
f 9 20 22
f 9 22 21
f 10 21 23
f 10 23 11
f 11 23 24
f 14 17 25
f 15 26 16
f 16 26 55
f 16 55 80
f 16 80 105
f 16 105 124
f 16 124 117
f 16 117 97
f 16 97 76
f 16 76 53
f 16 53 52
f 16 52 51
f 16 51 50
f 16 50 49
f 16 49 48
f 16 48 27
f 16 27 17
f 17 27 25
f 18 28 29
f 18 29 19
f 19 30 31
f 19 31 32
f 19 32 33
f 19 33 34
f 19 34 35
f 19 35 36
f 19 36 37
f 19 37 22
f 19 22 20
f 19 29 38
f 19 38 39
f 19 39 30
f 21 40 41
f 21 41 42
f 21 42 43
f 21 43 44
f 21 44 45
f 21 45 46
f 21 46 24
f 21 24 23
f 21 22 47
f 21 47 40
f 22 37 36
f 22 36 47
f 25 27 48
f 25 48 49
f 25 49 50
f 25 50 51
f 25 51 52
f 25 52 53
f 25 53 54
f 28 38 29
f 30 39 56
f 30 56 31
f 31 57 32
f 32 57 58
f 32 58 33
f 33 58 59
f 33 59 34
f 34 59 60
f 34 60 61
f 34 61 35
f 35 61 62
f 35 62 63
f 35 63 64
f 35 64 65
f 35 65 36
f 36 65 66
f 36 66 67
f 36 67 68
f 36 68 69
f 36 69 47
f 40 47 70
f 40 70 71
f 40 71 41
f 41 71 72
f 41 72 73
f 41 73 42
f 42 74 75
f 42 75 43
f 42 73 74
f 47 69 70
f 53 76 54
f 54 76 77
f 55 78 79
f 55 79 80
f 59 81 60
f 60 81 82
f 60 82 83
f 60 83 84
f 60 84 85
f 60 85 86
f 60 86 61
f 61 86 87
f 61 87 62
f 62 87 88
f 62 88 64
f 62 64 63
f 64 88 87
f 64 87 89
f 64 89 90
f 64 90 65
f 65 90 67
f 65 67 66
f 67 90 68
f 68 90 91
f 68 91 92
f 68 92 71
f 68 71 70
f 68 70 69
f 71 92 72
f 72 92 73
f 73 92 93
f 73 93 74
f 74 93 75
f 75 93 95
f 75 95 96
f 75 96 79
f 75 79 94
f 76 97 98
f 76 98 99
f 76 99 100
f 76 100 77
f 77 100 101
f 78 94 79
f 79 96 102
f 79 102 80
f 80 102 103
f 80 103 104
f 80 104 105
f 82 106 83
f 83 106 107
f 83 107 108
f 83 108 109
f 83 109 110
f 83 110 84
f 84 110 85
f 85 110 111
f 85 111 86
f 86 111 112
f 86 112 113
f 86 113 114
f 86 114 87
f 87 114 89
f 89 114 90
f 90 114 113
f 90 113 91
f 91 113 115
f 91 115 92
f 92 103 93
f 92 115 116
f 92 116 103
f 93 103 95
f 95 103 102
f 95 102 96
f 97 117 118
f 97 118 119
f 97 119 98
f 98 119 120
f 99 101 100
f 103 116 121
f 103 121 104
f 104 121 122
f 104 122 123
f 104 123 105
f 105 123 124
f 107 125 108
f 108 126 127
f 108 127 128
f 108 128 109
f 108 125 126
f 109 128 110
f 110 128 112
f 110 112 111
f 112 128 129
f 112 129 130
f 112 130 131
f 112 131 113
f 113 131 115
f 115 131 132
f 115 132 133
f 115 133 116
f 116 133 121
f 117 124 134
f 117 134 135
f 117 135 136
f 117 136 118
f 118 136 137
f 118 137 138
f 118 138 139
f 118 139 140
f 118 140 141
f 118 141 120
f 118 120 119
f 121 123 122
f 121 133 123
f 123 133 142
f 123 142 124
f 124 142 134
f 127 143 144
f 127 144 128
f 128 144 129
f 129 144 145
f 129 145 146
f 129 146 147
f 129 147 132
f 129 132 130
f 130 132 131
f 132 147 137
f 132 137 142
f 132 142 133
f 134 142 148
f 134 148 149
f 134 149 137
f 134 137 135
f 135 137 136
f 137 149 148
f 137 148 142
f 137 147 146
f 137 146 145
f 137 145 150
f 137 150 138
f 138 150 151
f 138 151 139
f 143 152 144
f 144 152 150
f 144 150 145

