# https://github.com/mikedh/trimesh
v -1.26802424 -68.33959985 -107.72526215
v -1.18966622 -68.33959985 -107.72706663
v -1.26802424 -68.33959985 -94.26591905
v -1.26802424 -20.25566106 -107.81903127
v 7.46325935 -68.33959985 -107.73248005
v 19.37362430 -68.33959985 -89.39898571
v -1.26802424 0.20987177 -95.38392415
v -1.26802424 -20.05436055 -107.81903127
v -1.06280026 -20.25566106 -107.81903127
v 9.59757249 -45.83422508 -107.51248671
v 9.59757249 -68.33959985 -107.50887776
v 1.06778163 -20.25566106 -107.79919476
v 7.46325935 -9.60016404 -107.72526215
v 33.07128823 -68.33959985 -89.39898571
v 24.24672398 0.20987177 -89.39898571
v -1.26802424 0.20987177 -107.72706663
v -1.26802424 -18.12187846 -107.81182608
v -1.06280026 -18.12187846 -107.81182608
v 24.51537935 -68.33959985 -105.81383491
v -1.06280026 0.20987177 -107.72706663
v 1.06778163 0.20987177 -107.70903459
v 5.33267666 0.20987177 -107.66576534
v 6.18714833 0.20987177 -107.63510199
v 7.46325935 0.20987177 -107.58281037
v 9.59757249 0.20987177 -107.27626581
v 26.64969250 -68.33959985 -105.53614287
v 34.12725500 -68.33959985 -98.07435046
v 34.13471434 -68.31947107 -98.09238249
v 33.30262943 -67.15192554 -89.39898571
v 36.84738524 0.20987177 -89.39898571
v 28.78027439 0.20987177 -104.22518613
v 27.10864522 -3.19881463 -104.54436201
v 29.88474593 -42.38527794 -104.66337469
v 28.78027439 -65.02485729 -105.11418187
v 28.78027439 -68.33959985 -105.14844146
v 34.12351898 -68.33959985 -98.33040786
v 34.13471434 -68.31947107 -98.31057136
v 33.81009010 -64.39411737 -89.39898571
v 33.70934453 -64.95775500 -89.39898571
v 33.44815327 -66.40040658 -89.39898571
v 34.91082879 -60.75728890 -95.04491176
v 35.11231992 -58.62350471 -92.91349117
v 34.81754574 -60.75728890 -92.91349117
v 34.42202600 -60.87135835 -89.39898571
v 36.75409902 0.20987177 -90.78025976
v 36.83245703 -1.07174003 -89.39898571
v 29.58623890 0.20987177 -103.84470262
v 30.08623706 -65.02485729 -104.79501235
v 30.73175270 0.20987177 -103.29111031
v 30.78399349 -1.07174003 -103.26946933
v 31.90338689 -3.19881463 -102.38408254
v 30.08996673 -68.33959985 -104.78779445
v 32.89964717 -68.33959985 -101.43918623
v 34.17575977 -67.15192554 -98.40253600
v 35.07874018 -58.62350471 -95.04491176
v 35.30634853 -56.49643011 -92.91349117
v 35.63097278 -52.22886172 -90.78025976
v 35.42575198 -54.36264591 -90.78025976
v 35.32500641 -54.36264591 -89.39898571
v 35.07127449 -56.49643011 -89.39898571
v 34.91082879 -58.62350471 -90.78025976
v 34.78023316 -58.62350471 -89.39898571
v 36.57126577 0.20987177 -91.81531623
v 36.73917399 -1.07174003 -90.78025976
v 36.30261199 -28.78408666 -92.04252747
v 36.43693729 -30.16634872 -89.39898571
v 36.40708723 -28.78408666 -90.78025976
v 31.15712251 -68.33959985 -103.87535961
v 30.68324475 -68.33959985 -104.29010272
v 31.16085535 0.20987177 -102.90702420
v 31.85114927 -1.07174003 -102.31375889
v 32.44443047 0.20987177 -101.17591728
v 32.45188981 -1.07174003 -101.24804541
v 33.45188612 0.20987177 -99.30596117
v 32.45562266 -3.19881463 -101.31836907
v 32.58995114 -68.33959985 -102.03966309
v 32.19069855 -68.33959985 -102.80784167
v 31.73547867 -68.33959985 -103.28389877
v 34.19814732 -65.02485729 -98.44220901
v 33.46307830 -1.07174003 -99.30596117
v 34.05635950 -1.07174003 -98.13205550
v 34.57127951 0.20987177 -97.05732602
v 35.47052708 0.20987177 -95.04491176
v 35.13097462 -56.49643011 -95.04491176
v 35.67948072 -50.09508070 -92.91349117
v 35.56754297 -52.22886172 -92.91349117
v 35.78768881 -50.09508070 -90.78025976
v 35.71306364 -50.09508070 -89.39898571
v 35.54142258 -52.22886172 -89.39898571
v 36.44813266 0.20987177 -92.45727058
v 36.20559610 -37.30579790 -91.18057978
v 36.24664153 -38.53372977 -89.79749491
v 36.26529623 -37.30579790 -90.11486631
v 36.24664153 -38.53372977 -89.39898571
v 31.79891165 0.20987177 -102.24163075
v 34.04889381 0.20987177 -98.12483761
v 36.07873014 0.20987177 -93.52298405
v 36.23171649 0.20987177 -93.09561598
v 36.17574603 -39.32551264 -90.61616699
v 35.82500139 -47.96800610 -89.39898571
v 36.15709133 -40.71448430 -89.39898571
v 36.11977557 -41.57336628 -89.39898571
v 36.02275967 -43.70044089 -89.39898571
f 1 2 5
f 1 5 11
f 1 11 19
f 1 19 26
f 1 26 35
f 1 35 52
f 1 52 69
f 1 69 68
f 1 68 78
f 1 78 77
f 1 77 76
f 1 76 53
f 1 53 36
f 1 36 27
f 1 27 14
f 1 14 6
f 1 6 3
f 1 3 7
f 1 7 16
f 1 16 17
f 1 17 8
f 1 8 4
f 1 4 2
f 2 4 5
f 3 6 7
f 4 8 9
f 4 9 5
f 5 10 11
f 5 9 12
f 5 12 13
f 5 13 10
f 6 14 29
f 6 29 40
f 6 40 39
f 6 39 38
f 6 38 44
f 6 44 62
f 6 62 60
f 6 60 59
f 6 59 89
f 6 89 88
f 6 88 100
f 6 100 103
f 6 103 102
f 6 102 101
f 6 101 94
f 6 94 66
f 6 66 46
f 6 46 30
f 6 30 15
f 6 15 7
f 7 15 30
f 7 30 45
f 7 45 63
f 7 63 90
f 7 90 98
f 7 98 97
f 7 97 83
f 7 83 82
f 7 82 96
f 7 96 74
f 7 74 72
f 7 72 95
f 7 95 70
f 7 70 49
f 7 49 47
f 7 47 31
f 7 31 25
f 7 25 24
f 7 24 23
f 7 23 22
f 7 22 21
f 7 21 20
f 7 20 16
f 8 17 18
f 8 18 9
f 9 18 13
f 9 13 12
f 10 19 11
f 10 13 19
f 13 18 20
f 13 20 21
f 13 21 22
f 13 22 23
f 13 23 24
f 13 24 25
f 13 25 26
f 13 26 19
f 14 27 28
f 14 28 29
f 16 20 18
f 16 18 17
f 25 31 32
f 25 32 33
f 25 33 26
f 26 33 34
f 26 34 35
f 27 36 37
f 27 37 28
f 28 38 39
f 28 39 40
f 28 40 29
f 28 37 41
f 28 41 42
f 28 42 43
f 28 43 44
f 28 44 38
f 30 46 64
f 30 64 45
f 31 47 33
f 31 33 32
f 33 48 35
f 33 35 34
f 33 47 49
f 33 49 50
f 33 50 51
f 33 51 48
f 35 48 52
f 36 53 37
f 37 53 54
f 37 54 55
f 37 55 41
f 41 55 56
f 41 56 42
f 42 56 57
f 42 57 58
f 42 58 59
f 42 59 60
f 42 60 61
f 42 61 43
f 43 61 62
f 43 62 44
f 45 64 65
f 45 65 63
f 46 66 67
f 46 67 64
f 48 68 69
f 48 69 52
f 48 51 68
f 49 70 51
f 49 51 50
f 51 70 71
f 51 71 72
f 51 72 73
f 51 73 74
f 51 74 75
f 51 75 76
f 51 76 77
f 51 77 78
f 51 78 68
f 53 79 54
f 53 76 75
f 53 75 80
f 53 80 81
f 53 81 82
f 53 82 83
f 53 83 79
f 54 79 65
f 54 65 84
f 54 84 55
f 55 84 85
f 55 85 86
f 55 86 56
f 56 86 87
f 56 87 57
f 57 87 88
f 57 88 89
f 57 89 58
f 58 89 59
f 60 62 61
f 63 65 90
f 64 67 65
f 65 67 91
f 65 91 85
f 65 85 84
f 65 79 90
f 66 92 93
f 66 93 67
f 66 94 92
f 67 93 91
f 70 95 71
f 71 95 72
f 72 74 73
f 74 96 80
f 74 80 75
f 79 83 97
f 79 97 98
f 79 98 90
f 80 96 81
f 81 96 82
f 85 91 99
f 85 99 92
f 85 92 87
f 85 87 86
f 87 100 88
f 87 92 94
f 87 94 101
f 87 101 102
f 87 102 103
f 87 103 100
f 91 93 92
f 91 92 99

