# https://github.com/mikedh/trimesh
v -35.46675611 0.32755016 -92.61809115
v -22.73295929 0.32755016 -92.61809115
v -35.62075590 0.32755016 -91.51689816
v -35.79740691 3.19913232 -90.77643478
v -35.48336489 1.36740056 -92.61809115
v -21.56134258 69.15747135 -92.61809115
v -21.56134258 67.26975007 -92.60859860
v -21.56134258 67.26975007 -63.10419005
v -21.56134258 67.38173547 -26.99262357
v -21.56134258 68.56555939 4.35343499
v -24.14463777 0.32755016 4.35343499
v -35.71889641 0.32755016 -90.77643478
v -35.83062131 5.33481948 -90.77643478
v -35.89252303 0.32755016 -89.39045259
v -35.98613330 0.32755016 -88.64050301
v -36.06011355 3.19913232 -88.64050301
v -35.54073637 5.33481948 -92.61809115
v -21.56134258 81.89961227 -92.61809115
v -21.56134258 81.54766359 4.35343499
v -36.49041072 0.32755016 4.35343499
v -35.88648376 9.59819437 -90.77643478
v -36.15825089 11.72588211 -88.82086781
v -36.17938992 0.32755016 -86.97921780
v -36.29262385 0.32755016 -85.91599501
v -36.25790043 9.99013693 -87.71967483
v -36.16127211 9.40622120 -88.51709351
v -35.91366206 11.72588211 -90.77643478
v -35.56942369 7.75846320 -92.61809115
v -21.56134258 81.89961227 -91.48841416
v -26.94384083 81.85960886 -92.61809115
v -28.78279684 81.89160651 -88.64050301
v -28.78279684 82.03558320 -71.59098090
v -26.65093466 82.01959074 -73.71742013
v -25.85375107 81.81162510 4.35343499
v -21.56134258 81.57165547 3.84080870
v -36.48286243 1.07144141 4.35343499
v -36.51003755 0.32755016 3.02440809
v -36.39378241 11.72588211 -86.51405743
v -36.18542919 22.38832064 -89.10565702
v -35.99066037 22.38832064 -90.77643478
v -36.44209656 0.32755016 -84.37812566
v -36.34999850 9.40622120 -86.72290624
v -35.71134494 22.38832064 -92.61809115
v -26.65093466 81.99559250 -14.03460656
v -24.51907249 81.89160651 -1.23797243
v -21.56134258 81.66764205 0.88846997
v -28.78279684 81.81162510 -92.61809115
v -28.78279684 81.85960886 -90.77643478
v -30.93428585 81.43567183 -92.61809115
v -30.91314682 81.59565370 -67.31911100
v -30.91314682 81.65964264 -28.95768309
v -30.91314682 81.69963334 -3.37391056
v -28.78279684 81.85960886 -3.37391056
v -26.65093466 81.85161581 4.35343499
v -24.51907249 81.87560769 0.88846997
v -21.56134258 81.60365312 3.02440809
v -36.39378241 9.59819437 4.35343499
v -36.50248926 1.07144141 3.02440809
v -36.69272784 0.32755016 -9.77222604
v -36.58553001 11.72588211 -84.37812566
v -36.28658775 22.38832064 -88.03294804
v -36.29262385 33.05075916 -87.98548529
v -36.00122988 28.78738427 -90.77643478
v -35.76117130 30.91507201 -92.61809115
v -35.75060178 28.78738427 -92.61809115
v -36.51154975 5.33481948 -84.37812566
v -36.58402099 0.32755016 -82.25168008
v -28.78279684 81.82761757 4.35343499
v -26.65093466 81.93160356 -3.37391056
v -32.03947219 81.07573009 -92.61809115
v -32.19196295 81.21970679 -65.19266543
v -32.30972712 81.28370208 -26.82174814
v -32.33237518 81.28370208 -22.55936761
v -32.30972712 81.30769396 -3.37391056
v -32.25839492 81.27569631 -1.23797243
v -31.76468383 81.29169514 4.35343499
v -30.91314682 81.65164323 -1.23797243
v -36.37717362 10.93399757 4.35343499
v -36.38774314 11.72588211 3.02440809
v -36.41340924 9.59819437 3.02440809
v -36.68517955 1.07144141 -9.77222604
v -36.71235467 1.07144141 -11.89867161
v -36.82559177 0.32755016 -20.43292363
v -36.62780490 5.33481948 -82.25168008
v -36.67611906 11.72588211 -82.25168008
v -36.73952980 20.26063290 -80.11574196
v -36.53117658 24.52400779 -84.37812566
v -36.29111482 35.17845008 -87.96649383
v -35.76117130 33.05075916 -92.61809115
v -36.63082294 0.32755016 -80.86569153
v -30.91314682 81.51566595 4.35343499
v -32.41994617 80.17985956 -92.61809115
v -32.89704847 79.94789570 -46.00720520
v -33.05708753 79.94789570 -24.69530415
v -33.11294998 79.94789570 -16.16105214
v -33.12201047 79.94789570 -14.03460656
v -33.14314633 79.94789570 4.35343499
v -32.34143567 81.28370208 -5.50984551
v -32.57998523 80.69978318 4.35343499
v -32.24329515 81.14771844 4.35343499
v -36.32282337 15.19737406 4.35343499
v -36.31225386 15.99725641 4.35343499
v -36.41643046 11.72588211 0.88846997
v -36.65951027 3.19913232 -9.77222604
v -36.68668857 3.19913232 -11.89867161
v -36.79388640 3.19913232 -20.43292363
v -36.81804348 1.07144141 -20.43292363
v -36.81804348 3.19913232 -22.55936761
v -36.83917934 3.19913232 -24.69530415
v -36.83917934 1.07144141 -22.55936761
v -36.85880617 1.07144141 -24.69530415
v -36.86333641 0.32755016 -24.69530415
v -36.66253149 1.07144141 -80.11574196
v -36.77878664 11.72588211 -77.97980383
v -36.83012202 20.26063290 -77.97980383
v -36.35905899 35.17845008 -86.51405743
v -36.84370958 30.91507201 -75.85335825
v -36.33791996 37.31413406 -86.51405743
v -36.31678092 39.44182497 -86.51405743
v -36.24582189 40.68164160 -87.59626532
v -35.60565931 56.49532455 -92.61809115
v -36.65347100 0.32755016 -80.11574196
v -32.50751399 79.96389452 -92.61809115
v -33.29865832 77.81220537 -86.51405743
v -33.79538745 77.81220537 -18.29698709
v -33.39226858 79.14801175 4.35343499
v -36.29413605 17.33306121 4.35343499
v -36.76519908 5.33481948 -20.43292363
v -36.78935616 5.33481948 -22.55936761
v -36.85427910 3.19913232 -26.82174814
v -36.87541495 1.07144141 -26.82174814
v -36.79841347 20.26063290 -46.00720520
v -36.86937568 20.26063290 -54.53196625
v -36.86937568 0.32755016 -25.43576277
v -36.69121564 0.32755016 -77.97980383
v -36.93429863 5.33481948 -67.31911100
v -36.78029566 5.33481948 -75.85335825
v -36.88447227 22.38832064 -75.85335825
v -36.87994520 24.52400779 -75.85335825
v -36.56439416 39.44182497 -73.71742013
v -36.77123835 33.05075916 -75.85335825
v -36.25186116 47.16869399 -83.55222298
v -36.31980215 43.70519987 -84.37812566
v -36.36962533 41.56951272 -84.37812566
v -36.92070789 24.52400779 -73.71742013
v -36.90410228 22.38832064 -65.19266543
v -36.05407428 28.78738427 4.35343499
v -36.01632964 30.12319065 4.35343499
v -35.95442475 32.25087522 4.35343499
v -35.89101400 34.38656555 4.35343499
v -36.28205751 41.45753049 -86.62797439
v -36.23525237 42.09743574 -87.41589416
v -35.72946275 56.49532455 -90.77643478
v -35.55583613 58.62301547 -92.61809115
v -33.17787292 77.81220537 -92.61809115
v -33.27903148 77.81220537 -88.64050301
v -33.94636919 73.65281647 -92.61809115
v -34.29815903 71.57311566 -92.61809115
v -34.01582238 75.68452080 -16.16105214
v -33.76821232 77.81220537 4.35343499
v -34.62276738 69.58140838 -92.61809115
v -34.66655130 69.28545558 -92.61809115
v -34.93227916 67.44572441 -92.61809115
v -34.97304502 67.14976525 -92.61809115
v -35.20102825 65.02208069 -92.61809115
v -36.28205751 18.12494574 4.35343499
v -36.73198151 7.46250722 -20.43292363
v -36.75613858 7.46250722 -22.55936761
v -36.89202374 0.32755016 -28.95768309
v -36.88447227 0.32755016 -27.57170089
v -36.87994520 0.32755016 -26.82174814
v -36.94486497 7.46250722 -48.13365077
v -36.96298595 5.33481948 -48.13365077
v -36.26695774 19.04481133 4.35343499
v -36.20052578 22.38832064 4.35343499
v -36.15523285 24.52400779 4.35343499
v -36.12503650 25.85981258 4.35343499
v -36.10691869 26.65169712 4.35343499
v -36.97355229 5.33481948 -50.26958572
v -36.82407957 0.32755016 -69.45504278
v -36.90410228 3.19913232 -67.31911100
v -36.95543448 5.33481948 -65.19266543
v -36.96449497 7.46250722 -65.19266543
v -36.48739267 41.56951272 -73.71742013
v -35.86685693 35.17845008 4.35343499
v -35.79589471 37.31413406 4.35343499
v -35.74909276 38.64994044 4.35343499
v -36.25487921 47.15269517 -72.44535488
v -35.70228762 58.62301547 -88.64050301
v -35.78683740 56.49532455 -88.64050301
v -35.66001274 58.62301547 -90.77643478
v -36.26243067 43.70519987 -85.87802481
v -36.98110058 5.33481948 -58.79434360
v -36.97657351 7.46250722 -58.79434360
v -36.97808254 7.46250722 -56.66790438
v -35.46222586 60.75869944 -92.61809115
v -33.54022910 75.97247420 -92.61809115
v -33.59609155 75.68452080 -92.61809115
v -34.01733140 73.54883047 4.35343499
v -35.38522438 62.88639036 -90.77643478
v -35.54526661 60.75869944 -88.64050301
v -36.09484015 50.09626568 -73.71742013
v -35.34597072 62.88639036 -92.61809115
v -35.54073637 60.75869944 -90.77643478
v -36.93882887 0.32755016 -39.61838227
v -36.98110058 3.19913232 -50.26958572
v -36.84521860 0.32755016 -68.06906058
v -36.85578812 0.32755016 -67.31911100
v -36.95090741 0.32755016 -56.66790438
v -36.96147375 0.32755016 -55.28191582
v -36.96600400 0.32755016 -54.53196625
v -35.72040543 39.44182497 4.35343499
v -35.63887370 41.56951272 4.35343499
v -35.55281491 43.70519987 4.35343499
v -35.46222586 45.83288761 4.35343499
v -35.35955828 47.96857476 4.35343499
v -35.29463534 49.30438114 4.35343499
v -34.74355278 60.75869944 3.02440809
v -34.63484592 62.88639036 3.02440809
v -34.09584190 72.19703162 4.35343499
v -36.97053424 1.07144141 -54.53196625
v -36.97053424 0.32755016 -53.14598087
v -36.97657351 1.07144141 -52.39602812
v -36.98412181 3.19913232 -52.39602812
v -36.98110058 5.33481948 -56.66790438
v -36.94184692 0.32755016 -40.35883930
v -35.14969286 52.23194965 4.35343499
v -34.72694399 60.75869944 4.35343499
v -34.61521909 62.88639036 4.35343499
v -36.96902204 0.32755016 -52.39602812
f 1 2 11
f 1 11 20
f 1 20 37
f 1 37 59
f 1 59 83
f 1 83 112
f 1 112 134
f 1 134 171
f 1 171 170
f 1 170 169
f 1 169 205
f 1 205 226
f 1 226 230
f 1 230 222
f 1 222 211
f 1 211 210
f 1 210 209
f 1 209 208
f 1 208 207
f 1 207 180
f 1 180 135
f 1 135 122
f 1 122 90
f 1 90 67
f 1 67 41
f 1 41 24
f 1 24 23
f 1 23 15
f 1 15 14
f 1 14 12
f 1 12 3
f 1 3 4
f 1 4 5
f 1 5 17
f 1 17 28
f 1 28 43
f 1 43 65
f 1 65 64
f 1 64 89
f 1 89 121
f 1 121 154
f 1 154 196
f 1 196 203
f 1 203 165
f 1 165 164
f 1 164 163
f 1 163 162
f 1 162 161
f 1 161 158
f 1 158 157
f 1 157 198
f 1 198 197
f 1 197 155
f 1 155 123
f 1 123 92
f 1 92 70
f 1 70 49
f 1 49 47
f 1 47 30
f 1 30 18
f 1 18 6
f 1 6 2
f 2 6 7
f 2 7 8
f 2 8 9
f 2 9 10
f 2 10 11
f 3 12 4
f 4 13 5
f 4 12 14
f 4 14 15
f 4 15 16
f 4 16 13
f 5 13 17
f 6 18 29
f 6 29 46
f 6 46 56
f 6 56 35
f 6 35 19
f 6 19 10
f 6 10 9
f 6 9 8
f 6 8 7
f 10 19 34
f 10 34 54
f 10 54 68
f 10 68 91
f 10 91 76
f 10 76 100
f 10 100 99
f 10 99 97
f 10 97 126
f 10 126 160
f 10 160 199
f 10 199 220
f 10 220 229
f 10 229 228
f 10 228 227
f 10 227 217
f 10 217 216
f 10 216 215
f 10 215 214
f 10 214 213
f 10 213 212
f 10 212 187
f 10 187 186
f 10 186 185
f 10 185 150
f 10 150 149
f 10 149 148
f 10 148 147
f 10 147 178
f 10 178 177
f 10 177 176
f 10 176 175
f 10 175 174
f 10 174 166
f 10 166 127
f 10 127 102
f 10 102 101
f 10 101 78
f 10 78 57
f 10 57 36
f 10 36 20
f 10 20 11
f 13 21 17
f 13 16 22
f 13 22 21
f 15 23 16
f 16 23 24
f 16 24 25
f 16 25 26
f 16 26 22
f 17 21 27
f 17 27 28
f 18 30 31
f 18 31 32
f 18 32 33
f 18 33 29
f 19 35 34
f 20 36 58
f 20 58 37
f 21 22 27
f 22 26 25
f 22 25 38
f 22 38 39
f 22 39 40
f 22 40 27
f 24 41 42
f 24 42 25
f 25 42 38
f 27 40 43
f 27 43 28
f 29 33 44
f 29 44 45
f 29 45 46
f 30 47 48
f 30 48 31
f 31 48 49
f 31 49 32
f 32 49 50
f 32 50 51
f 32 51 52
f 32 52 53
f 32 53 44
f 32 44 33
f 34 35 55
f 34 55 54
f 35 56 55
f 36 57 80
f 36 80 58
f 37 58 81
f 37 81 59
f 38 42 60
f 38 60 61
f 38 61 39
f 39 61 62
f 39 62 63
f 39 63 40
f 40 63 64
f 40 64 65
f 40 65 43
f 41 66 42
f 41 67 66
f 42 66 60
f 44 53 68
f 44 68 69
f 44 69 45
f 45 69 55
f 45 55 46
f 46 55 56
f 47 49 48
f 49 70 71
f 49 71 50
f 50 71 72
f 50 72 51
f 51 72 52
f 52 72 73
f 52 73 74
f 52 74 75
f 52 75 76
f 52 76 77
f 52 77 68
f 52 68 53
f 54 69 68
f 54 55 69
f 57 78 79
f 57 79 80
f 58 80 81
f 59 81 82
f 59 82 83
f 60 66 67
f 60 67 84
f 60 84 85
f 60 85 86
f 60 86 87
f 60 87 88
f 60 88 62
f 60 62 61
f 62 88 63
f 63 89 64
f 63 88 89
f 67 90 84
f 68 77 91
f 70 92 93
f 70 93 71
f 71 93 94
f 71 94 95
f 71 95 96
f 71 96 73
f 71 73 72
f 73 96 97
f 73 97 98
f 73 98 74
f 74 98 97
f 74 97 99
f 74 99 100
f 74 100 75
f 75 100 76
f 76 91 77
f 78 101 79
f 79 101 102
f 79 102 103
f 79 103 80
f 80 103 81
f 81 104 105
f 81 105 82
f 81 103 104
f 82 105 106
f 82 106 107
f 82 107 83
f 83 107 108
f 83 108 109
f 83 109 110
f 83 110 111
f 83 111 112
f 84 90 113
f 84 113 85
f 85 113 114
f 85 114 115
f 85 115 86
f 86 115 87
f 87 116 88
f 87 115 117
f 87 117 116
f 88 116 118
f 88 118 119
f 88 119 120
f 88 120 121
f 88 121 89
f 90 122 113
f 92 123 93
f 93 123 124
f 93 124 94
f 94 125 95
f 94 124 125
f 95 125 96
f 96 125 97
f 97 125 126
f 102 127 103
f 103 105 104
f 103 127 128
f 103 128 106
f 103 106 105
f 106 128 129
f 106 129 108
f 106 108 107
f 108 129 109
f 109 130 131
f 109 131 111
f 109 111 110
f 109 129 132
f 109 132 133
f 109 133 130
f 111 134 112
f 111 131 134
f 113 122 135
f 113 135 136
f 113 136 137
f 113 137 114
f 114 137 138
f 114 138 115
f 115 138 139
f 115 139 117
f 116 117 118
f 117 140 141
f 117 141 142
f 117 142 143
f 117 143 144
f 117 144 119
f 117 119 118
f 117 139 145
f 117 145 146
f 117 146 133
f 117 133 132
f 117 132 147
f 117 147 148
f 117 148 149
f 117 149 150
f 117 150 140
f 119 151 152
f 119 152 120
f 119 144 151
f 120 152 121
f 121 153 154
f 121 152 153
f 123 155 156
f 123 156 124
f 124 156 157
f 124 157 158
f 124 158 125
f 125 159 160
f 125 160 126
f 125 158 161
f 125 161 162
f 125 162 163
f 125 163 164
f 125 164 165
f 125 165 159
f 127 166 128
f 128 167 168
f 128 168 129
f 128 166 167
f 129 168 132
f 130 133 131
f 131 169 170
f 131 170 171
f 131 171 134
f 131 133 172
f 131 172 173
f 131 173 169
f 132 168 174
f 132 174 175
f 132 175 176
f 132 176 177
f 132 177 178
f 132 178 147
f 133 146 179
f 133 179 173
f 133 173 172
f 135 180 181
f 135 181 136
f 136 181 182
f 136 182 183
f 136 183 145
f 136 145 138
f 136 138 137
f 138 145 139
f 140 184 142
f 140 142 141
f 140 150 185
f 140 185 186
f 140 186 187
f 140 187 184
f 142 184 188
f 142 188 189
f 142 189 190
f 142 190 191
f 142 191 153
f 142 153 143
f 143 153 192
f 143 192 144
f 144 192 151
f 145 183 193
f 145 193 194
f 145 194 195
f 145 195 179
f 145 179 146
f 151 192 152
f 152 192 153
f 153 191 154
f 154 191 196
f 155 197 156
f 156 197 198
f 156 198 157
f 159 165 160
f 160 165 200
f 160 200 201
f 160 201 189
f 160 189 202
f 160 202 199
f 165 203 204
f 165 204 200
f 166 174 168
f 166 168 167
f 169 173 179
f 169 179 206
f 169 206 205
f 179 195 206
f 180 207 181
f 181 207 208
f 181 208 209
f 181 209 182
f 182 193 183
f 182 209 210
f 182 210 211
f 182 211 193
f 184 187 212
f 184 212 213
f 184 213 188
f 188 202 189
f 188 213 214
f 188 214 215
f 188 215 216
f 188 216 217
f 188 217 218
f 188 218 219
f 188 219 220
f 188 220 199
f 188 199 202
f 189 201 200
f 189 200 204
f 189 204 191
f 189 191 190
f 191 204 203
f 191 203 196
f 193 211 221
f 193 221 222
f 193 222 223
f 193 223 224
f 193 224 225
f 193 225 195
f 193 195 194
f 195 225 224
f 195 224 206
f 205 206 226
f 206 224 223
f 206 223 226
f 211 222 221
f 217 227 218
f 218 227 228
f 218 228 219
f 219 228 229
f 219 229 220
f 222 230 223
f 223 230 226

