# https://github.com/mikedh/trimesh
v 19.37542242 -68.33959985 -89.39897936
v 24.24981828 0.20987177 -89.39897936
v 33.07282585 -68.33959985 -89.39897936
v 17.61331699 -68.33959985 -71.33677880
v 36.84668633 0.20987177 -89.39897936
v 16.74162578 0.20987177 4.35374950
v 33.30375405 -67.15192554 -89.39897936
v 30.72196787 -68.33959985 -29.90752582
v 17.54882452 -68.33959985 -69.45530328
v 36.84252778 -0.32021790 -89.39897936
v 36.89453666 0.20987177 -88.64638661
v 17.54050265 -68.33959985 -69.20749308
v 16.71874105 -1.07174003 4.35374950
v 29.19078588 0.20987177 4.35374950
v 33.44938273 -66.40040658 -89.39897936
v 30.63250980 -68.33959985 -27.77824328
v 33.71151435 -64.95775500 -89.39897936
v 33.81137356 -64.39411737 -89.39897936
v 34.42301084 -60.87135835 -89.39897936
v 36.88413552 -1.07174003 -88.64638661
v 36.43684834 -30.16634872 -89.39897936
v 36.93198585 0.20987177 -86.50792603
v 15.83456783 -68.33959985 -5.10871220
v 15.74927149 -68.33959985 -0.71247655
v 15.68061887 -68.33959985 4.35374950
v 28.66652263 -68.33959985 4.35374950
v 29.65471679 0.20987177 0.89366418
v 29.87732153 -68.33959985 -10.82657577
v 34.78084312 -58.62350471 -89.39897936
v 36.45348889 -30.91786768 -88.64638661
v 36.89869839 -5.33259883 -84.37864667
v 36.77179430 -11.72723705 -86.50792603
v 36.27457593 -37.30579790 -89.39897936
v 36.93198585 0.20987177 -85.65437805
v 31.95980847 0.20987177 -17.39798414
v 31.71223972 0.20987177 -15.30541376
v 31.56037162 0.20987177 -14.02967920
v 31.29824000 0.20987177 -11.90039349
v 30.76149475 0.20987177 -7.64182841
v 30.48896199 0.20987177 -5.50336465
v 30.21434836 0.20987177 -3.37408211
v 29.96261788 0.20987177 -1.42835715
v 29.90644727 0.20987177 -0.99699255
v 28.68108550 -68.33959985 4.20690407
v 32.43206284 -26.65030246 -24.69445275
v 32.21361982 -26.65030246 -22.56516862
v 32.05758682 -24.52322786 -20.80300283
v 31.95564992 -22.38944526 -19.58233650
v 31.96813193 -20.25566106 -19.46302360
v 29.86275867 -68.33959985 -10.54205977
v 35.07210048 -56.49643011 -89.39897936
v 35.32382779 -54.36264591 -89.39897936
v 35.54227081 -52.22886172 -89.39897936
v 36.28081852 -37.30579790 -88.64638661
v 36.24545019 -38.53372977 -89.39897936
v 36.62408476 -22.38944526 -84.37864667
v 36.58663557 -24.52322786 -84.37864667
v 36.49925836 -28.78408666 -86.50792603
v 36.45556976 -30.91786768 -86.50792603
v 36.89661752 -3.19881463 -82.24935460
v 36.88621638 -5.33259883 -82.24935460
v 36.91742298 0.20987177 -83.52509233
v 32.06382941 -3.19881463 -18.63700813
v 32.24482642 -5.33259883 -20.42670804
v 32.26770956 -3.19881463 -20.42670804
v 32.08047314 0.20987177 -18.46262700
v 28.87664537 -68.33959985 2.06844032
v 33.00625410 -28.78408666 -31.09147999
v 32.80029308 -28.78408666 -28.95301941
v 32.84814342 -26.65030246 -28.95301941
v 32.67755073 -24.52322786 -26.82373687
v 32.46534712 -24.52322786 -24.69445275
v 32.24690410 -24.52322786 -22.56516862
v 32.07007200 -22.38944526 -20.64697777
v 32.69211360 -7.46638143 -24.69445275
v 32.45910771 -7.46638143 -22.56516862
v 32.48407172 -5.33259883 -22.56516862
v 29.83363293 -68.33959985 -10.01891479
v 35.67541748 -50.09508070 -88.64638661
v 35.71494436 -50.09508070 -89.39897936
v 36.21840532 -39.59391227 -88.64638661
v 36.16015385 -40.71448430 -89.39897936
v 36.14766867 -41.57336628 -88.64638661
v 36.63864763 -20.25566106 -82.24935460
v 36.51174037 -26.65030246 -82.24935460
v 36.54086610 -26.65030246 -84.37864667
v 36.49093808 -28.78408666 -84.37864667
v 36.24336933 -38.41295073 -87.54503478
v 36.90077925 0.20987177 -82.24935460
v 36.88205465 0.20987177 -81.38663175
v 36.84876719 -1.07174003 -80.11090038
v 36.83836605 -3.19881463 -80.11090038
v 36.81964146 -5.33259883 -80.11090038
v 36.79259658 -7.46638143 -80.11090038
v 36.26417161 -29.98517698 -72.39224362
v 36.67401278 -15.99480544 -80.11090038
v 32.50695804 -3.19881463 -22.56516862
v 32.28851502 -1.07174003 -20.42670804
v 32.29891616 0.20987177 -20.42670804
v 29.24487562 -68.33959985 -2.19012794
v 33.13523905 -30.91786768 -33.22076571
v 32.94592176 -30.91786768 -31.09147999
v 33.19557138 -28.78408666 -33.22076571
v 33.05202357 -26.65030246 -31.09147999
v 32.88559261 -24.52322786 -28.95301941
v 33.09155044 -24.52322786 -31.09147999
v 32.91887689 -22.38944526 -28.95301941
v 33.34744265 -7.46638143 -31.09147999
v 33.13107732 -7.46638143 -28.95301941
v 32.88559261 -9.60016404 -26.82373687
v 32.91471834 -7.46638143 -26.82373687
v 32.71707760 -5.33259883 -24.69445275
v 29.80658806 -68.33959985 -9.54166318
v 35.82520789 -47.96800610 -89.39897936
v 36.04365091 -43.70044089 -88.64638661
v 36.12270466 -41.57336628 -89.39897936
v 36.02492631 -43.70044089 -89.39897936
v 36.85084806 0.20987177 -80.11090038
v 36.76347085 -1.07174003 -77.98161466
v 36.75515057 -3.19881463 -77.98161466
v 36.03116572 -13.86102125 -65.18755699
v 35.71702522 -20.25566106 -60.92898555
v 35.67541748 -22.38944526 -60.92898555
v 35.51938766 -22.38944526 -58.79970619
v 29.59438445 -68.33959985 -6.45787106
v 29.68176166 -68.33959985 -7.64182841
v 29.72961199 -68.33959985 -8.32099368
v 32.53400291 0.20987177 -22.56516862
v 32.44038311 0.20987177 -21.70244259
v 32.73788306 -3.19881463 -24.69445275
v 29.34681570 -68.33959985 -3.37408211
v 29.42587263 -68.33959985 -4.31941048
v 33.05826298 -33.05165187 -33.22076571
v 33.23925999 -26.65030246 -33.22076571
v 34.37100196 -15.99480544 -43.86718476
v 33.27878686 -24.52322786 -33.22076571
v 33.31831692 -22.38944526 -33.22076571
v 33.84881958 -13.86102125 -37.48851200
v 33.65534057 -13.86102125 -35.35004825
v 33.69070889 -11.72723705 -35.35004825
v 33.52219707 -9.60016404 -33.22076571
v 33.55340049 -7.46638143 -33.22076571
v 33.36824493 -5.33259883 -31.09147999
v 33.15604451 -5.33259883 -28.95301941
v 32.93968235 -5.33259883 -26.82373687
v 36.81548291 0.20987177 -79.25734603
v 36.75515057 0.20987177 -77.98161466
v 36.13518984 0.20987177 -66.49082565
v 36.06445319 0.20987177 -65.18755699
v 36.06237550 -1.07174003 -65.18755699
v 35.92090537 -11.72723705 -63.05827127
v 36.03740831 -11.72723705 -65.18755699
v 35.90426164 -13.86102125 -63.05827127
v 35.73783068 -18.12187846 -60.92898555
v 35.55891454 -20.25566106 -58.79970619
v 34.55407665 -15.99480544 -46.00564534
v 29.51949243 -68.33959985 -5.50336465
v 32.67130814 0.20987177 -23.84090317
v 32.76284707 0.20987177 -24.69445275
v 32.95840694 -3.19881463 -26.82373687
v 32.98753268 0.20987177 -26.82373687
v 32.89807461 0.20987177 -25.97018730
v 34.41052883 -13.86102125 -43.86718476
v 34.11095120 -14.93462294 -40.68243740
v 33.88210704 -11.72723705 -37.48851200
v 33.71983463 -9.60016404 -35.35004825
v 33.74479864 -7.46638143 -35.35004825
v 34.10262774 0.20987177 -38.64493206
v 33.99860998 0.20987177 -37.48851200
v 33.56796336 -5.33259883 -33.22076571
v 33.19349052 0.20987177 -28.95301941
v 33.11235590 0.20987177 -28.09947143
v 36.01660286 0.20987177 -64.33400265
v 35.93962997 -1.07174003 -63.05827127
v 35.80648329 -1.07174003 -60.92898555
v 35.80232156 -3.19881463 -60.92898555
v 35.66085461 -5.33259883 -58.79970619
v 35.78775870 -9.60016404 -60.92898555
v 35.64213002 -9.60016404 -58.79970619
v 35.49234279 -9.60016404 -56.66123926
v 35.47361819 -11.72723705 -56.66123926
v 35.31134578 -11.72723705 -54.53195989
v 35.29054350 -13.86102125 -54.53195989
v 35.12202850 -13.86102125 -52.40267418
v 34.94727408 -13.86102125 -50.26421360
v 34.77044198 -13.86102125 -48.13492788
v 34.59152584 -13.86102125 -46.00564534
v 34.44173543 -11.72723705 -43.86718476
v 33.91123277 -9.60016404 -37.48851200
v 34.06934346 -7.46638143 -39.03040648
v 34.36684023 0.20987177 -41.74707709
v 34.52703178 -3.19881463 -43.86718476
v 35.93962997 0.20987177 -63.05827127
v 35.80856416 0.20987177 -60.92898555
v 35.66501634 -3.19881463 -58.79970619
v 35.65253434 -7.46638143 -58.79970619
v 35.52146852 -3.19881463 -56.66123926
v 35.51522593 -5.33259883 -56.66123926
v 35.50482479 -7.46638143 -56.66123926
v 35.34879497 -7.46638143 -54.53195989
v 35.33007038 -9.60016404 -54.53195989
v 35.18652256 -7.46638143 -52.40267418
v 35.02008842 -7.46638143 -50.26421360
v 35.14491482 -11.72723705 -52.40267418
v 34.99720528 -9.60016404 -50.26421360
v 34.97432213 -11.72723705 -50.26421360
v 34.79956772 -11.72723705 -48.13492788
v 34.62273244 -11.72723705 -46.00564534
v 34.46878031 -9.60016404 -43.86718476
v 34.48958576 -7.46638143 -43.86718476
v 34.53951378 -1.07174003 -43.86718476
v 34.54575637 0.20987177 -43.86718476
v 34.68930419 -5.33259883 -46.00564534
v 34.86822033 -5.33259883 -48.13492788
v 34.70594792 -3.19881463 -46.00564534
v 35.66917807 0.20987177 -58.79970619
v 35.52354939 -1.07174003 -56.66123926
v 35.37375898 -1.07174003 -54.53195989
v 35.36959725 -3.19881463 -54.53195989
v 35.36127698 -5.33259883 -54.53195989
v 35.20316629 -5.33259883 -52.40267418
v 35.03881302 -5.33259883 -50.26421360
v 34.84949574 -7.46638143 -48.13492788
v 34.82453173 -9.60016404 -48.13492788
v 34.64977731 -9.60016404 -46.00564534
v 34.67057959 -7.46638143 -46.00564534
v 34.88278320 -3.19881463 -48.13492788
v 34.72259165 0.20987177 -46.00564534
v 35.61092659 0.20987177 -57.93697699
v 35.52354939 0.20987177 -56.66123926
v 35.31134578 0.20987177 -53.67841191
v 35.21980685 0.20987177 -52.40267418
v 35.21772916 -1.07174003 -52.40267418
v 35.46321705 0.20987177 -55.80769127
v 35.21356743 -3.19881463 -52.40267418
v 35.05129502 -3.19881463 -50.26421360
v 34.89110348 -1.07174003 -48.13492788
v 34.89526520 0.20987177 -48.13492788
v 35.06169934 0.20987177 -50.26421360
v 35.05961530 -1.07174003 -50.26421360
f 1 2 5
f 1 5 10
f 1 10 21
f 1 21 33
f 1 33 55
f 1 55 82
f 1 82 116
f 1 116 117
f 1 117 114
f 1 114 80
f 1 80 53
f 1 53 52
f 1 52 51
f 1 51 29
f 1 29 19
f 1 19 18
f 1 18 17
f 1 17 15
f 1 15 7
f 1 7 3
f 1 3 8
f 1 8 16
f 1 16 28
f 1 28 50
f 1 50 78
f 1 78 113
f 1 113 127
f 1 127 126
f 1 126 125
f 1 125 157
f 1 157 132
f 1 132 131
f 1 131 100
f 1 100 67
f 1 67 44
f 1 44 26
f 1 26 25
f 1 25 24
f 1 24 23
f 1 23 12
f 1 12 9
f 1 9 4
f 1 4 2
f 2 4 6
f 2 6 14
f 2 14 27
f 2 27 43
f 2 43 42
f 2 42 41
f 2 41 40
f 2 40 39
f 2 39 38
f 2 38 37
f 2 37 36
f 2 36 35
f 2 35 66
f 2 66 99
f 2 99 129
f 2 129 128
f 2 128 158
f 2 158 159
f 2 159 162
f 2 162 161
f 2 161 172
f 2 172 171
f 2 171 169
f 2 169 168
f 2 168 191
f 2 191 212
f 2 212 228
f 2 228 238
f 2 238 239
f 2 239 232
f 2 232 231
f 2 231 234
f 2 234 230
f 2 230 229
f 2 229 216
f 2 216 194
f 2 194 193
f 2 193 173
f 2 173 149
f 2 149 148
f 2 148 147
f 2 147 146
f 2 146 118
f 2 118 90
f 2 90 89
f 2 89 62
f 2 62 34
f 2 34 22
f 2 22 11
f 2 11 5
f 3 7 8
f 4 9 6
f 5 11 10
f 6 9 12
f 6 12 13
f 6 13 25
f 6 25 26
f 6 26 14
f 7 15 8
f 8 15 17
f 8 17 18
f 8 18 19
f 8 19 16
f 10 11 20
f 10 20 21
f 11 22 20
f 12 23 13
f 13 24 25
f 13 23 24
f 14 26 27
f 16 19 29
f 16 29 28
f 20 30 21
f 20 22 31
f 20 31 32
f 20 32 30
f 21 30 33
f 22 34 31
f 26 35 36
f 26 36 37
f 26 37 38
f 26 38 39
f 26 39 40
f 26 40 41
f 26 41 42
f 26 42 43
f 26 43 27
f 26 44 45
f 26 45 46
f 26 46 47
f 26 47 48
f 26 48 49
f 26 49 35
f 28 29 51
f 28 51 52
f 28 52 53
f 28 53 50
f 30 54 55
f 30 55 33
f 30 32 31
f 30 31 56
f 30 56 57
f 30 57 58
f 30 58 59
f 30 59 54
f 31 34 60
f 31 60 61
f 31 61 56
f 34 62 60
f 35 49 63
f 35 63 64
f 35 64 65
f 35 65 66
f 44 67 68
f 44 68 69
f 44 69 70
f 44 70 45
f 45 70 105
f 45 105 71
f 45 71 72
f 45 72 73
f 45 73 46
f 46 73 47
f 47 73 74
f 47 74 48
f 48 74 75
f 48 75 49
f 49 75 76
f 49 76 77
f 49 77 64
f 49 64 63
f 50 53 79
f 50 79 78
f 53 80 79
f 54 81 55
f 54 59 81
f 55 81 83
f 55 83 82
f 56 61 84
f 56 84 57
f 57 84 85
f 57 85 86
f 57 86 59
f 57 59 58
f 59 86 87
f 59 87 88
f 59 88 81
f 60 62 89
f 60 89 90
f 60 90 91
f 60 91 61
f 61 91 92
f 61 92 93
f 61 93 94
f 61 94 95
f 61 95 96
f 61 96 84
f 64 77 97
f 64 97 65
f 65 97 98
f 65 98 66
f 66 98 99
f 67 100 101
f 67 101 102
f 67 102 68
f 68 102 101
f 68 101 103
f 68 103 104
f 68 104 70
f 68 70 69
f 70 104 106
f 70 106 105
f 71 105 107
f 71 107 108
f 71 108 72
f 72 108 109
f 72 109 110
f 72 110 111
f 72 111 73
f 73 111 75
f 73 75 74
f 75 111 145
f 75 145 112
f 75 112 77
f 75 77 76
f 77 112 97
f 78 79 113
f 79 80 95
f 79 95 113
f 80 114 115
f 80 115 95
f 81 88 83
f 82 83 116
f 83 115 114
f 83 114 117
f 83 117 116
f 83 88 95
f 83 95 115
f 84 96 95
f 84 95 85
f 85 87 86
f 85 95 87
f 87 95 88
f 90 118 91
f 91 118 119
f 91 119 120
f 91 120 92
f 92 120 93
f 93 120 95
f 93 95 94
f 95 120 121
f 95 121 122
f 95 122 123
f 95 123 124
f 95 124 125
f 95 125 126
f 95 126 127
f 95 127 113
f 97 128 129
f 97 129 98
f 97 112 130
f 97 130 128
f 98 129 99
f 100 131 101
f 101 131 132
f 101 132 133
f 101 133 124
f 101 124 103
f 103 134 104
f 103 124 135
f 103 135 134
f 104 134 136
f 104 136 106
f 105 106 107
f 106 136 137
f 106 137 138
f 106 138 139
f 106 139 140
f 106 140 141
f 106 141 107
f 107 141 108
f 108 141 142
f 108 142 143
f 108 143 144
f 108 144 109
f 109 144 145
f 109 145 111
f 109 111 110
f 112 145 130
f 118 146 119
f 119 146 147
f 119 147 148
f 119 148 149
f 119 149 150
f 119 150 151
f 119 151 152
f 119 152 121
f 119 121 120
f 121 152 151
f 121 151 153
f 121 153 154
f 121 154 122
f 122 154 155
f 122 155 124
f 122 124 123
f 124 155 156
f 124 156 135
f 124 133 132
f 124 132 157
f 124 157 125
f 128 130 158
f 130 159 158
f 130 145 160
f 130 160 161
f 130 161 162
f 130 162 159
f 134 135 136
f 135 156 163
f 135 163 137
f 135 137 136
f 137 163 164
f 137 164 138
f 138 165 140
f 138 140 139
f 138 164 163
f 138 163 165
f 140 166 142
f 140 142 141
f 140 165 189
f 140 189 166
f 142 166 167
f 142 167 168
f 142 168 169
f 142 169 170
f 142 170 143
f 143 170 169
f 143 169 171
f 143 171 172
f 143 172 161
f 143 161 144
f 144 161 160
f 144 160 145
f 149 173 150
f 150 173 151
f 151 173 174
f 151 174 175
f 151 175 176
f 151 176 177
f 151 177 178
f 151 178 154
f 151 154 153
f 154 178 179
f 154 179 180
f 154 180 181
f 154 181 155
f 155 181 182
f 155 182 183
f 155 183 184
f 155 184 185
f 155 185 186
f 155 186 187
f 155 187 156
f 156 187 163
f 163 187 208
f 163 208 188
f 163 188 165
f 165 188 189
f 166 189 167
f 167 189 190
f 167 190 168
f 168 190 192
f 168 192 191
f 173 193 174
f 174 193 194
f 174 194 175
f 175 194 195
f 175 195 177
f 175 177 176
f 177 196 178
f 177 195 197
f 177 197 198
f 177 198 196
f 178 196 179
f 179 196 198
f 179 198 199
f 179 199 180
f 180 199 220
f 180 220 200
f 180 200 202
f 180 202 201
f 180 201 182
f 180 182 181
f 182 201 202
f 182 202 203
f 182 203 183
f 183 203 204
f 183 204 184
f 184 204 203
f 184 203 205
f 184 205 206
f 184 206 185
f 185 206 207
f 185 207 208
f 185 208 186
f 186 208 187
f 188 208 225
f 188 225 209
f 188 209 189
f 189 209 190
f 190 209 210
f 190 210 192
f 191 192 211
f 191 211 212
f 192 210 226
f 192 226 213
f 192 213 214
f 192 214 215
f 192 215 211
f 194 216 195
f 195 216 197
f 197 216 217
f 197 217 218
f 197 218 219
f 197 219 198
f 198 219 220
f 198 220 199
f 200 220 221
f 200 221 202
f 202 221 222
f 202 222 203
f 203 222 214
f 203 214 223
f 203 223 205
f 205 223 206
f 206 223 224
f 206 224 225
f 206 225 207
f 207 225 208
f 209 225 226
f 209 226 210
f 211 215 227
f 211 227 212
f 212 227 228
f 213 226 223
f 213 223 214
f 214 227 215
f 214 222 227
f 216 229 217
f 217 229 230
f 217 230 218
f 218 231 232
f 218 232 233
f 218 233 235
f 218 235 219
f 218 230 234
f 218 234 231
f 219 235 220
f 220 235 221
f 221 235 236
f 221 236 222
f 222 236 227
f 223 226 225
f 223 225 224
f 227 237 228
f 227 236 240
f 227 240 237
f 228 237 238
f 232 239 240
f 232 240 233
f 233 240 235
f 235 240 236
f 237 240 238
f 238 240 239

