# https://github.com/mikedh/trimesh
v 24.56981697 0.21621602 -83.71484167
v 20.40818677 65.01345225 -83.71484167
v 36.91796941 0.21621602 -83.71484167
v 16.74000715 0.21621602 4.36292754
v 20.34278888 65.01345225 -82.25779878
v 32.98027349 65.01345225 -83.71484167
v 36.97147460 4.66289752 -83.71484167
v 36.91598703 0.21621602 -83.52516857
v 29.19120840 0.21621602 4.36292754
v 17.49108135 65.01345225 4.36292754
v 19.48271874 65.01345225 -58.80717824
v 19.55604456 65.01345225 -60.93669904
v 33.34689305 62.88843628 -83.71484167
v 31.57720915 65.01345225 -35.33931671
v 36.97742174 5.33529283 -83.71484167
v 36.93580447 3.20392943 -82.24917669
v 36.90013434 0.21621602 -82.24917669
v 29.29029563 5.33529283 4.36292754
v 29.75203766 0.21621602 0.17285305
v 29.87490392 65.01345225 4.36292754
v 33.45787138 62.22238204 -83.71484167
v 31.29184174 65.01345225 -26.81260187
v 34.68852585 54.36298266 -83.71484167
v 34.00086557 58.87310032 -83.71484167
v 33.81458222 60.05295948 -83.71484167
v 33.69964231 60.75707287 -83.71484167
v 36.98534809 6.79426092 -83.71484167
v 36.95363954 5.33529283 -82.24917669
v 36.85059073 0.21621602 -80.11965589
v 36.88229928 0.21621602 -81.39564777
v 29.32596576 7.46665465 4.36292754
v 29.90661247 0.21621602 -0.99967702
v 29.96606481 65.01345225 3.02658744
v 29.87292472 62.88843628 4.36292754
v 31.39687293 35.17437095 -9.76779427
v 31.39687293 37.30573436 -9.76779427
v 31.62477356 35.17437095 -11.89731826
v 31.96959330 33.04301073 -15.19937231
v 32.07065973 33.04301073 -16.26844535
v 32.25892546 33.04301073 -18.29450911
v 32.23712563 35.17437095 -18.29450911
v 32.21334660 37.30573436 -18.29450911
v 32.39566520 37.30573436 -20.43265359
v 32.78210221 35.17437095 -24.69169997
v 33.19033904 39.43709776 -31.08889083
v 33.12493957 41.56846116 -31.08889083
v 31.21455434 65.01345225 -24.68307948
v 34.96993167 52.23161926 -83.71484167
v 36.97543936 13.86074327 -83.71484167
v 36.89616958 9.59801805 -80.11965589
v 36.89418720 7.46665465 -80.11965589
v 36.88824324 5.33529283 -80.11965589
v 36.81492060 0.21621602 -79.25749852
v 29.57170145 22.38619530 4.36292754
v 30.21576208 0.21621602 -3.37060342
v 30.36241054 65.01345225 -3.36198133
v 31.54946536 56.49434607 -16.16498672
v 31.68422272 56.49434607 -18.29450911
v 29.84914251 51.97153991 4.36292754
v 30.00768208 52.23161926 3.02658744
v 31.16104914 35.17437095 -7.63827347
v 31.62279118 33.04301073 -11.89731826
v 31.97157568 30.91798840 -15.17350766
v 32.91884195 22.38619530 -24.69169997
v 32.27279576 30.91798840 -18.29450911
v 32.90496846 24.52390136 -24.69169997
v 33.11503084 22.38619530 -26.82122395
v 33.09719578 24.52390136 -26.82122395
v 32.44917039 33.04301073 -20.43265359
v 32.42539136 35.17437095 -20.43265359
v 32.81975472 33.04301073 -24.69169997
v 32.99018221 33.04301073 -26.82122395
v 33.69567755 37.30573436 -37.48608168
v 33.15466573 33.04301073 -28.95936684
v 34.41306399 24.52390136 -43.87465364
v 34.12769659 34.59712670 -42.60728384
v 34.10391438 36.01803563 -42.91765973
v 34.47053395 35.17437095 -48.13369843
v 30.63589002 65.01345225 -9.75917219
v 35.04127193 51.55922394 -83.71484167
v 36.94967795 15.99210667 -83.71484167
v 36.93976923 13.86074327 -82.24917669
v 36.89220800 11.72938145 -80.11965589
v 36.81888218 9.59801805 -77.98150664
v 36.81095584 7.46665465 -77.98150664
v 36.75348588 0.21621602 -77.98150664
v 29.63908013 26.65526477 4.36292754
v 30.48924155 0.21621602 -5.50874948
v 29.65493282 27.67019881 4.36292754
v 30.46149777 65.01345225 -5.50874948
v 31.56928280 58.62570947 -18.29450911
v 31.67431399 58.62570947 -20.43265359
v 34.59934735 35.17437095 -50.27184449
v 29.83328983 45.83118797 4.36292754
v 30.00173494 50.10025585 3.02658744
v 30.91927504 35.17437095 -5.50874948
v 31.14717566 33.04301073 -7.63827347
v 31.81501849 24.52390136 -14.03546273
v 31.38696421 33.04301073 -9.76779427
v 31.61288245 30.91798840 -11.89731826
v 31.95571981 24.52390136 -15.31145303
v 32.07264211 24.52390136 -16.38052447
v 32.27477814 24.52390136 -18.29450911
v 32.70679718 20.25483189 -22.56217757
v 32.70877639 22.38619530 -22.56217757
v 32.92082433 20.25483189 -24.69169997
v 33.12493957 20.25483189 -26.82122395
v 33.31518768 20.25483189 -28.95936684
v 33.30131420 22.38619530 -28.95936684
v 32.84353692 30.91798840 -24.69169997
v 32.63545375 33.04301073 -22.56217757
v 33.27951437 24.52390136 -28.95936684
v 33.02387314 30.91798840 -26.82122395
v 33.19430063 30.91798840 -28.95936684
v 34.31992391 20.25483189 -41.73650757
v 34.82328321 18.12347008 -48.13369843
v 34.56367721 24.52390136 -46.00417444
v 33.74522116 26.65526477 -35.35656088
v 33.58668160 26.65526477 -33.21841481
v 33.78089129 24.52390136 -35.35656088
v 34.52205994 26.65526477 -46.00417444
v 36.08366067 13.86074327 -65.19574701
v 35.19386436 50.10025585 -83.71484167
v 36.92787813 17.45741901 -83.71484167
v 36.91004306 15.99210667 -82.24917669
v 36.87040817 13.86074327 -80.11965589
v 36.80501187 11.72938145 -77.98150664
v 36.27390878 9.59801805 -67.95464168
v 36.34723142 7.46665465 -69.45479498
v 36.45424499 5.33529283 -71.58431579
v 36.06582560 0.21621602 -65.19574701
v 30.76073865 0.21621602 -7.63827347
v 29.77779907 28.78662817 3.49215127
v 29.66880630 28.78662817 4.36292754
v 31.03025337 0.21621602 -9.76779427
v 30.45753301 15.99210667 -3.37060342
v 31.77141884 58.62570947 -22.56217757
v 35.60408357 45.83118797 -83.71484167
v 35.40987388 47.96889245 -83.71484167
v 36.27588798 34.56541180 -80.74902339
v 36.26598244 36.60162414 -82.92166096
v 36.22040041 38.02253308 -83.70621959
v 36.11735160 39.39903861 -83.71484167
v 36.00241168 40.90241010 -83.71484167
v 35.83198102 43.03377350 -83.71484167
v 35.65957115 45.16513373 -83.71484167
v 36.41064534 20.25483189 -73.72246503
v 36.47208006 22.38619530 -75.85198584
v 36.53153240 24.52390136 -77.98150664
v 36.45226261 26.65526477 -77.98150664
v 36.30759653 33.00494840 -80.06792339
v 29.82536348 43.69982457 4.36292754
v 29.85112489 43.69982457 4.13876612
v 29.98588225 45.83118797 3.02658744
v 31.57126518 24.52390136 -11.89731826
v 29.81545476 42.24085648 4.36292754
v 30.65372508 33.04301073 -3.37060342
v 31.58711787 26.65526477 -11.89731826
v 31.92599364 15.99210667 -15.57872009
v 31.94977585 22.38619530 -15.37180442
v 32.06669814 22.38619530 -16.43225378
v 32.26486942 22.38619530 -18.29450911
v 32.48087894 20.25483189 -20.43265359
v 32.67112388 13.86074327 -22.56217757
v 32.87920705 11.72938145 -24.69169997
v 32.91289481 18.12347008 -24.69169997
v 33.12295719 18.12347008 -26.82122395
v 33.32113164 18.12347008 -28.95936684
v 33.50146785 18.12347008 -31.08889083
v 33.66396900 20.25483189 -33.21841481
v 33.64613394 22.38619530 -33.21841481
v 33.45390662 24.52390136 -31.08889083
v 33.42418045 26.65526477 -31.08889083
v 34.17525782 20.25483189 -39.79665986
v 34.34965007 18.12347008 -41.73650757
v 34.69446981 15.99210667 -46.00417444
v 34.84904462 15.99210667 -48.13369843
v 35.93701539 13.86074327 -63.05760412
v 33.62037253 24.52390136 -33.21841481
v 34.09598804 20.25483189 -38.73620732
v 35.68137097 5.33529283 -58.79855616
v 36.26400006 11.72938145 -68.07535082
v 36.77132095 13.86074327 -77.98150664
v 36.45820975 18.12347008 -73.72246503
v 36.89022562 19.58878242 -83.71484167
v 36.87833452 20.25483189 -83.71484167
v 36.83671724 22.38619530 -83.71484167
v 36.78321205 22.38619530 -82.24917669
v 36.69205434 22.38619530 -80.11965589
v 36.73961240 24.52390136 -82.24917669
v 35.93899459 0.21621602 -63.05760412
v 36.01628199 0.21621602 -64.33359600
v 36.33732270 5.33529283 -69.45479498
v 35.81811071 5.33529283 -60.92808332
v 35.81018119 1.06622495 -60.92808332
v 35.80820199 0.21621602 -60.92808332
v 29.74807608 35.17437095 4.36292754
v 30.75082993 18.12347008 -5.50874948
v 31.19077214 0.21621602 -11.04378615
v 31.29778571 0.21621602 -11.89731826
v 31.30967681 1.06622495 -11.89731826
v 36.50973257 30.91798840 -82.24917669
v 36.41857486 33.04301073 -82.24917669
v 36.30363495 36.64602754 -83.71484167
v 36.28381750 36.97588095 -83.71484167
v 36.22040041 38.02253308 -83.71484167
v 36.58701997 22.38619530 -77.98150664
v 36.64448993 24.52390136 -80.11965589
v 36.56522015 26.65526477 -80.11965589
v 29.78969018 39.43709776 4.36292754
v 29.76194639 36.51916158 4.36292754
v 30.14243943 33.04301073 0.88844138
v 31.74565743 15.99210667 -14.03546273
v 31.91410572 13.86074327 -15.66493615
v 32.02508087 11.72938145 -16.82884573
v 32.03498959 13.86074327 -16.72538710
v 32.20938184 13.86074327 -18.29450911
v 32.22523453 15.99210667 -18.29450911
v 32.65725357 11.72938145 -22.56217757
v 32.46898784 18.12347008 -20.43265359
v 32.86335119 9.59801805 -24.69169997
v 33.07539913 9.59801805 -26.82122395
v 33.08926944 11.72938145 -26.82122395
v 33.10116054 13.86074327 -26.82122395
v 33.30527896 13.86074327 -28.95936684
v 33.49155913 11.72938145 -31.08889083
v 33.67586010 9.59801805 -33.21841481
v 33.68180724 11.72938145 -33.21841481
v 33.68576883 13.86074327 -33.21841481
v 33.86809060 13.86074327 -35.35656088
v 33.67586010 18.12347008 -33.21841481
v 33.86016108 15.99210667 -35.35656088
v 34.10787914 18.58018945 -38.58964146
v 34.71230488 13.86074327 -46.00417444
v 34.88867951 11.72938145 -48.13369843
v 35.04523669 11.72938145 -50.27184449
v 34.36946752 15.99210667 -41.73650757
v 35.06307176 9.59801805 -50.27184449
v 35.67146225 7.46665465 -58.79855616
v 35.53076093 5.33529283 -56.66041327
v 35.52877855 3.20392943 -56.66041327
v 35.61200991 0.21621602 -57.93640515
v 35.67740621 3.20392943 -58.79855616
v 36.79113839 24.52390136 -83.71484167
v 36.75348588 25.98286945 -83.71484167
v 36.73366843 26.65526477 -83.71484167
v 36.68808958 28.11423286 -83.71484167
v 36.67223689 26.65526477 -82.24917669
v 35.75271124 0.21621602 -60.07454804
v 31.16104914 9.59801805 -9.76779427
v 31.18681055 11.72938145 -9.76779427
v 31.45434289 0.21621602 -13.17330855
v 31.57126518 1.06622495 -14.03546273
v 36.59296711 28.78662817 -82.24917669
v 36.66232500 28.78662817 -83.71484167
v 36.57711125 30.91798840 -83.71484167
v 36.40668376 34.50831989 -83.71484167
v 31.41669038 9.59801805 -11.89731826
v 31.59702659 3.20392943 -14.03546273
v 31.82492721 1.06622495 -16.16498672
v 31.95968457 0.21621602 -17.39786819
v 32.08056845 0.21621602 -18.46694122
v 32.30054273 0.21621602 -20.43265359
v 32.63743613 9.59801805 -22.56217757
v 32.76426714 0.21621602 -24.69169997
v 32.98622062 0.21621602 -26.82122395
v 33.22799155 3.20392943 -28.95936684
v 33.24780900 5.33529283 -28.95936684
v 33.45787138 5.33529283 -31.08889083
v 33.29338785 11.72938145 -28.95936684
v 33.48165359 9.59801805 -31.08889083
v 33.66793376 7.46665465 -33.21841481
v 33.85421711 7.46665465 -35.35656088
v 33.86610822 11.72938145 -35.35656088
v 34.03455333 11.72938145 -37.34813790
v 34.12174945 11.72938145 -38.41720935
v 34.11977025 13.86074327 -38.44307559
v 34.02860936 15.99210667 -37.44297445
v 34.11184073 17.15928210 -38.54653422
v 34.20300161 15.99210667 -39.61560567
v 34.72617836 11.72938145 -46.00417444
v 34.38135544 13.86074327 -41.73650757
v 34.89858823 9.59801805 -48.13369843
v 35.06505414 7.46665465 -50.27184449
v 35.21962894 0.21621602 -52.40136530
v 35.37222137 0.21621602 -54.53089246
v 35.46337907 0.21621602 -55.80687799
v 35.66947987 0.21621602 -58.79855616
v 31.55937408 0.21621602 -14.03546273
v 31.71196650 0.21621602 -15.31145303
v 32.53438414 0.21621602 -22.56217757
v 33.11106926 0.21621602 -28.09721266
v 33.43408917 3.20392943 -31.08889083
v 33.99888319 0.21621602 -37.48608168
v 33.65604583 5.33529283 -33.21841481
v 33.84629077 5.33529283 -35.35656088
v 34.02464460 5.33529283 -37.42573346
v 34.11977025 7.46665465 -38.45169768
v 34.12174945 9.59801805 -38.42583143
v 34.21885430 9.59801805 -39.61560567
v 34.39126417 9.59801805 -41.73650757
v 34.21885430 11.72938145 -39.61560567
v 34.38928496 11.72938145 -41.73650757
v 34.21291033 13.86074327 -39.61560567
v 34.73212232 9.59801805 -46.00417444
v 34.90057061 7.46665465 -48.13369843
v 35.06307176 1.06622495 -50.27184449
v 35.06108938 0.21621602 -50.27184449
v 33.19430063 0.21621602 -28.95936684
v 34.05833553 0.21621602 -38.14994387
v 34.00680954 1.06622495 -37.48608168
v 34.10589676 1.06622495 -38.59826354
v 34.10985835 2.39832390 -38.56377839
v 34.18516655 3.14684070 -39.40868841
v 34.11580549 5.33529283 -38.49480491
v 34.37342910 1.06622495 -41.73650757
v 34.55178611 1.06622495 -43.87465364
v 34.38532020 5.33529283 -41.73650757
v 34.38928496 7.46665465 -41.73650757
v 34.73013994 3.20392943 -46.00417444
v 34.56169483 7.46665465 -43.87465364
v 34.73212232 7.46665465 -46.00417444
v 34.89858823 1.06622495 -48.13369843
v 34.89462347 0.21621602 -48.13369843
v 34.10193200 0.21621602 -38.64999285
v 34.15742276 0.21621602 -39.28798879
v 34.19309289 0.21621602 -39.70182013
v 34.36748514 0.21621602 -41.73650757
v 34.19705765 1.06622495 -39.66733498
v 34.54584215 0.21621602 -43.87465364
v 34.72221360 0.21621602 -46.00417444
v 34.72617836 1.06622495 -46.00417444
f 1 2 6
f 1 6 13
f 1 13 21
f 1 21 26
f 1 26 25
f 1 25 24
f 1 24 23
f 1 23 48
f 1 48 80
f 1 80 123
f 1 123 139
f 1 139 138
f 1 138 146
f 1 146 145
f 1 145 144
f 1 144 143
f 1 143 206
f 1 206 205
f 1 205 204
f 1 204 257
f 1 257 256
f 1 256 255
f 1 255 247
f 1 247 246
f 1 246 245
f 1 245 244
f 1 244 187
f 1 187 186
f 1 186 185
f 1 185 124
f 1 124 81
f 1 81 49
f 1 49 27
f 1 27 15
f 1 15 7
f 1 7 3
f 1 3 8
f 1 8 17
f 1 17 30
f 1 30 29
f 1 29 53
f 1 53 86
f 1 86 131
f 1 131 192
f 1 192 191
f 1 191 196
f 1 196 249
f 1 249 288
f 1 288 242
f 1 242 287
f 1 287 286
f 1 286 285
f 1 285 308
f 1 308 324
f 1 324 331
f 1 331 330
f 1 330 328
f 1 328 327
f 1 327 326
f 1 326 325
f 1 325 310
f 1 310 294
f 1 294 309
f 1 309 292
f 1 292 266
f 1 266 265
f 1 265 291
f 1 291 263
f 1 263 262
f 1 262 261
f 1 261 290
f 1 290 289
f 1 289 252
f 1 252 200
f 1 200 199
f 1 199 135
f 1 135 132
f 1 132 88
f 1 88 55
f 1 55 32
f 1 32 19
f 1 19 9
f 1 9 4
f 1 4 2
f 2 5 12
f 2 12 11
f 2 11 10
f 2 10 20
f 2 20 33
f 2 33 56
f 2 56 90
f 2 90 79
f 2 79 47
f 2 47 22
f 2 22 14
f 2 14 6
f 2 4 5
f 3 7 8
f 4 9 18
f 4 18 31
f 4 31 54
f 4 54 87
f 4 87 89
f 4 89 134
f 4 134 197
f 4 197 211
f 4 211 210
f 4 210 156
f 4 156 152
f 4 152 94
f 4 94 59
f 4 59 34
f 4 34 20
f 4 20 10
f 4 10 11
f 4 11 12
f 4 12 5
f 6 14 13
f 7 15 16
f 7 16 17
f 7 17 8
f 9 19 18
f 13 14 21
f 14 22 23
f 14 23 24
f 14 24 25
f 14 25 26
f 14 26 21
f 15 27 28
f 15 28 16
f 16 28 29
f 16 29 30
f 16 30 17
f 18 19 32
f 18 32 31
f 20 34 35
f 20 35 36
f 20 36 37
f 20 37 38
f 20 38 39
f 20 39 40
f 20 40 41
f 20 41 42
f 20 42 43
f 20 43 44
f 20 44 45
f 20 45 46
f 20 46 33
f 22 47 48
f 22 48 23
f 27 49 28
f 28 49 50
f 28 50 51
f 28 51 52
f 28 52 29
f 29 52 53
f 31 32 54
f 32 55 54
f 33 46 57
f 33 57 58
f 33 58 56
f 34 59 60
f 34 60 35
f 35 60 61
f 35 61 99
f 35 99 62
f 35 62 63
f 35 63 37
f 35 37 36
f 37 63 38
f 38 63 64
f 38 64 65
f 38 65 39
f 39 65 40
f 40 65 66
f 40 66 67
f 40 67 68
f 40 68 69
f 40 69 41
f 41 69 70
f 41 70 42
f 42 70 71
f 42 71 43
f 43 71 44
f 44 71 72
f 44 72 45
f 45 73 46
f 45 72 74
f 45 74 75
f 45 75 76
f 45 76 73
f 46 73 77
f 46 77 78
f 46 78 58
f 46 58 57
f 47 79 48
f 48 79 80
f 49 81 82
f 49 82 83
f 49 83 50
f 50 83 84
f 50 84 51
f 51 84 52
f 52 84 85
f 52 85 53
f 53 85 86
f 54 55 87
f 55 88 89
f 55 89 87
f 56 58 91
f 56 91 92
f 56 92 90
f 58 78 93
f 58 93 91
f 59 94 60
f 60 94 95
f 60 95 61
f 61 96 97
f 61 97 98
f 61 98 99
f 61 95 96
f 62 100 63
f 62 99 100
f 63 100 101
f 63 101 102
f 63 102 103
f 63 103 104
f 63 104 105
f 63 105 64
f 64 105 106
f 64 106 107
f 64 107 67
f 64 67 66
f 64 66 65
f 67 107 108
f 67 108 109
f 67 109 68
f 68 71 110
f 68 110 111
f 68 111 69
f 68 109 112
f 68 112 71
f 69 111 70
f 70 111 71
f 71 111 110
f 71 112 113
f 71 113 72
f 72 113 114
f 72 114 74
f 73 76 77
f 74 114 75
f 75 115 116
f 75 116 117
f 75 117 76
f 75 114 118
f 75 118 119
f 75 119 120
f 75 120 115
f 76 117 121
f 76 121 122
f 76 122 78
f 76 78 77
f 78 122 93
f 79 90 123
f 79 123 80
f 81 124 125
f 81 125 82
f 82 125 126
f 82 126 83
f 83 126 127
f 83 127 84
f 84 127 128
f 84 128 85
f 85 128 129
f 85 129 130
f 85 130 86
f 86 130 131
f 88 132 89
f 89 133 134
f 89 132 135
f 89 135 136
f 89 136 133
f 90 92 137
f 90 137 138
f 90 138 139
f 90 139 123
f 91 93 140
f 91 140 141
f 91 141 142
f 91 142 92
f 92 142 143
f 92 143 144
f 92 144 145
f 92 145 146
f 92 146 137
f 93 122 147
f 93 147 148
f 93 148 149
f 93 149 150
f 93 150 151
f 93 151 140
f 94 152 153
f 94 153 95
f 95 153 154
f 95 154 96
f 96 155 97
f 96 154 153
f 96 153 152
f 96 152 156
f 96 156 157
f 96 157 155
f 97 155 158
f 97 158 98
f 98 159 160
f 98 160 101
f 98 101 100
f 98 100 99
f 98 158 155
f 98 155 159
f 101 160 161
f 101 161 102
f 102 161 162
f 102 162 104
f 102 104 103
f 104 162 163
f 104 163 220
f 104 220 164
f 104 164 165
f 104 165 166
f 104 166 106
f 104 106 105
f 106 166 167
f 106 167 107
f 107 167 168
f 107 168 108
f 108 168 169
f 108 169 231
f 108 231 170
f 108 170 109
f 109 170 171
f 109 171 172
f 109 172 112
f 112 172 113
f 113 172 173
f 113 173 114
f 114 173 179
f 114 179 119
f 114 119 118
f 115 120 174
f 115 174 175
f 115 175 116
f 116 175 176
f 116 176 177
f 116 177 178
f 116 178 117
f 117 178 122
f 117 122 121
f 119 179 120
f 120 179 180
f 120 180 174
f 122 178 181
f 122 181 128
f 122 128 182
f 122 182 127
f 122 127 183
f 122 183 184
f 122 184 147
f 124 185 125
f 125 185 186
f 125 186 187
f 125 187 188
f 125 188 126
f 126 189 183
f 126 183 127
f 126 188 190
f 126 190 189
f 127 182 128
f 128 191 192
f 128 192 131
f 128 131 193
f 128 193 129
f 128 181 194
f 128 194 195
f 128 195 196
f 128 196 191
f 129 193 130
f 130 193 131
f 133 197 134
f 133 136 198
f 133 198 197
f 135 199 136
f 136 199 200
f 136 200 201
f 136 201 198
f 137 146 138
f 140 151 202
f 140 202 203
f 140 203 204
f 140 204 141
f 141 204 205
f 141 205 142
f 142 205 206
f 142 206 143
f 147 184 207
f 147 207 148
f 148 207 149
f 149 207 208
f 149 208 209
f 149 209 150
f 150 209 202
f 150 202 151
f 155 157 159
f 156 210 157
f 157 210 211
f 157 211 197
f 157 197 212
f 157 212 198
f 157 198 213
f 157 213 159
f 159 213 214
f 159 214 215
f 159 215 216
f 159 216 217
f 159 217 218
f 159 218 161
f 159 161 160
f 161 218 219
f 161 219 164
f 161 164 220
f 161 220 163
f 161 163 162
f 164 219 165
f 165 219 221
f 165 221 222
f 165 222 223
f 165 223 224
f 165 224 166
f 166 224 167
f 167 224 225
f 167 225 168
f 168 225 226
f 168 226 227
f 168 227 228
f 168 228 229
f 168 229 230
f 168 230 169
f 169 230 232
f 169 232 231
f 170 231 233
f 170 233 171
f 171 233 179
f 171 179 172
f 172 179 173
f 174 180 175
f 175 180 233
f 175 233 176
f 176 234 235
f 176 235 236
f 176 236 177
f 176 233 237
f 176 237 234
f 177 236 178
f 178 236 238
f 178 238 239
f 178 239 181
f 179 233 180
f 181 239 238
f 181 238 240
f 181 240 241
f 181 241 242
f 181 242 243
f 181 243 195
f 181 195 194
f 183 189 207
f 183 207 184
f 187 244 190
f 187 190 188
f 189 208 207
f 189 190 208
f 190 244 245
f 190 245 246
f 190 246 247
f 190 247 248
f 190 248 208
f 195 243 196
f 196 243 249
f 197 198 212
f 198 201 250
f 198 250 251
f 198 251 213
f 200 252 201
f 201 252 253
f 201 253 250
f 202 254 255
f 202 255 256
f 202 256 203
f 202 209 254
f 203 256 257
f 203 257 204
f 208 248 254
f 208 254 209
f 213 251 258
f 213 258 259
f 213 259 260
f 213 260 214
f 214 260 261
f 214 261 215
f 215 261 262
f 215 262 263
f 215 263 264
f 215 264 217
f 215 217 216
f 217 264 219
f 217 219 218
f 219 264 221
f 221 264 265
f 221 265 266
f 221 266 267
f 221 267 222
f 222 267 268
f 222 268 269
f 222 269 223
f 223 269 270
f 223 270 225
f 223 225 224
f 225 270 269
f 225 269 271
f 225 271 272
f 225 272 226
f 226 272 227
f 227 272 296
f 227 296 273
f 227 273 274
f 227 274 228
f 228 274 229
f 229 274 230
f 230 274 275
f 230 275 276
f 230 276 277
f 230 277 232
f 231 232 233
f 232 277 278
f 232 278 279
f 232 279 233
f 233 279 280
f 233 280 237
f 234 237 281
f 234 281 235
f 235 238 236
f 235 281 238
f 237 280 282
f 237 282 281
f 238 281 283
f 238 283 306
f 238 306 284
f 238 284 240
f 240 285 241
f 240 284 285
f 241 285 286
f 241 286 287
f 241 287 242
f 242 288 243
f 243 288 249
f 247 255 254
f 247 254 248
f 250 253 251
f 251 253 259
f 251 259 258
f 252 289 253
f 253 289 290
f 253 290 260
f 253 260 259
f 260 290 261
f 263 291 264
f 264 291 265
f 266 292 267
f 267 292 293
f 267 293 269
f 267 269 268
f 269 293 294
f 269 294 295
f 269 295 272
f 269 272 271
f 272 295 296
f 273 296 297
f 273 297 298
f 273 298 274
f 274 298 299
f 274 299 275
f 275 299 300
f 275 300 276
f 276 300 301
f 276 301 302
f 276 302 277
f 277 279 278
f 277 302 303
f 277 303 304
f 277 304 280
f 277 280 279
f 280 304 282
f 281 282 303
f 281 303 305
f 281 305 283
f 282 304 303
f 283 305 306
f 284 306 323
f 284 323 307
f 284 307 285
f 285 307 308
f 292 309 293
f 293 309 294
f 294 310 311
f 294 311 295
f 295 311 312
f 295 312 296
f 296 312 313
f 296 313 297
f 297 313 314
f 297 314 315
f 297 315 298
f 298 315 314
f 298 314 316
f 298 316 317
f 298 317 318
f 298 318 299
f 299 318 319
f 299 319 300
f 300 319 301
f 301 303 302
f 301 319 320
f 301 320 321
f 301 321 322
f 301 322 305
f 301 305 303
f 305 322 306
f 306 322 323
f 307 323 308
f 308 323 324
f 310 312 311
f 310 325 312
f 312 325 326
f 312 326 327
f 312 327 328
f 312 328 329
f 312 329 313
f 313 329 316
f 313 316 314
f 316 329 328
f 316 328 330
f 316 330 317
f 317 330 331
f 317 331 332
f 317 332 318
f 318 332 319
f 319 332 320
f 320 322 321
f 320 332 323
f 320 323 322
f 323 332 331
f 323 331 324

