# https://github.com/mikedh/trimesh
v 15.99015606 -82.36435329 43.38106011
v 14.18530080 -82.33642842 43.38106011
v 17.96290683 -82.35690666 43.38106011
v 14.18530080 -81.65882300 98.96036311
v 14.18530080 -69.22731848 43.38106011
v 18.12240423 -82.35504500 43.38106011
v 15.99015606 -81.57132507 98.96036311
v 20.25465399 -81.21391214 101.09374701
v 18.12240423 -81.31443532 101.09374701
v 14.18530080 -81.61041989 99.32520361
v 20.09515500 -82.31781819 43.38106011
v 20.25465399 -82.31409488 43.38106011
v 22.38690215 -82.23590524 43.38106011
v 24.51747134 -82.06650071 47.80242178
v 15.48983387 -63.34664561 43.38106011
v 14.18530080 -69.01137249 60.59654617
v 22.38690215 -81.18598727 98.96036311
v 22.34492907 -81.08546409 101.09374701
v 23.02489809 -80.98307289 101.79869910
v 21.60619710 -81.03333766 102.19445076
v 14.18530080 -81.33863688 101.05046505
v 20.25465399 -81.07057082 102.26247435
v 18.12240423 -81.10035100 102.30575631
v 24.35629495 -82.07022402 43.38106011
v 24.51747134 -82.08139397 45.66903788
v 26.47343224 -81.52851329 47.80242178
v 25.68601123 -81.06498585 92.13971811
v 27.87534337 -63.34664561 43.38106011
v 14.18530080 -68.91457263 68.68485324
v 14.18530080 -68.91084931 69.12389956
v 14.18530080 -68.89781771 70.82442573
v 14.18530080 -68.89781771 72.96399187
v 14.18530080 -68.91457263 75.11592882
v 14.18530080 -68.94249750 77.27404800
v 14.18530080 -69.19753195 92.56639362
v 14.18530080 -69.23662677 94.69978388
v 14.18530080 -69.27013026 96.50542701
v 14.18530080 -69.27757689 96.83316778
v 18.26175696 -63.34664561 96.83316778
v 24.00203826 -81.09848934 96.83316778
v 23.76363007 -81.06870916 98.96036311
v 23.56551597 -81.04078429 100.38261904
v 24.51747134 -80.31291411 103.22713092
v 24.37140425 -80.79691979 101.09374701
v 24.51747134 -79.39702281 104.92147485
v 16.59121429 -81.07243248 102.25629212
v 14.18530080 -80.98121123 102.07696298
v 18.12240423 -80.32408406 103.36936032
v 15.92467716 -80.46370206 103.07254341
v 24.51747134 -82.05347545 43.38106011
v 26.51540532 -81.50803505 45.66903788
v 26.40123898 -81.51548169 43.38106011
v 27.74942412 -81.05195424 50.74587157
v 27.74270817 -81.04450761 52.06300737
v 26.64804211 -80.23286281 96.83316778
v 26.64804211 -80.09138951 98.96036311
v 25.06816314 -80.93095282 96.83316778
v 28.04323887 -77.65646782 43.38106011
v 27.88877526 -63.34664561 43.53565079
v 14.18530080 -69.77089087 98.64499950
v 14.18530080 -69.89561560 99.09641028
v 18.62944396 -63.34664561 98.48421705
v 24.82975495 -80.84531655 98.96036311
v 26.85287374 -79.44914924 103.23331950
v 26.27867612 -79.27229808 104.77924545
v 26.64804211 -79.83821671 101.09374701
v 24.51747134 -78.08462376 105.98507887
v 15.99015606 -79.28532968 104.61846935
v 14.18530080 -80.29243587 103.20240200
v 14.18530080 -80.89930463 102.23773907
v 14.18530080 -80.11000609 103.44356614
v 26.55066405 -81.46894023 43.38106011
v 27.62014690 -80.78202653 43.53565079
v 27.97607940 -79.72838524 45.66903788
v 28.02812640 -79.68929042 47.80242178
v 27.97272143 -80.06904961 49.99764387
v 28.03484235 -79.94804819 52.06300737
v 28.74335256 -77.81655771 64.85713175
v 28.75174909 -77.81655771 66.99051566
v 28.19937989 -79.63530234 62.72374785
v 28.22456310 -79.55525740 64.85713175
v 28.11878852 -79.38771452 81.90565631
v 28.03820033 -79.40819276 88.30580803
v 28.01469451 -79.25182619 94.69978388
v 27.96768605 -79.24996453 96.83316778
v 27.92907095 -79.19411479 98.96036311
v 27.70073509 -78.85345042 103.94444747
v 28.04491627 -77.81655771 43.38106011
v 28.06842209 -63.34664561 45.66903788
v 29.67516326 -63.34664561 64.95607284
v 14.18530080 -70.35914305 99.66530884
v 23.18943404 -63.34664561 104.78543403
v 26.69672955 -77.88171574 105.39143868
v 25.69440617 -76.90998106 106.47359574
v 24.51747134 -77.01981253 106.54779520
v 23.32206924 -76.94906952 106.53543074
v 14.18530080 -79.23507127 104.55663435
v 27.61678892 -80.76527160 43.38106011
v 27.86526945 -79.78050531 43.38106011
v 27.88877526 -79.71721529 43.53565079
v 28.18930596 -77.81655771 45.66903788
v 28.27493271 -77.81655771 47.80242178
v 28.58049878 -77.81655771 58.46316226
v 30.95115514 -67.15726271 96.83316778
v 30.55156898 -69.29060850 96.83316778
v 30.07810739 -71.59335881 99.10877474
v 29.23024604 -75.68507358 101.09374701
v 28.71481137 -77.81655771 81.90565631
v 28.58049878 -77.81655771 94.69978388
v 28.49654944 -77.81655771 98.96036311
v 28.43443169 -77.81655771 101.09374701
v 28.10200183 -78.01202545 103.23331950
v 28.75678446 -75.68507358 103.22713092
v 27.93746429 -77.43121355 104.58136962
v 28.05499019 -77.81655771 43.53565079
v 27.88373989 -79.70046037 43.38106011
v 29.82123035 -63.34664561 66.99051566
v 14.18530080 -70.75938047 100.05488462
v 14.18530080 -71.08701323 100.28368431
v 14.18530080 -71.31785248 100.43208959
v 14.18530080 -77.26181537 104.00010024
v 14.18530080 -78.16281340 104.47624630
v 14.18530080 -78.32662660 104.55663435
v 24.51747134 -63.34664561 105.79337892
v 27.99286927 -75.68507358 104.66793990
v 26.50197501 -75.52125403 105.86758474
v 25.69440617 -76.12253781 106.47359574
v 24.51747134 -76.05738614 106.54779520
v 23.32206924 -76.45390024 106.53543074
v 30.23592898 -63.34664561 73.38448515
v 30.49616400 -63.34664561 77.64507073
v 30.62376065 -63.34664561 79.77227241
v 31.26511774 -63.34664561 92.56639362
v 31.28694298 -63.34664561 93.01781075
v 31.33395143 -63.34664561 94.69978388
v 31.33563201 -63.34664561 95.15119466
v 31.13751791 -65.02577224 96.83316778
v 30.72449986 -67.15726271 98.96036311
v 30.52470519 -69.29060850 98.96036311
v 29.68523718 -73.35439840 100.90824200
v 28.88102631 -73.55172144 103.22713092
v 29.73392621 -71.42209898 101.52042888
v 29.93036291 -63.34664561 68.66630655
v 26.85455113 -63.34664561 105.17500981
v 27.91899702 -69.29060850 104.57518739
v 28.89445820 -71.42209898 103.22713092
v 26.64804211 -69.29060850 105.53984396
v 31.26175659 -63.34664561 96.83316778
v 30.79333673 -65.02577224 98.96036311
v 30.12511903 -69.29060850 100.71654205
v 29.99416123 -71.42209898 100.45064263
v 31.18788434 -63.34664561 97.28457857
v 29.67348586 -69.29060850 101.78632829
v 27.86526945 -67.15726271 104.50716380
v 27.73431483 -63.34664561 104.32783466
v 28.81218943 -69.29060850 103.22713092
v 30.81516197 -63.34664561 98.96036311
v 30.68084620 -63.34664561 99.30046834
v 30.16373413 -65.02577224 100.54340149
v 30.15197964 -63.34664561 100.51247764
v 28.31522521 -63.34664561 103.43120168
v 30.01095110 -63.34664561 100.74127732
f 1 2 5
f 1 5 15
f 1 15 28
f 1 28 58
f 1 58 88
f 1 88 116
f 1 116 99
f 1 99 98
f 1 98 72
f 1 72 52
f 1 52 50
f 1 50 24
f 1 24 13
f 1 13 12
f 1 12 11
f 1 11 6
f 1 6 3
f 1 3 4
f 1 4 2
f 2 4 10
f 2 10 21
f 2 21 47
f 2 47 70
f 2 70 69
f 2 69 71
f 2 71 97
f 2 97 123
f 2 123 122
f 2 122 121
f 2 121 120
f 2 120 119
f 2 119 118
f 2 118 91
f 2 91 61
f 2 61 60
f 2 60 38
f 2 38 37
f 2 37 36
f 2 36 35
f 2 35 34
f 2 34 33
f 2 33 32
f 2 32 31
f 2 31 30
f 2 30 29
f 2 29 16
f 2 16 5
f 3 6 4
f 4 7 8
f 4 8 9
f 4 9 10
f 4 6 11
f 4 11 12
f 4 12 13
f 4 13 14
f 4 14 7
f 5 16 15
f 7 17 8
f 7 14 17
f 8 17 18
f 8 18 19
f 8 19 20
f 8 20 9
f 9 21 10
f 9 20 22
f 9 22 23
f 9 23 21
f 13 24 25
f 13 25 14
f 14 25 26
f 14 26 27
f 14 27 17
f 15 16 29
f 15 29 30
f 15 30 31
f 15 31 32
f 15 32 33
f 15 33 34
f 15 34 35
f 15 35 36
f 15 36 37
f 15 37 38
f 15 38 39
f 15 39 62
f 15 62 92
f 15 92 124
f 15 124 144
f 15 144 155
f 15 155 161
f 15 161 162
f 15 162 160
f 15 160 158
f 15 158 157
f 15 157 152
f 15 152 148
f 15 148 136
f 15 136 135
f 15 135 134
f 15 134 133
f 15 133 132
f 15 132 131
f 15 131 130
f 15 130 143
f 15 143 117
f 15 117 90
f 15 90 89
f 15 89 59
f 15 59 28
f 17 27 40
f 17 40 41
f 17 41 42
f 17 42 18
f 18 42 19
f 19 43 20
f 19 42 44
f 19 44 43
f 20 43 45
f 20 45 22
f 21 23 46
f 21 46 47
f 22 45 23
f 23 45 48
f 23 48 49
f 23 49 46
f 24 50 25
f 25 51 26
f 25 50 52
f 25 52 51
f 26 51 53
f 26 53 54
f 26 54 27
f 27 55 56
f 27 56 57
f 27 57 42
f 27 42 41
f 27 41 40
f 27 54 55
f 28 59 58
f 38 60 39
f 39 60 61
f 39 61 62
f 42 57 63
f 42 63 44
f 43 44 64
f 43 64 65
f 43 65 45
f 44 63 56
f 44 56 66
f 44 66 64
f 45 65 67
f 45 67 68
f 45 68 49
f 45 49 48
f 46 49 69
f 46 69 70
f 46 70 47
f 49 68 71
f 49 71 69
f 51 52 72
f 51 72 53
f 53 72 73
f 53 73 74
f 53 74 75
f 53 75 76
f 53 76 77
f 53 77 78
f 53 78 79
f 53 79 80
f 53 80 81
f 53 81 54
f 54 81 82
f 54 82 83
f 54 83 84
f 54 84 85
f 54 85 55
f 55 85 86
f 55 86 56
f 56 63 57
f 56 86 87
f 56 87 66
f 58 59 89
f 58 89 90
f 58 90 88
f 61 91 62
f 62 91 92
f 64 87 65
f 64 66 87
f 65 93 94
f 65 94 67
f 65 87 93
f 67 94 95
f 67 95 96
f 67 96 97
f 67 97 68
f 68 97 71
f 72 98 73
f 73 98 99
f 73 99 100
f 73 100 74
f 74 101 102
f 74 102 103
f 74 103 78
f 74 78 75
f 74 100 101
f 75 77 76
f 75 78 77
f 78 103 104
f 78 104 105
f 78 105 79
f 79 81 80
f 79 105 106
f 79 106 107
f 79 107 108
f 79 108 81
f 81 108 82
f 82 108 109
f 82 109 83
f 83 109 84
f 84 109 110
f 84 110 85
f 85 110 86
f 86 110 111
f 86 111 87
f 87 112 113
f 87 113 114
f 87 114 93
f 87 111 112
f 88 115 116
f 88 90 117
f 88 117 115
f 91 118 92
f 92 118 119
f 92 119 120
f 92 120 121
f 92 121 122
f 92 122 123
f 92 123 124
f 93 114 94
f 94 114 125
f 94 125 126
f 94 126 127
f 94 127 128
f 94 128 95
f 95 128 129
f 95 129 96
f 96 129 123
f 96 123 97
f 99 116 100
f 100 116 101
f 101 116 115
f 101 115 130
f 101 130 131
f 101 131 132
f 101 132 133
f 101 133 134
f 101 134 102
f 102 134 104
f 102 104 103
f 104 134 135
f 104 135 136
f 104 136 137
f 104 137 138
f 104 138 139
f 104 139 105
f 105 139 106
f 106 140 107
f 106 139 140
f 107 140 113
f 107 113 112
f 107 112 111
f 107 111 110
f 107 110 109
f 107 109 108
f 113 141 114
f 113 140 142
f 113 142 141
f 114 141 125
f 115 117 143
f 115 143 130
f 123 129 124
f 124 129 128
f 124 128 127
f 124 127 144
f 125 145 126
f 125 141 146
f 125 146 145
f 126 147 127
f 126 145 147
f 127 147 144
f 136 148 137
f 137 148 138
f 138 149 150
f 138 150 151
f 138 151 139
f 138 148 152
f 138 152 149
f 139 151 140
f 140 151 142
f 141 142 153
f 141 153 146
f 142 151 150
f 142 150 153
f 144 147 145
f 144 145 154
f 144 154 155
f 145 146 156
f 145 156 154
f 146 153 156
f 149 152 157
f 149 157 150
f 150 157 158
f 150 158 153
f 153 158 159
f 153 159 160
f 153 160 156
f 154 156 161
f 154 161 155
f 156 160 162
f 156 162 161
f 158 160 159

