# https://github.com/mikedh/trimesh
v 33.71088850 65.01345861 -93.07511868
v 16.52090493 65.01345861 -93.07511868
v 33.19724560 67.15804423 -93.07511868
v 29.85855246 76.80626828 -12.48080510
v 29.27299746 77.81634168 4.35339051
v 29.77979416 76.10648816 -5.50868277
v 29.71130675 75.68467965 -1.24528881
v 30.16331478 71.42136194 -5.50868277
v 30.36192447 69.28969991 -7.63560805
v 31.29333488 65.01345861 -26.81609963
v -1.26832922 68.88082769 -58.79630056
v -1.26832922 68.88082769 -61.13306267
v -1.26832922 68.88567563 -67.32308847
v -1.26832922 68.89213743 -69.45954761
v -1.26832922 68.96486281 -93.07511868
v 17.48655746 65.01345861 4.35339051
v -1.26832922 68.92122504 -14.03546432
v 32.20762185 71.25328535 -93.07511868
v 32.21104336 71.26136736 -92.90343314
v 29.70788206 78.39329048 -35.35242139
v 29.42366469 77.81634168 -3.37221728
v 31.08787582 75.68467965 -92.90343314
v 28.95111170 78.46763608 4.35339051
v 29.49900148 75.68467965 4.35339051
v 29.81745938 74.14128886 -1.24528881
v 30.07770711 71.42136194 -3.37221728
v 30.28316617 69.28969991 -5.50868277
v 31.21457340 65.02638220 -24.68917275
v 31.21457340 65.01345861 -24.67963573
v -1.26832922 81.52209597 -93.07511868
v 29.87567273 65.01345861 4.35339051
v -1.26832922 69.00203244 4.35339051
v -1.26832922 68.92930705 -12.10882930
v 31.08445113 75.68467965 -93.07511868
v 28.41692067 79.54396672 4.35339051
v 29.76609541 78.69066018 -50.26952218
v 30.26604273 77.91007267 -93.07511868
v 29.90649175 78.94761982 -81.72514218
v 29.90649175 78.94761982 -80.98120329
v 29.62227756 73.55302397 4.35339051
v 29.85855246 72.69324928 0.03277440
v 29.98525005 71.42136194 -1.24528881
v 30.19413380 69.28969991 -3.37221728
v 30.37562005 67.15804423 -5.50868277
v 30.63586778 65.01345861 -9.75299631
v -1.26832922 81.34755759 4.35339051
v -1.06287174 81.51886190 -93.07511868
v 29.87567273 65.02638220 4.35339051
v 29.96470510 65.01345861 3.01810197
v 28.44431817 79.60538238 -5.50868277
v 28.44773969 79.65548195 -11.89899883
v 26.64656009 80.48939675 0.89117350
v 26.64656009 80.40051370 4.35339051
v 30.25919335 77.92785055 -93.07511868
v 29.76267072 78.78439117 -93.07511868
v 28.90659710 79.34195459 -93.07511868
v 28.88947684 79.35003660 -93.07511868
v 26.64656009 80.53464839 -11.89899883
v 28.56416638 79.62638798 -39.61581217
v 29.71130675 71.37449644 4.35339051
v 30.28659086 67.15804423 -3.37221728
v 30.08797799 69.28969991 -1.24528881
v 30.46123091 65.01345861 -5.48960554
v -1.06287174 81.34432351 4.35339051
v 1.06704300 81.47038254 -93.07511868
v 1.06704300 81.30553367 4.35339051
v 7.46363342 81.17948100 4.35339051
v 9.59697206 81.13260915 4.35339051
v 29.96470510 65.02638220 3.01810197
v 29.85855246 66.73138778 4.23893984
v 29.84827840 66.82350491 4.35339051
v 30.36192447 65.01345861 -3.36268025
v 26.64656009 80.51687050 -5.50868277
v 24.51664534 80.76736835 -1.24528881
v 25.31108251 80.55404013 4.35339051
v 26.64656009 80.10314400 -93.07511868
v 26.64656009 80.45061327 -39.61581217
v 29.78321885 69.28969991 4.35339051
v 29.84485689 68.15357383 4.06725748
v 29.82773344 69.28969991 3.64759655
v 30.36192447 65.02638220 -3.37221728
v 3.20038084 81.41704890 -93.07511868
v 13.68558539 81.03564408 4.35339051
v 14.35332338 81.01948642 4.35339051
v 14.75054276 81.00979054 4.35339051
v 29.91334112 67.32935489 3.21839541
v 29.82773344 67.90468984 4.35339051
v 15.25733946 80.99686060 4.35339051
v 15.99013859 80.97584864 4.35339051
v 16.78457735 80.94837489 4.35339051
v 18.12005333 80.90150939 4.35339051
v 24.51664534 80.63161345 4.35339051
v 18.12005333 80.77545036 -93.07511868
v 9.59697206 81.20372067 -93.07511868
v 7.62800020 81.27805992 -93.07511868
v 5.49466156 81.34917145 -93.07511868
v 3.36474762 81.41220096 -93.07511868
v 20.25339117 80.62515165 -93.07511868
v 18.28441931 80.76414063 -93.07511868
f 1 2 15
f 1 15 30
f 1 30 47
f 1 47 65
f 1 65 82
f 1 82 97
f 1 97 96
f 1 96 95
f 1 95 94
f 1 94 93
f 1 93 99
f 1 99 98
f 1 98 76
f 1 76 57
f 1 57 56
f 1 56 55
f 1 55 54
f 1 54 37
f 1 37 34
f 1 34 18
f 1 18 3
f 1 3 4
f 1 4 5
f 1 5 6
f 1 6 7
f 1 7 8
f 1 8 9
f 1 9 10
f 1 10 29
f 1 29 45
f 1 45 63
f 1 63 72
f 1 72 49
f 1 49 31
f 1 31 16
f 1 16 2
f 2 11 12
f 2 12 13
f 2 13 14
f 2 14 15
f 2 16 17
f 2 17 11
f 3 18 19
f 3 19 4
f 4 20 21
f 4 21 5
f 4 19 22
f 4 22 20
f 5 23 35
f 5 35 53
f 5 53 75
f 5 75 92
f 5 92 91
f 5 91 90
f 5 90 89
f 5 89 88
f 5 88 85
f 5 85 84
f 5 84 83
f 5 83 68
f 5 68 67
f 5 67 66
f 5 66 64
f 5 64 46
f 5 46 32
f 5 32 16
f 5 16 31
f 5 31 48
f 5 48 71
f 5 71 87
f 5 87 78
f 5 78 60
f 5 60 40
f 5 40 24
f 5 24 7
f 5 7 6
f 5 21 23
f 7 24 25
f 7 25 8
f 8 25 24
f 8 24 26
f 8 26 27
f 8 27 9
f 9 27 28
f 9 28 10
f 10 28 29
f 11 17 33
f 11 33 32
f 11 32 46
f 11 46 30
f 11 30 15
f 11 15 14
f 11 14 13
f 11 13 12
f 16 32 33
f 16 33 17
f 18 34 19
f 19 34 22
f 20 35 21
f 20 22 36
f 20 36 35
f 21 35 23
f 22 34 37
f 22 37 38
f 22 38 39
f 22 39 36
f 24 40 41
f 24 41 26
f 26 41 42
f 26 42 43
f 26 43 27
f 27 44 45
f 27 45 28
f 27 43 61
f 27 61 44
f 28 45 29
f 30 46 64
f 30 64 47
f 31 49 69
f 31 69 48
f 35 50 51
f 35 51 52
f 35 52 53
f 35 36 39
f 35 39 50
f 37 54 38
f 38 54 55
f 38 55 56
f 38 56 57
f 38 57 58
f 38 58 59
f 38 59 39
f 39 59 51
f 39 51 50
f 40 60 61
f 40 61 62
f 40 62 43
f 40 43 42
f 40 42 41
f 43 62 61
f 44 61 63
f 44 63 45
f 47 64 66
f 47 66 67
f 47 67 68
f 47 68 65
f 48 69 70
f 48 70 71
f 49 72 69
f 51 59 58
f 51 58 73
f 51 73 52
f 52 73 74
f 52 74 75
f 52 75 53
f 57 76 77
f 57 77 58
f 58 74 73
f 58 77 74
f 60 78 79
f 60 79 80
f 60 80 61
f 61 72 81
f 61 81 63
f 61 80 72
f 63 81 72
f 65 68 83
f 65 83 84
f 65 84 85
f 65 85 82
f 69 86 70
f 69 72 86
f 70 86 79
f 70 79 71
f 71 79 87
f 72 80 79
f 72 79 86
f 74 85 88
f 74 88 89
f 74 89 90
f 74 90 91
f 74 91 92
f 74 92 75
f 74 77 93
f 74 93 94
f 74 94 95
f 74 95 96
f 74 96 97
f 74 97 82
f 74 82 85
f 76 98 77
f 77 98 99
f 77 99 93
f 78 87 79

