# https://github.com/mikedh/trimesh
v -35.76208942 30.92478059 -92.61809115
v -35.75500495 33.34372569 -92.61809115
v -35.72668615 33.05441577 -92.91235385
v -35.71960803 30.92478059 -92.91235385
v -35.74792684 28.78710788 -92.61809115
v -35.59924834 56.48844976 -92.61809115
v -35.57801400 56.48844976 -92.91235385
v -35.31606029 30.92478059 -95.04651292
v -35.34437909 58.62611611 -95.04651292
v -35.34437909 56.48844976 -95.04651292
v -35.70545181 28.78710788 -92.91235385
v -35.70545181 22.39016323 -92.61809115
v -35.54969520 58.62611611 -92.61809115
v -35.53553262 58.62611611 -92.91235385
v -34.91250619 58.62611611 -97.17769841
v -34.14788573 73.54964376 -100.50823012
v -34.56559606 13.86358341 -97.17769841
v -35.02578141 3.20736682 -95.04651292
v -35.51429193 7.46664035 -92.91235385
v -35.66297042 22.39016323 -92.91235385
v -35.27357890 60.75575764 -95.04651292
v -34.13372315 74.73098970 -100.46661920
v -35.56385143 7.76398463 -92.61809115
v -35.45765432 60.75575764 -92.61809115
v -35.44349174 60.75575764 -92.91235385
v -35.19570060 62.88539281 -95.04651292
v -33.79389113 73.54964376 -101.57382287
v -34.17620454 13.86358341 -98.43351704
v -34.16204196 11.73394824 -98.39190612
v -34.44523637 3.20736682 -97.10635815
v -34.99038449 0.33034900 -95.04651292
v -35.53553262 5.33700200 -92.61809115
v -35.42225740 0.33034900 -92.91235385
v -32.85227337 75.67124140 -103.56976177
v -35.10365972 65.01502799 -95.04651292
v -35.19570060 65.01502799 -92.91235385
v -34.97622191 67.15270070 -92.91235385
v -34.13372315 74.73098970 -99.99846621
v -33.36910269 77.80892046 -99.31036434
v -33.27706181 77.80892046 -101.43709584
v -32.51244135 77.83302671 -103.71094915
v -35.34437909 62.88539281 -92.61809115
v -35.33729463 62.88539281 -92.91235385
v -32.89474840 73.54964376 -103.56976177
v -32.54076016 0.33034900 -101.93941948
v -32.76023249 0.33034900 -101.43709584
v -33.33369942 0.33034900 -100.05643176
v -33.76557233 13.86358341 -99.49910979
v -34.07708554 1.06969412 -98.15560262
v -34.41691756 1.06969412 -97.08852309
v -1.26199976 0.21783941 -107.72512237
v -34.40983945 0.33034900 -97.06177366
v -35.46473243 0.33034900 -92.61809115
v -32.15136864 75.67124140 -104.77208790
v -32.09472467 77.14190045 -104.72749706
v -35.19570060 65.01502799 -92.61809115
v -34.96914380 67.15270070 -92.61809115
v -34.66470870 69.28233587 -92.61809115
v -34.29655787 71.57269631 -92.61809115
v -34.12664504 72.57724193 -92.61809115
v -33.89301013 73.92735703 -92.61809115
v -33.53901553 75.96858568 -92.61809115
v -33.17086470 77.80892046 -92.61809115
v -33.26289923 77.80892046 -95.04651292
v -33.31954320 77.80892046 -97.17769841
v -32.50535689 79.96266189 -92.61809115
v -32.51951947 79.93855564 -92.91235385
v -32.56199450 79.85819300 -97.17769841
v -32.46288185 80.09124337 -101.48762111
v -32.03100895 81.05560767 -102.59631156
v -32.27880644 79.93855564 -103.01690650
v -31.81861473 78.56433429 -104.51646255
v -31.99561203 48.78157609 -104.66210394
v -32.13720606 0.33034900 -102.82518749
v -33.90716635 0.33034900 -98.55835614
v -34.07000743 0.33034900 -98.12736641
v -1.26199976 0.21783941 -95.38536010
v -31.53542032 0.33034900 -103.89226703
v -30.47344288 0.33034900 -105.19861728
v -29.87873525 0.33034900 -105.51814896
v -28.77428277 0.33034900 -106.07397780
v -28.10169684 0.33034900 -106.25380888
v -26.77776568 0.33034900 -106.57928136
v -25.70870694 0.33034900 -106.79031587
v -24.51221358 0.33034900 -106.94043032
v -22.38117899 0.33034900 -107.15889875
v -20.25014598 0.33034900 -107.31790849
v -18.11911297 0.33034900 -107.44274760
v -15.98807838 0.33034900 -107.53786371
v -15.24469543 0.33034900 -107.56313906
v -13.85704537 0.33034900 -107.60028327
v -13.10658114 0.33034900 -107.61217754
v -1.15580215 0.21783941 -107.72660916
v 20.13329358 0.21783941 -93.07732344
v -22.72809230 0.33034900 -92.61809115
v -30.90531578 73.54964376 -105.18078221
v -28.77428277 45.83222999 -106.05168873
v -32.13720606 73.54964376 -104.76614076
v -30.90531578 75.67124140 -105.13768451
v -30.26812677 79.93855564 -104.83450745
v -31.02566911 77.83302671 -104.97866206
v -32.03808706 81.07167638 -92.61809115
v -32.03808706 81.07971391 -92.91235385
v -29.85041645 81.01542000 -104.63981487
v -31.33010422 79.93855564 -104.08249925
v -31.01859100 81.40117080 -101.48762111
v -28.77428277 82.01996561 -101.43709584
v -30.69999967 81.26455178 -103.41222610
v -26.67864668 5.33700200 -106.58671528
v -25.61666924 6.53441984 -106.77546072
v -22.38117899 11.73394824 -107.13659698
v -20.25014598 5.33700200 -107.33277634
v -20.25014598 3.20736682 -107.32831599
v -20.25014598 1.06969412 -107.32088206
v -18.11911297 3.20736682 -107.45612866
v -15.98807838 3.20736682 -107.55421835
v -15.98807838 1.06969412 -107.54232407
v -13.85704537 3.20736682 -107.61366433
v -9.59497777 24.52783594 -107.75781893
v -7.45686506 22.39016323 -107.77268678
v -11.72601157 0.33034900 -107.62704539
v -1.06376415 0.21783941 -107.72660916
v -3.19479785 0.33034900 -107.71621437
v -5.33291096 22.39016323 -107.78754192
v -3.19479785 24.52783594 -107.80092299
v 36.23286017 0.21783941 -93.07732344
v -1.26907956 69.02517291 -92.61809115
v -28.77428277 71.41197105 -105.73959097
v -28.77428277 52.22917623 -105.97737490
v -26.64324500 37.32172365 -106.41877212
v -28.77428277 77.80892046 -105.51071504
v -28.77428277 73.54964376 -105.68757256
v -28.77428277 79.93855564 -105.09012645
v -31.14602880 81.36902066 -92.61809115
v -30.90531578 81.44938965 -92.91235385
v -28.77428277 81.59404620 -103.56976177
v -22.38117899 81.86727788 -103.56976177
v -22.38117899 81.15203901 -104.77060112
v -20.25014598 79.93855564 -105.39182307
v -28.77428277 81.81102785 -92.61809115
v -26.64324500 82.14855344 -101.43709584
v -22.38117899 22.39016323 -107.06526942
v -20.25014598 24.52783594 -107.26589644
v -20.25014598 22.39016323 -107.27779072
v -20.25014598 11.73394824 -107.31790849
v -18.11911297 24.52783594 -107.43829995
v -18.11911297 11.73394824 -107.45910223
v -18.11911297 7.46664035 -107.46058902
v -18.11911297 5.33700200 -107.46058902
v -15.98807838 5.33700200 -107.56016549
v -13.85704537 5.33700200 -107.62109825
v 7.46036996 37.31368929 -107.79646263
v -7.45686506 24.52783594 -107.78012071
v -11.72601157 24.52783594 -107.71175401
v 5.32933656 71.41197105 -107.26738322
v 7.46036996 69.28233587 -107.33128956
v 1.06726935 0.21783941 -107.70878044
v -1.26199976 24.52783594 -107.79943620
v 1.06726935 24.52783594 -107.79348906
v 3.19830296 24.52783594 -107.78605514
v 5.32933656 24.52783594 -107.77417357
v -5.33291096 24.52783594 -107.79200228
v 36.07002545 0.21783941 -93.52466145
v 36.09126615 1.07773165 -93.57519307
v 36.25410087 0.69198720 -93.07732344
v -1.26907956 81.51368357 -92.61809115
v 36.26118533 1.07773165 -93.07732344
v 36.40985747 11.73394824 -93.07732344
v 36.56561408 24.52783594 -93.07732344
v -26.64324500 73.54964376 -105.88671914
v -26.64324500 45.83222999 -106.30730773
v -22.38117899 24.52783594 -107.03999408
v -26.64324500 77.80892046 -105.71283519
v -26.64324500 75.67124140 -105.80795131
v -8.80911503 76.78829978 -106.78436873
v -15.98807838 77.80892046 -106.20625083
v -30.93363458 81.43331458 -92.61809115
v -22.38117899 82.31731624 -101.43709584
v -20.25014598 81.89139048 -103.56976177
v -20.25014598 81.18418915 -104.78546261
v -13.85704537 79.93855564 -105.53449724
v -26.93352229 81.85924034 -92.61809115
v -15.98807838 24.52783594 -107.56016549
v -15.98807838 22.39016323 -107.56313906
v -15.98807838 9.60430988 -107.56758670
v -15.98807838 7.46664035 -107.56462584
v -13.85704537 9.60430988 -107.63000626
v 7.46036996 0.21783941 -107.58096777
v 6.18599790 0.21783941 -107.63446661
v 5.32933656 0.21783941 -107.66567639
v 24.51571769 71.41197105 -105.75445246
v -13.85704537 22.39016323 -107.63892697
v -13.85704537 24.52783594 -107.63744018
v -7.45686506 75.67124140 -106.86760327
v 3.19830296 73.54160622 -107.17524068
v 4.81958773 75.10870297 -106.93150961
v 35.46823972 0.21783941 -95.04502613
v 35.48948041 1.07773165 -95.04502613
v 36.35321986 24.52783594 -94.22317081
v 28.90522151 79.33582319 -93.07732344
v 28.88398082 79.34386072 -93.07732344
v 26.64675229 80.09928090 -93.07732344
v 20.24657198 80.61360683 -93.07732344
v 18.27837369 80.75825703 -93.07732344
v 9.59140376 81.20026422 -93.07732344
v 7.46036996 81.28062685 -93.07732344
v 5.32933656 81.35295195 -93.07732344
v -1.53811377 81.52171475 -92.61809115
v 36.46649509 35.18405094 -93.07732344
v 36.45941697 35.48943276 -93.07732344
v 36.22578206 43.69456046 -93.07732344
v 36.19038514 44.59463084 -93.07732344
v 36.11958495 45.99295843 -93.07732344
v 35.99922526 48.12259361 -93.07732344
v 35.81514985 50.26026632 -93.07732344
v 34.76733498 58.61808493 -93.07732344
v 34.45582177 60.75575764 -93.07732344
v 34.20094616 62.34695428 -93.07732344
v 34.02394886 63.32739365 -93.07732344
v 33.70535754 65.01502799 -93.07732344
v 32.20442907 71.24320825 -93.07732344
v 31.07873590 75.67927893 -93.07732344
v 31.01501382 75.86411680 -93.07732344
v 30.26455594 77.89731427 -93.07732344
v 30.25747148 77.91338934 -93.07732344
v 29.75480474 78.77327841 -93.07732344
v 36.34614175 26.65746953 -94.23654552
v 36.30366037 33.68928882 -94.18452711
v 36.29658225 35.18405094 -94.16223168
v -9.09230944 75.67124140 -106.80221015
v -7.45686506 76.81240603 -106.79477622
v -20.25014598 82.28517246 -101.43709584
v -20.25014598 81.94764686 -92.61809115
v -18.40938549 81.97175311 -92.61809115
v -18.11911297 81.97175311 -92.61809115
v -15.98807838 82.18069723 -101.43709584
v 9.59140376 81.21633293 -102.98866394
v -13.85704537 81.72262133 -103.56976177
v -7.45686506 81.11990158 -104.74384534
v -13.85704537 81.18418915 -104.78397583
v -7.45686506 79.93855564 -105.39777021
v 2.36288112 76.82044356 -106.80518372
v -3.19479785 76.83651228 -106.81113086
v 9.59140376 0.21783941 -107.27481715
v 25.74761115 74.84349612 -104.75425284
v 25.88920835 73.54160622 -104.89989422
v 31.09289213 65.01502799 -102.04791665
v 30.50526897 37.31368929 -102.94407946
v 30.69642249 1.07773165 -103.30522206
v 28.77778371 1.07773165 -104.22814064
v 28.77778371 0.21783941 -104.22516707
v 15.98450437 79.22331677 -104.75276605
v 3.12042465 75.75964792 -106.95677224
v 34.56909699 0.21783941 -97.05880009
v 34.66113787 54.35881458 -99.02056200
v 35.40452399 52.22917623 -97.17621163
v 29.86807996 78.90185989 -94.10724606
v 29.86100185 78.89382871 -100.40568008
v 26.64675229 80.15553729 -99.30888391
v 29.86807996 78.90185989 -93.86499542
v 24.51571769 80.52520667 -99.30888391
v 19.77930215 81.10382652 -99.30888391
v -15.98807838 82.12444720 -99.31036434
v 36.26118533 38.85667026 -94.08792421
v 36.04170665 43.69456046 -95.04502613
v 36.21870395 43.69456046 -93.39387520
v 35.78683104 50.09150352 -95.04502613
v 35.63815890 52.22917623 -95.04502613
v 35.42575833 54.35881458 -95.04502613
v 35.20628600 56.48844976 -95.04502613
v 34.92309159 58.61808493 -95.04502613
v 34.57618146 60.75575764 -95.04502613
v 34.25050566 62.61215478 -95.04502613
v 34.05226767 63.68099431 -95.04502613
v 33.78323584 65.01502799 -95.04502613
v 33.29472532 67.15270070 -97.17621163
v 32.72125839 69.28233587 -99.30888391
v 31.92123466 72.29597271 -99.30888391
v 31.04333898 75.67927893 -95.04502613
v 36.07002545 41.56492211 -95.04502613
v 19.80054126 81.11185770 -100.94665377
v 15.36147794 81.04757013 -102.70034839
v 13.85347137 80.61360683 -103.88185953
v 11.72243677 80.65378815 -103.98738314
v 13.85347137 79.55280484 -104.89395344
v 11.72243677 79.59298615 -104.96528735
v 3.19830296 79.76978648 -105.16443393
v 29.79728612 74.33720772 -102.46999203
v 17.25179634 78.95007874 -104.66210394
v 24.51571769 79.55280484 -102.98866394
v 26.64675229 79.16706039 -102.68846046
v 27.74412506 78.90185989 -102.52349087
v 28.09104155 77.80892046 -102.67953975
v 28.55831137 75.67927893 -102.90692890
v 29.88224254 72.91476753 -102.53537880
v 31.06457332 67.15270070 -101.97954996
v 32.85577431 60.75575764 -100.98529112
v 31.15661420 62.88539281 -102.05237066
v 32.86993689 58.61808493 -101.01353368
v 30.73182577 0.21783941 -103.29036057
v 29.57780744 0.21783941 -103.84470897
v 22.37760498 79.78586155 -103.23388815
v 34.04518956 0.21783941 -98.12439284
v 33.93899245 58.61808493 -100.13965359
v 34.58325957 56.48844976 -99.07554763
v 35.36912072 54.35881458 -97.17621163
v 33.45048193 0.21783941 -99.30888391
v 32.44514845 0.21783941 -101.17552335
v 31.79379686 0.21783941 -102.24111610
v 28.58663018 79.15099167 -101.24389004
v 26.64675229 79.86622419 -101.43857627
v 32.11239454 70.92978890 -100.56618932
v 29.62736693 75.67927893 -102.24855002
v 29.15301900 77.80892046 -101.76554188
v 24.51571769 80.40465636 -101.43857627
v 22.37760498 80.76630092 -101.43857627
v 35.96382834 45.83222999 -95.04502613
v 35.87887193 47.96186834 -95.04502613
v 35.17796719 56.48844976 -97.17621163
v 34.90185090 58.61808493 -97.17621163
v 34.55494076 60.75575764 -97.17621163
v 34.23634944 62.41928573 -97.17621163
v 34.18678994 62.14604770 -98.58808549
v 33.13896872 67.15270070 -99.30888391
v 20.40232858 80.95916996 -101.56936252
v 32.29646995 69.28233587 -100.76979626
v 32.45222656 67.15270070 -100.91395721
v 32.54426109 65.01502799 -100.98232391
v 32.71418028 62.88539281 -100.98677791
v 31.15661420 0.21783941 -102.90692890
v 33.92483622 60.75575764 -99.97766392
v 34.46289988 58.61808493 -99.07258041
v 34.31422774 60.75575764 -98.91355796
f 1 2 3
f 1 3 4
f 1 4 11
f 1 11 5
f 1 5 12
f 1 12 23
f 1 23 32
f 1 32 53
f 1 53 95
f 1 95 127
f 1 127 166
f 1 166 208
f 1 208 235
f 1 235 234
f 1 234 233
f 1 233 182
f 1 182 140
f 1 140 177
f 1 177 134
f 1 134 102
f 1 102 66
f 1 66 63
f 1 63 62
f 1 62 61
f 1 61 60
f 1 60 59
f 1 59 58
f 1 58 57
f 1 57 56
f 1 56 42
f 1 42 24
f 1 24 13
f 1 13 6
f 1 6 2
f 2 6 7
f 2 7 3
f 3 8 4
f 3 7 9
f 3 9 10
f 3 10 8
f 4 8 11
f 5 11 20
f 5 20 12
f 6 13 14
f 6 14 7
f 7 14 9
f 8 10 15
f 8 15 16
f 8 16 17
f 8 17 18
f 8 18 19
f 8 19 20
f 8 20 11
f 9 21 22
f 9 22 16
f 9 16 15
f 9 15 10
f 9 14 21
f 12 20 23
f 13 24 25
f 13 25 14
f 14 25 35
f 14 35 26
f 14 26 21
f 16 22 27
f 16 27 28
f 16 28 17
f 17 28 29
f 17 29 30
f 17 30 31
f 17 31 18
f 18 31 19
f 19 32 23
f 19 23 20
f 19 31 33
f 19 33 32
f 21 26 22
f 22 34 27
f 22 26 35
f 22 35 36
f 22 36 37
f 22 37 38
f 22 38 39
f 22 39 40
f 22 40 41
f 22 41 34
f 24 42 43
f 24 43 25
f 25 43 35
f 27 34 44
f 27 44 45
f 27 45 46
f 27 46 47
f 27 47 48
f 27 48 28
f 28 48 29
f 29 49 30
f 29 48 47
f 29 47 49
f 30 49 50
f 30 50 31
f 31 51 33
f 31 50 52
f 31 52 51
f 32 33 53
f 33 51 53
f 34 54 44
f 34 41 55
f 34 55 54
f 35 43 36
f 36 56 37
f 36 43 42
f 36 42 56
f 37 57 38
f 37 56 57
f 38 57 58
f 38 58 59
f 38 59 60
f 38 60 61
f 38 61 62
f 38 62 63
f 38 63 64
f 38 64 65
f 38 65 39
f 39 65 66
f 39 66 67
f 39 67 68
f 39 68 69
f 39 69 40
f 40 69 70
f 40 70 71
f 40 71 41
f 41 71 72
f 41 72 55
f 44 54 73
f 44 73 74
f 44 74 45
f 45 74 51
f 45 51 46
f 46 51 47
f 47 51 75
f 47 75 49
f 49 75 76
f 49 76 52
f 49 52 50
f 51 77 53
f 51 52 76
f 51 76 75
f 51 74 78
f 51 78 79
f 51 79 80
f 51 80 81
f 51 81 82
f 51 82 83
f 51 83 84
f 51 84 85
f 51 85 86
f 51 86 87
f 51 87 88
f 51 88 89
f 51 89 90
f 51 90 91
f 51 91 92
f 51 92 93
f 51 93 122
f 51 122 157
f 51 157 190
f 51 190 189
f 51 189 188
f 51 188 244
f 51 244 251
f 51 251 301
f 51 301 300
f 51 300 330
f 51 330 309
f 51 309 308
f 51 308 307
f 51 307 303
f 51 303 254
f 51 254 197
f 51 197 163
f 51 163 126
f 51 126 94
f 51 94 77
f 53 77 94
f 53 94 126
f 53 126 95
f 54 96 97
f 54 97 81
f 54 81 80
f 54 80 79
f 54 79 98
f 54 98 73
f 54 55 99
f 54 99 96
f 55 72 100
f 55 100 101
f 55 101 99
f 63 66 64
f 64 66 65
f 66 102 67
f 67 102 103
f 67 103 68
f 68 103 69
f 69 103 70
f 70 104 105
f 70 105 72
f 70 72 71
f 70 103 106
f 70 106 107
f 70 107 108
f 70 108 104
f 72 105 104
f 72 104 100
f 73 79 78
f 73 78 74
f 73 98 79
f 81 97 82
f 82 97 83
f 83 97 109
f 83 109 84
f 84 109 97
f 84 97 110
f 84 110 85
f 85 110 111
f 85 111 86
f 86 111 112
f 86 112 113
f 86 113 114
f 86 114 87
f 87 114 115
f 87 115 88
f 88 115 116
f 88 116 117
f 88 117 89
f 89 117 90
f 90 117 116
f 90 116 118
f 90 118 91
f 91 118 92
f 92 118 119
f 92 119 120
f 92 120 121
f 92 121 93
f 93 121 123
f 93 123 124
f 93 124 125
f 93 125 122
f 95 126 127
f 96 99 128
f 96 128 129
f 96 129 97
f 97 129 130
f 97 130 110
f 99 101 131
f 99 131 132
f 99 132 128
f 100 104 133
f 100 133 131
f 100 131 101
f 102 134 103
f 103 134 135
f 103 135 106
f 104 108 136
f 104 136 137
f 104 137 138
f 104 138 139
f 104 139 133
f 106 135 107
f 107 140 141
f 107 141 136
f 107 136 108
f 107 135 140
f 110 142 111
f 110 130 142
f 111 142 143
f 111 143 144
f 111 144 145
f 111 145 112
f 112 145 146
f 112 146 147
f 112 147 148
f 112 148 149
f 112 149 115
f 112 115 113
f 113 115 114
f 115 149 186
f 115 186 150
f 115 150 116
f 116 150 151
f 116 151 118
f 118 151 119
f 119 152 153
f 119 153 120
f 119 151 154
f 119 154 155
f 119 155 156
f 119 156 152
f 120 123 121
f 120 153 124
f 120 124 123
f 122 125 158
f 122 158 159
f 122 159 160
f 122 160 161
f 122 161 157
f 124 153 162
f 124 162 125
f 125 162 152
f 125 152 158
f 126 163 164
f 126 164 165
f 126 165 127
f 127 165 167
f 127 167 168
f 127 168 169
f 127 169 166
f 128 132 170
f 128 170 143
f 128 143 171
f 128 171 130
f 128 130 129
f 130 171 172
f 130 172 142
f 131 173 174
f 131 174 132
f 131 133 173
f 132 174 170
f 133 139 175
f 133 175 176
f 133 176 173
f 134 177 135
f 135 177 140
f 136 141 137
f 137 141 178
f 137 178 179
f 137 179 180
f 137 180 138
f 138 181 139
f 138 180 181
f 139 181 175
f 140 182 178
f 140 178 141
f 142 172 143
f 143 172 171
f 143 170 146
f 143 146 144
f 144 146 145
f 146 183 147
f 146 170 183
f 147 184 185
f 147 185 148
f 147 183 184
f 148 185 149
f 149 185 186
f 150 186 151
f 151 186 187
f 151 187 154
f 152 188 189
f 152 189 190
f 152 190 161
f 152 161 160
f 152 160 159
f 152 159 158
f 152 162 153
f 152 156 191
f 152 191 188
f 154 187 185
f 154 185 192
f 154 192 193
f 154 193 194
f 154 194 195
f 154 195 155
f 155 195 196
f 155 196 156
f 156 196 191
f 157 161 190
f 163 197 164
f 164 197 198
f 164 198 199
f 164 199 165
f 165 199 167
f 166 200 201
f 166 201 202
f 166 202 203
f 166 203 204
f 166 204 205
f 166 205 206
f 166 206 207
f 166 207 208
f 166 169 209
f 166 209 210
f 166 210 211
f 166 211 212
f 166 212 213
f 166 213 214
f 166 214 215
f 166 215 216
f 166 216 217
f 166 217 218
f 166 218 219
f 166 219 220
f 166 220 221
f 166 221 222
f 166 222 223
f 166 223 224
f 166 224 225
f 166 225 226
f 166 226 200
f 167 199 168
f 168 199 169
f 169 199 227
f 169 227 228
f 169 228 229
f 169 229 209
f 170 174 175
f 170 175 230
f 170 230 183
f 173 176 175
f 173 175 174
f 175 194 230
f 175 181 231
f 175 231 195
f 175 195 194
f 178 232 179
f 178 182 233
f 178 233 234
f 178 234 235
f 178 235 232
f 179 232 236
f 179 236 237
f 179 237 238
f 179 238 239
f 179 239 240
f 179 240 180
f 180 240 181
f 181 240 239
f 181 239 241
f 181 241 242
f 181 242 243
f 181 243 231
f 183 193 184
f 183 230 194
f 183 194 193
f 184 192 185
f 184 193 192
f 185 187 186
f 188 191 244
f 191 245 246
f 191 246 247
f 191 247 248
f 191 248 249
f 191 249 250
f 191 250 251
f 191 251 244
f 191 196 242
f 191 242 252
f 191 252 245
f 195 231 253
f 195 253 196
f 196 253 242
f 197 254 198
f 198 254 199
f 199 255 256
f 199 256 227
f 199 254 255
f 200 257 258
f 200 258 259
f 200 259 201
f 200 226 260
f 200 260 257
f 201 259 202
f 202 259 261
f 202 261 262
f 202 262 203
f 203 262 204
f 204 262 205
f 205 262 206
f 206 262 207
f 207 236 263
f 207 263 235
f 207 235 208
f 207 262 236
f 209 229 264
f 209 264 265
f 209 265 210
f 210 265 266
f 210 266 211
f 211 266 212
f 212 266 213
f 213 266 267
f 213 267 214
f 214 267 268
f 214 268 215
f 215 268 269
f 215 269 270
f 215 270 216
f 216 270 271
f 216 271 217
f 217 271 218
f 218 271 272
f 218 272 273
f 218 273 219
f 219 273 274
f 219 274 220
f 220 275 221
f 220 274 275
f 221 275 276
f 221 276 222
f 222 276 277
f 222 277 278
f 222 278 279
f 222 279 258
f 222 258 223
f 223 258 224
f 224 258 257
f 224 257 260
f 224 260 225
f 225 260 226
f 227 256 280
f 227 280 228
f 228 280 229
f 229 280 264
f 231 243 253
f 232 235 263
f 232 263 236
f 236 281 237
f 236 262 281
f 237 281 282
f 237 282 283
f 237 283 239
f 237 239 238
f 239 283 284
f 239 284 285
f 239 285 286
f 239 286 287
f 239 287 241
f 241 287 242
f 242 253 243
f 242 287 286
f 242 286 285
f 242 285 252
f 245 288 246
f 245 252 289
f 245 289 290
f 245 290 291
f 245 291 292
f 245 292 293
f 245 293 294
f 245 294 288
f 246 288 295
f 246 295 247
f 247 295 296
f 247 296 297
f 247 297 298
f 247 298 248
f 248 298 297
f 248 297 299
f 248 299 249
f 249 300 250
f 249 299 300
f 250 300 301
f 250 301 251
f 252 285 302
f 252 302 290
f 252 290 289
f 254 303 255
f 255 304 305
f 255 305 306
f 255 306 256
f 255 303 307
f 255 307 308
f 255 308 309
f 255 309 304
f 256 306 265
f 256 265 280
f 258 292 310
f 258 310 311
f 258 311 259
f 258 279 278
f 258 278 312
f 258 312 313
f 258 313 314
f 258 314 292
f 259 311 315
f 259 315 261
f 261 315 316
f 261 316 281
f 261 281 262
f 264 280 265
f 265 317 266
f 265 306 317
f 266 317 318
f 266 318 267
f 267 306 268
f 267 318 306
f 268 306 319
f 268 319 269
f 269 319 270
f 270 319 320
f 270 320 271
f 271 320 321
f 271 321 272
f 272 321 273
f 273 321 274
f 274 321 322
f 274 322 276
f 274 276 275
f 276 322 277
f 277 322 323
f 277 323 324
f 277 324 312
f 277 312 278
f 281 316 325
f 281 325 282
f 282 325 316
f 282 316 283
f 283 316 302
f 283 302 285
f 283 285 284
f 288 312 326
f 288 326 327
f 288 327 295
f 288 294 293
f 288 293 313
f 288 313 312
f 290 302 315
f 290 315 311
f 290 311 291
f 291 311 292
f 292 314 313
f 292 313 293
f 292 311 310
f 295 327 328
f 295 328 329
f 295 329 296
f 296 329 297
f 297 329 304
f 297 304 299
f 299 304 300
f 300 304 330
f 302 316 315
f 304 329 327
f 304 327 331
f 304 331 305
f 304 309 330
f 305 331 332
f 305 332 306
f 306 318 317
f 306 332 319
f 312 324 333
f 312 333 331
f 312 331 326
f 319 332 333
f 319 333 320
f 320 333 323
f 320 323 321
f 321 323 322
f 323 333 324
f 326 331 327
f 327 329 328
f 331 333 332

