# https://github.com/mikedh/trimesh
v 16.52317958 65.01345225 -93.07510597
v 20.40758793 65.01345225 -83.71575661
v 33.71008475 65.01345225 -93.07510597
v 20.13873083 0.21621602 -93.07510597
v 32.97975247 65.01345225 -83.71575661
v 24.57088917 0.21621602 -83.71575661
v 34.02709716 63.33246397 -93.07510597
v 33.70406454 65.01345225 -92.91293204
v 36.23815923 0.21621602 -93.07510597
v 33.34692482 62.88843628 -83.71575661
v 34.19964999 62.33021842 -92.91110215
v 34.00703510 63.39590012 -92.91110215
v 36.91833475 0.21621602 -83.71575661
v 34.20366241 62.34924800 -93.07510597
v 36.26825709 1.06622495 -93.07510597
v 36.46287978 1.06622495 -92.50703975
v 36.44883475 0.21621602 -92.45664791
v 33.45928192 62.22238204 -83.71575661
v 33.70005213 60.75707287 -83.71575661
v 34.13744965 59.84996886 -87.24601310
v 34.44844503 60.75707287 -92.91110215
v 34.45847447 60.75707287 -93.07510597
v 36.93237978 0.21621602 -85.66000750
v 36.96046985 3.20392943 -84.38460652
v 36.98655213 5.33529283 -84.38460652
v 36.97049930 4.66289752 -83.71575661
v 36.41472447 11.72938145 -93.07510597
v 36.80597447 5.33529283 -90.77902077
v 36.76584716 1.06622495 -90.77902077
v 36.57323227 0.21621602 -91.81345457
v 36.56520744 24.52390136 -93.07510597
v 36.59530213 24.52390136 -92.91110215
v 33.81441702 60.05295948 -83.71575661
v 34.00101489 58.87310032 -83.71575661
v 34.68720744 54.36298266 -83.71575661
v 34.75943723 58.62570947 -92.91110215
v 34.77147447 58.62570947 -93.07510597
v 36.93237978 0.21621602 -86.51577295
v 36.94842944 1.06622495 -86.51577295
v 37.01263440 7.46665465 -86.51577295
v 36.99858937 7.46665465 -84.38460652
v 36.97651951 5.33529283 -83.71575661
v 36.97250709 3.20392943 -86.51577295
v 36.85613440 11.72938145 -90.77902077
v 36.97651951 7.46665465 -88.64693939
v 36.95846206 5.33529283 -88.64693939
v 36.81199468 0.21621602 -89.92325531
v 36.75380675 0.21621602 -90.77902077
v 36.56319964 24.78397754 -93.07510597
v 36.85613440 18.12347008 -90.77902077
v 36.85814220 15.99210667 -90.77902077
v 36.85814220 13.86074327 -90.77902077
v 36.47491702 35.17437095 -93.07510597
v 36.49899468 35.17437095 -92.91110215
v 34.97010958 52.23161926 -83.71575661
v 35.01625709 52.23161926 -84.38460652
v 35.83286419 50.10025585 -92.91110215
v 35.81681454 50.25883989 -93.07510597
v 36.89425709 0.21621602 -88.64693939
v 36.99056454 9.59801805 -88.64693939
v 37.01865461 9.59801805 -86.51577295
v 36.98454433 6.79426092 -83.71575661
v 37.01865461 11.72938145 -86.51577295
v 36.99457695 11.72938145 -84.38460652
v 36.79192944 24.52390136 -90.77902077
v 36.90228192 22.38619530 -88.64693939
v 36.92234716 20.25483189 -88.64693939
v 36.98655213 11.72938145 -88.64693939
v 36.46889682 35.47250946 -93.07510597
v 36.26424468 42.65317244 -93.07510597
v 36.23414682 43.69982457 -93.07510597
v 36.62740461 35.17437095 -90.77902077
v 36.66151171 33.04301073 -90.77902077
v 36.72772447 28.78662817 -90.77902077
v 35.04233937 51.55922394 -83.71575661
v 36.02146985 47.96889245 -92.91110215
v 35.83687978 45.83118797 -86.51577295
v 35.97933475 45.83118797 -88.64693939
v 36.13182234 45.62819735 -90.98333933
v 36.00341241 48.12747649 -93.07510597
v 36.97852730 11.72938145 -83.71575661
v 37.00661737 13.86074327 -86.51577295
v 36.99056454 13.86074327 -84.38460652
v 36.97651951 13.19469221 -83.71575661
v 36.85011737 26.65526477 -88.64693939
v 36.88021206 24.52390136 -88.64693939
v 36.94241241 20.25483189 -86.51577295
v 36.19602730 44.60057798 -93.07510597
v 36.16994185 45.62819735 -92.70952842
v 36.24417944 44.77819160 -91.86476136
v 36.26825709 43.69982457 -92.32746282
v 36.79995426 28.78662817 -88.64693939
v 36.54714682 37.30573436 -90.77902077
v 36.49899468 37.30573436 -88.64693939
v 36.76383937 28.78662817 -86.51577295
v 35.19282234 50.10025585 -83.71575661
v 35.46368723 47.96889245 -84.38460652
v 36.24417944 44.77819160 -91.82994264
v 35.66432695 45.83118797 -84.38460652
v 36.00742482 43.69982457 -86.51577295
v 36.16191702 43.59832926 -88.72939877
v 36.21006916 44.24535074 -90.40794721
v 36.12580213 45.98977201 -93.07510597
v 36.96648688 15.99210667 -84.38460652
v 36.95846206 15.32605561 -83.71575661
v 36.97451171 13.86074327 -83.71575661
v 36.82603971 26.65526477 -86.51577295
v 36.87218723 24.52390136 -86.51577295
v 36.91030675 22.38619530 -86.51577295
v 36.93639220 18.12347008 -84.38460652
v 36.45485496 39.43709776 -90.77902077
v 36.40469185 39.43709776 -88.64693939
v 36.60733937 30.91798840 -84.38460652
v 36.69562199 28.78662817 -84.38460652
v 36.75982695 26.65526477 -84.38460652
v 35.40951171 47.96889245 -83.71575661
v 36.25421206 42.82444181 -89.49445764
v 36.29433937 41.55577266 -88.72939877
v 35.60413440 45.83118797 -83.71575661
v 35.66031454 45.16513373 -83.71575661
v 36.00341241 40.90241010 -83.71575661
v 36.21809716 42.25354180 -88.07429210
v 36.16793723 38.72029904 -83.71575661
v 36.22010178 38.02253308 -83.71575661
v 36.16392482 41.55577266 -86.54784049
v 36.92836419 17.45741901 -83.71575661
v 36.81600709 24.52390136 -84.38460652
v 36.86014682 22.38619530 -84.38460652
v 36.90228192 20.25483189 -84.38460652
v 36.26424468 40.83263287 -87.27991688
v 36.40870744 37.30573436 -86.51577295
v 36.57724468 30.91798840 -83.71575661
v 36.66351951 28.78662817 -83.71575661
v 36.68759716 28.11423286 -83.71575661
v 36.73374468 26.65526477 -83.71575661
v 36.75380675 25.98286945 -83.71575661
v 36.28430675 36.97588095 -83.71575661
v 36.89024468 19.58878242 -83.71575661
v 36.79192944 24.52390136 -83.71575661
v 36.83606916 22.38619530 -83.71575661
v 36.87820744 20.25483189 -83.71575661
v 36.30236419 36.64602754 -83.71575661
v 36.40669964 34.50831989 -83.71575661
f 1 2 5
f 1 5 8
f 1 8 3
f 1 3 7
f 1 7 14
f 1 14 22
f 1 22 37
f 1 37 58
f 1 58 80
f 1 80 103
f 1 103 88
f 1 88 71
f 1 71 70
f 1 70 69
f 1 69 53
f 1 53 49
f 1 49 31
f 1 31 27
f 1 27 15
f 1 15 9
f 1 9 4
f 1 4 2
f 2 4 6
f 2 6 13
f 2 13 26
f 2 26 42
f 2 42 62
f 2 62 81
f 2 81 84
f 2 84 106
f 2 106 105
f 2 105 126
f 2 126 138
f 2 138 141
f 2 141 140
f 2 140 139
f 2 139 136
f 2 136 135
f 2 135 134
f 2 134 133
f 2 133 132
f 2 132 143
f 2 143 142
f 2 142 137
f 2 137 124
f 2 124 123
f 2 123 121
f 2 121 120
f 2 120 119
f 2 119 116
f 2 116 96
f 2 96 75
f 2 75 55
f 2 55 35
f 2 35 34
f 2 34 33
f 2 33 19
f 2 19 18
f 2 18 10
f 2 10 5
f 3 8 7
f 4 9 17
f 4 17 30
f 4 30 48
f 4 48 47
f 4 47 59
f 4 59 38
f 4 38 23
f 4 23 13
f 4 13 6
f 5 10 11
f 5 11 12
f 5 12 8
f 7 8 12
f 7 12 11
f 7 11 14
f 9 15 16
f 9 16 17
f 10 18 11
f 11 18 19
f 11 19 20
f 11 20 21
f 11 21 22
f 11 22 14
f 13 23 24
f 13 24 25
f 13 25 26
f 15 27 16
f 16 28 29
f 16 29 30
f 16 30 17
f 16 27 31
f 16 31 32
f 16 32 28
f 19 33 20
f 20 33 34
f 20 34 35
f 20 35 21
f 21 35 36
f 21 36 37
f 21 37 22
f 23 38 39
f 23 39 25
f 23 25 24
f 25 40 41
f 25 41 42
f 25 42 26
f 25 39 43
f 25 43 40
f 28 44 45
f 28 45 46
f 28 46 29
f 28 32 44
f 29 47 48
f 29 48 30
f 29 46 47
f 31 49 32
f 32 50 51
f 32 51 52
f 32 52 44
f 32 49 53
f 32 53 54
f 32 54 50
f 35 55 37
f 35 37 36
f 37 55 56
f 37 56 57
f 37 57 58
f 38 59 39
f 39 59 46
f 39 46 43
f 40 43 46
f 40 46 45
f 40 45 60
f 40 60 61
f 40 61 41
f 41 62 42
f 41 61 63
f 41 63 64
f 41 64 62
f 44 60 45
f 44 52 60
f 46 59 47
f 50 54 65
f 50 65 66
f 50 66 67
f 50 67 68
f 50 68 60
f 50 60 51
f 51 60 52
f 53 69 54
f 54 69 70
f 54 70 71
f 54 71 72
f 54 72 73
f 54 73 74
f 54 74 65
f 55 75 56
f 56 75 57
f 57 76 58
f 57 75 77
f 57 77 78
f 57 78 79
f 57 79 76
f 58 76 80
f 60 68 63
f 60 63 61
f 62 64 81
f 63 68 82
f 63 82 83
f 63 83 64
f 64 83 84
f 64 84 81
f 65 74 85
f 65 85 86
f 65 86 66
f 66 86 87
f 66 87 82
f 66 82 67
f 67 82 68
f 71 88 89
f 71 89 90
f 71 90 91
f 71 91 72
f 72 92 85
f 72 85 73
f 72 91 90
f 72 90 93
f 72 93 94
f 72 94 95
f 72 95 92
f 73 85 74
f 75 96 97
f 75 97 77
f 76 79 98
f 76 98 90
f 76 90 89
f 76 89 80
f 77 97 99
f 77 99 100
f 77 100 78
f 78 100 101
f 78 101 102
f 78 102 79
f 79 102 98
f 80 89 103
f 82 87 83
f 83 104 105
f 83 105 106
f 83 106 84
f 83 87 104
f 85 92 107
f 85 107 108
f 85 108 109
f 85 109 87
f 85 87 86
f 87 110 104
f 87 109 110
f 88 103 89
f 90 98 93
f 92 95 107
f 93 111 94
f 93 98 111
f 94 111 98
f 94 98 112
f 94 112 113
f 94 113 114
f 94 114 95
f 95 114 115
f 95 115 107
f 96 116 97
f 97 116 99
f 98 102 117
f 98 117 118
f 98 118 112
f 99 116 119
f 99 119 120
f 99 120 121
f 99 121 100
f 100 122 101
f 100 121 123
f 100 123 124
f 100 124 125
f 100 125 122
f 101 122 102
f 102 122 117
f 104 110 126
f 104 126 105
f 107 115 127
f 107 127 108
f 108 127 128
f 108 128 129
f 108 129 109
f 109 129 110
f 110 129 126
f 112 118 130
f 112 130 131
f 112 131 113
f 113 132 114
f 113 131 132
f 114 132 133
f 114 133 134
f 114 134 135
f 114 135 115
f 115 135 136
f 115 136 127
f 117 122 118
f 118 122 130
f 122 125 130
f 124 130 125
f 124 137 130
f 126 129 138
f 127 136 139
f 127 139 140
f 127 140 128
f 128 140 141
f 128 141 129
f 129 141 138
f 130 137 142
f 130 142 131
f 131 142 143
f 131 143 132

