# https://github.com/mikedh/trimesh
v -1.27175391 -69.18406828 4.36292754
v -22.69897927 -65.03213872 4.36292754
v -1.27175391 -81.54125898 4.36292754
v -1.27175391 -68.98851159 -1.03914672
v -35.08400747 -65.03213872 4.36292754
v -1.27175391 -68.92870979 -3.16518565
v -1.27175391 -68.79295489 -9.76557045
v -1.27175391 -68.76386092 -11.69833369
v -1.27175391 -68.71537521 -15.96007567
v -1.27175391 -68.69113554 -18.09577870
v -1.27175391 -68.60870793 -26.82220561
v -1.27175391 -68.59416412 -28.95790865
v -1.27175391 -68.16264703 -94.36261090
v -20.07766781 -65.03213872 -94.36261090
v -11.72720687 -81.28752706 4.36292754
v -6.69640950 -81.02570677 -90.06221252
v -4.81647954 -81.03216856 -94.36261090
v -3.19801882 -81.04994645 -94.36261090
v -1.27175391 -81.04348465 -94.36261090
v -34.95162007 -67.15739614 4.36292754
v -35.02112409 -65.03213872 -3.37778954
v -34.41544348 -75.68427936 0.89361653
v -33.85609466 -65.03213872 -94.36261090
v -12.52485270 -81.26651510 4.36292754
v -13.17687144 -80.80752425 -94.36261090
v -11.04540161 -80.86731969 -94.36261090
v -9.59573784 -80.90772339 -94.36261090
v -8.91393178 -80.92550127 -94.36261090
v -13.85867670 -81.22611140 4.36292754
v -34.81591918 -69.29073557 4.36292754
v -35.00126217 -65.03213872 -5.50382848
v -34.12087581 -76.78003986 -13.07059490
v -34.24333542 -77.13236342 0.89361653
v -34.21685603 -77.15337538 3.01965546
v -34.36248471 -75.68427936 4.36292754
v -34.48825465 -74.34933074 4.36292754
v -34.93837879 -65.03213872 -11.90127349
v -34.80599139 -65.03213872 -24.69616668
v -34.75965326 -65.03213872 -28.95790865
v -33.89250183 -67.15739614 -88.64162763
v -33.58800954 -71.42245479 -88.64162763
v -33.42251894 -73.55256014 -86.51558869
v -33.53174045 -68.60870793 -94.36261090
v -33.50195392 -71.42245479 -90.77733702
v -33.94215028 -65.03213872 -92.91303370
v -15.31165000 -80.73641273 -94.36261090
v -14.65632253 -81.20025151 4.36292754
v -15.99014653 -81.15661373 4.36292754
v -33.11471633 -77.81600493 -41.75279867
v -33.39273241 -73.55256014 -88.64162763
v -33.27358312 -75.68427936 -73.72069868
v -33.02535039 -75.68427936 -86.51558869
v -32.36340705 -77.46690909 -86.51558869
v -33.81307002 -78.21842805 3.01965546
v -33.94546060 -77.72388145 4.36292754
v -34.18375918 -77.05640396 4.36292754
v -34.29960133 -76.23215961 4.36292754
v -33.99841301 -65.03213872 -90.77733702
v -33.84947719 -67.15739614 -90.77733702
v -33.46885707 -69.29073557 -94.36261090
v -33.29013154 -73.55256014 -90.77733702
v -33.27027279 -71.42245479 -94.36261090
v -33.16436161 -73.55256014 -92.90337595
v -18.12492509 -80.62974544 -94.36261090
v -18.11499572 -81.08550221 4.36292754
v -19.56134996 -81.03216856 4.36292754
v -24.51602267 -80.84469388 4.36292754
v -32.01257345 -78.91822723 -66.60813553
v -32.74071367 -75.68427936 -94.36261090
v -32.79367244 -75.68427936 -92.90337595
v -32.42629043 -76.77842600 -94.36261090
v -32.25418554 -77.31822425 -94.36261090
v -31.74117484 -78.52872770 -88.64162763
v -32.74733431 -79.37721807 3.01965546
v -32.72747557 -79.38367987 4.36292754
v -33.79321128 -78.12307685 4.36292754
v -32.34685544 -79.19782540 -41.75279867
v -32.51234287 -79.31903649 -24.69616668
v -32.85986614 -75.00387828 -94.36261090
v -33.06506788 -73.55256014 -94.36261090
v -20.25308460 -80.54085603 -94.36261090
v -25.31367009 -80.81237219 4.36292754
v -30.90712025 -79.07338023 -94.36261090
v -30.56622080 -79.35135818 -94.36261090
v -32.06221873 -77.65923172 -94.36261090
v -31.70145735 -78.48024834 -90.77733702
v -31.65512240 -78.43984464 -92.90337595
v -31.59885648 -79.87015082 4.36292754
v -30.91043057 -79.96711589 -33.21965062
v -30.91043057 -80.04792328 -18.29872167
v -30.65558038 -79.42570378 -86.51558869
v -22.38455443 -80.44227075 -94.36261090
v -26.64749250 -80.75580447 4.36292754
v -31.63195333 -78.38489078 -94.36261090
v -28.77896233 -79.96711589 -94.36261090
v -30.91043057 -80.15459057 3.01965546
v -30.91043057 -80.16105872 4.36292754
v -28.77896233 -80.44388461 -33.21965062
v -28.77896233 -80.56186799 -14.03697652
v -28.77896233 -80.08186519 -84.37989201
v -28.77896233 -80.16752052 -73.72069868
v -24.51602267 -80.33075553 -94.36261090
v -27.44513833 -80.69116109 4.36292754
v -28.10046739 -80.04792328 -94.36261090
v -29.57660657 -80.41964494 4.36292754
v -26.64749250 -80.19176655 -94.36261090
v -25.96568724 -80.24186612 -94.36261090
v -28.77896233 -80.57156386 4.36292754
f 1 2 5
f 1 5 20
f 1 20 30
f 1 30 36
f 1 36 35
f 1 35 57
f 1 57 56
f 1 56 55
f 1 55 76
f 1 76 75
f 1 75 88
f 1 88 97
f 1 97 105
f 1 105 108
f 1 108 103
f 1 103 93
f 1 93 82
f 1 82 67
f 1 67 66
f 1 66 65
f 1 65 48
f 1 48 47
f 1 47 29
f 1 29 24
f 1 24 15
f 1 15 3
f 1 3 19
f 1 19 13
f 1 13 12
f 1 12 11
f 1 11 10
f 1 10 9
f 1 9 8
f 1 8 7
f 1 7 6
f 1 6 4
f 1 4 2
f 2 4 6
f 2 6 7
f 2 7 8
f 2 8 9
f 2 9 10
f 2 10 11
f 2 11 12
f 2 12 13
f 2 13 14
f 2 14 23
f 2 23 45
f 2 45 58
f 2 58 39
f 2 39 38
f 2 38 37
f 2 37 31
f 2 31 21
f 2 21 5
f 3 15 16
f 3 16 17
f 3 17 18
f 3 18 19
f 5 21 22
f 5 22 20
f 13 19 18
f 13 18 17
f 13 17 28
f 13 28 27
f 13 27 26
f 13 26 25
f 13 25 46
f 13 46 64
f 13 64 81
f 13 81 92
f 13 92 102
f 13 102 107
f 13 107 106
f 13 106 104
f 13 104 95
f 13 95 84
f 13 84 83
f 13 83 94
f 13 94 85
f 13 85 72
f 13 72 71
f 13 71 69
f 13 69 79
f 13 79 80
f 13 80 62
f 13 62 60
f 13 60 43
f 13 43 23
f 13 23 14
f 15 24 16
f 16 25 26
f 16 26 27
f 16 27 28
f 16 28 17
f 16 24 29
f 16 29 25
f 20 22 30
f 21 31 22
f 22 32 33
f 22 33 34
f 22 34 35
f 22 35 36
f 22 36 30
f 22 31 37
f 22 37 38
f 22 38 39
f 22 39 40
f 22 40 41
f 22 41 42
f 22 42 32
f 23 43 44
f 23 44 45
f 25 29 47
f 25 47 48
f 25 48 46
f 32 49 33
f 32 42 50
f 32 50 51
f 32 51 52
f 32 52 53
f 32 53 49
f 33 54 34
f 33 49 54
f 34 54 55
f 34 55 56
f 34 56 57
f 34 57 35
f 39 58 40
f 40 58 59
f 40 59 41
f 41 59 45
f 41 45 44
f 41 44 50
f 41 50 42
f 43 60 44
f 44 61 50
f 44 60 62
f 44 62 63
f 44 63 61
f 45 59 58
f 46 48 65
f 46 65 66
f 46 66 67
f 46 67 64
f 49 53 68
f 49 68 54
f 50 52 51
f 50 61 69
f 50 69 70
f 50 70 52
f 52 70 71
f 52 71 72
f 52 72 53
f 53 72 73
f 53 73 68
f 54 74 75
f 54 75 76
f 54 76 55
f 54 68 77
f 54 77 78
f 54 78 74
f 61 63 79
f 61 79 69
f 62 80 63
f 63 80 79
f 64 67 82
f 64 82 81
f 68 73 83
f 68 83 84
f 68 84 77
f 69 71 70
f 72 85 73
f 73 85 86
f 73 86 87
f 73 87 83
f 74 88 75
f 74 78 89
f 74 89 90
f 74 90 88
f 77 89 78
f 77 84 91
f 77 91 89
f 81 82 93
f 81 93 92
f 83 87 94
f 84 95 91
f 85 94 87
f 85 87 86
f 88 90 96
f 88 96 97
f 89 98 99
f 89 99 90
f 89 91 95
f 89 95 100
f 89 100 101
f 89 101 98
f 90 99 96
f 92 93 99
f 92 99 102
f 93 103 99
f 95 104 100
f 96 99 97
f 97 99 105
f 98 101 106
f 98 106 107
f 98 107 99
f 99 103 108
f 99 108 105
f 99 107 102
f 100 104 106
f 100 106 101

