# https://github.com/mikedh/trimesh
v -30.91264487 9.58852868 107.14234398
v -30.91264487 54.36322411 106.92100364
v -32.37904370 45.83716688 106.77008861
v -32.36988790 43.69273692 106.78015300
v -32.57741195 -41.56778449 106.86064271
v -30.91264487 -41.56778449 107.10209913
v -23.69815435 -5.31914430 106.39785231
v -29.45387692 54.36322411 106.68961161
v -30.09170766 64.95619832 106.38779427
v -31.03776989 64.95619832 106.50851612
v -31.06828711 64.95619832 106.50851612
v -32.05707534 64.95619832 106.49845173
v -32.25544359 54.36322411 106.65943115
v -32.37751880 47.96868278 106.74997254
v -33.14962719 47.96868278 105.36160767
v -34.21470846 -62.88290849 104.52657461
v -32.40651110 -67.01675518 106.67954722
v -31.23613814 -67.01675518 106.67954722
v -27.63194269 -42.74334531 106.43809081
v -24.51909155 -43.69929720 105.77409519
v -22.50794646 -43.69929720 104.92900409
v -22.38587284 -5.31914430 105.67348941
v -21.24602027 41.56122421 104.36560154
v -21.27196117 43.34394290 104.33542108
v -22.38587284 41.56122421 104.80826952
v -22.17377249 43.91234586 104.63723842
v -28.93659648 64.95619832 105.93506190
v -21.32078998 44.76495349 104.28512454
v -32.70406188 64.95619832 105.36160767
v -32.74068190 64.95619832 105.29118236
v -33.76914315 64.95619832 103.03759761
v -34.10179222 64.33612005 102.13214557
v -34.12315681 -37.71814245 104.33542108
v -34.18724423 -56.48837351 104.49639414
v -34.38866229 -62.88290849 103.22875749
v -34.62060075 -67.01675518 101.26693204
v -34.33067768 -67.01675518 103.37965980
v -34.32304997 -67.01675518 103.42996905
v -34.19640003 -64.65271629 104.46620733
v -33.59671740 -67.01675518 105.18051219
v -33.58603669 -65.23403650 105.25093750
v -34.33830857 64.95619832 101.27699008
v -34.71520856 62.88927498 98.96304440
v -33.25338762 -67.01675518 105.61312848
v -31.16594791 -67.01675518 106.65943115
v -24.51909155 -58.61988940 105.17046050
v -22.88331995 -58.61988940 104.64730281
v -22.15546248 -58.61988940 103.22875749
v -21.60155725 -41.56778449 103.22875749
v -21.24144237 -7.45065741 104.54669703
v -21.21855446 -5.31914430 104.62718039
v -21.09495593 1.06247662 104.55676142
v -21.02781552 1.06247662 103.22875749
v -21.20482076 41.56122421 103.22875749
v -21.25059817 43.91234586 103.44002709
v -21.60155725 64.95619832 101.09590094
v -26.46309940 64.95619832 104.74790860
v -21.62902306 64.95619832 101.14620383
v -22.51862717 64.95619832 102.69554176
v -24.71135699 64.95619832 103.86257264
v -33.81492215 64.95619832 102.90681136
v -34.30626327 64.95619832 101.39771829
v -34.63891234 -67.01675518 101.09590094
v -34.30168537 -67.01675518 103.53057483
v -34.12162873 -67.01675518 104.32536304
v -33.65317710 -67.01675518 105.08997079
v -34.70299976 64.95619832 98.96304440
v -34.84948620 58.62624319 96.83019421
v -30.16952878 -67.01675518 106.30730456
v -23.00844339 -60.75140530 104.57687750
v -24.51909155 -60.75140530 105.03966790
v -22.31720752 -60.75140530 103.22875749
v -22.12494367 -67.01675518 101.09590094
v -22.12647017 -67.01675518 4.36292436
v -22.12799508 64.95619832 4.36292436
v -22.12189227 64.95619832 5.16777697
v -34.88458450 -67.01675518 94.83818831
v -34.93646312 52.23170821 94.69733767
v -34.70452785 64.95619832 98.89261908
v -34.78692369 62.88927498 96.83019421
v -34.82354689 60.75775908 96.83019421
v -34.89831819 58.62624319 94.69733767
v -34.92272942 56.49472729 94.69733767
v -28.78247915 -67.01675518 105.78415323
v -26.64468254 -67.01675518 104.91893970
v -26.52413542 -67.01675518 104.86863680
v -25.36902265 -67.01675518 104.37566593
v -24.31462050 -67.01675518 103.87263703
v -24.19102197 -67.01675518 103.80221171
v -22.76124633 -67.01675518 102.80620558
v -34.95935262 -67.01675518 4.36292436
v -34.48937291 64.95619832 4.36292436
v -34.88916240 -67.01675518 94.69733767
v -34.98682002 50.10019549 92.56448113
v -34.95782772 -67.01675518 92.56448113
v -34.74877876 64.95619832 96.75976889
v -34.93799121 58.62624319 90.43163094
v -34.98986984 56.49472729 88.29878075
v -35.01886214 54.36322411 88.29878075
v -35.04480463 52.23170821 88.29878075
v -34.86017009 62.88927498 90.43163094
v -34.97918913 52.23170821 92.56448113
v -34.96087753 -67.01675518 4.42328847
v -35.03412393 -65.81535670 4.36292436
v -34.53667682 64.21985855 4.36292436
v -34.73962296 64.95619832 39.20289260
v -36.36929175 -13.84519557 22.22054586
v -35.05701025 -67.01675518 88.29878075
v -34.81439109 64.95619832 90.43163094
v -34.98986984 58.62624319 84.03306767
v -36.28231484 18.11458114 4.36292436
v -36.29452363 17.31364882 4.36292436
v -36.37691947 10.91910987 4.36292436
v -36.39370616 9.58852868 4.36292436
v -36.52798699 -3.18763118 4.36292436
v -36.54934840 -5.31914430 4.36292436
v -36.56613509 -7.45065741 4.36292436
v -36.55545121 -7.45065741 5.16777697
v -34.83117778 64.95619832 88.29878075
v -34.99292283 -67.01675518 7.30063033
v -35.09210854 -65.01442438 5.16777697
v -35.47510815 -58.61988940 4.36292436
v -34.75488157 64.95619832 41.33574915
v -34.61602285 62.88927498 4.36292436
v -36.57070982 -8.25158894 4.36292436
v -36.50662239 -13.84519557 11.55627585
v -36.61648881 -18.12113983 4.36292436
v -36.40438687 -15.98962711 20.08769249
v -36.35708296 -22.38416685 22.22054586
v -35.09515836 -67.01675518 86.16591785
v -36.19686282 22.37760657 5.16777697
v -36.26705623 19.03177655 4.36292436
v -34.84338340 64.95619832 84.03306767
v -36.05495428 28.77214472 4.36292436
v -36.07479079 27.98413282 4.36292436
v -36.10378310 26.64063201 5.16777697
v -36.15566490 24.50911929 4.36292436
v -34.99444774 -67.01675518 7.44147779
v -35.55140437 -57.28930583 4.36292436
v -35.01428424 -67.01675518 9.42342249
v -35.13483137 -67.01675518 24.49424986
v -35.26605920 -65.01442438 26.48625576
v -34.76556228 64.95619832 43.46859933
v -34.72741417 60.75775908 4.36292436
v -35.04480463 54.36322411 4.36292436
v -35.18976617 51.43077589 4.36292436
v -35.29505151 49.29926317 4.36292436
v -35.46290254 45.83716688 4.36292436
v -36.60275511 -20.25265413 4.36292436
v -36.59512740 -20.25265413 5.16777697
v -36.38607527 -22.38416685 20.08769249
v -36.39523107 -20.25265413 20.08769249
v -36.37539456 -24.51567957 20.08769249
v -36.34335244 -24.51567957 22.22054586
v -35.11194505 -67.01675518 84.03306767
v -36.35861105 -26.64719229 20.08769249
v -36.50051959 -26.64719229 7.30063033
v -36.46694938 -28.77870500 7.30063033
v -36.40591178 -33.04173044 5.16777697
v -36.17244842 23.72110580 4.36292436
v -36.19991582 22.37760657 4.36292436
v -36.21059652 21.84795850 4.36292436
v -34.84338340 64.95619832 81.83985020
v -35.79554843 37.29819877 4.36292436
v -35.86726992 35.16668605 4.36292436
v -35.93135417 33.03517334 4.36292436
v -35.95424366 32.24715825 4.36292436
v -36.10683609 26.64063201 4.36292436
v -36.12514451 25.85262010 4.36292436
v -35.59718336 -56.48837351 4.36292436
v -35.24927569 -67.01675518 41.40617129
v -34.77319317 64.95619832 45.60145588
v -35.55292927 43.69273692 4.36292436
v -34.77929598 64.95619832 47.73430924
v -36.52798699 -26.64719229 4.36292436
v -35.14398717 -67.01675518 79.77741897
v -36.48373290 -28.77870500 5.16777697
v -36.45016587 -30.91021772 4.36292436
v -36.41049285 -33.04173044 4.36292436
v -36.39523107 -33.82974552 4.36292436
v -36.36776685 -35.17324316 4.36292436
v -35.58497457 42.90472184 4.36292436
v -35.63838129 41.56122421 4.36292436
v -35.66889850 40.77320912 4.36292436
v -35.72078031 39.42971149 4.36292436
v -35.69941889 -54.35685762 4.36292436
v -35.25232550 -67.01675518 43.53902465
v -35.87795063 -50.09383536 4.36292436
v -35.79097371 -52.22534808 4.36292436
v -35.15619596 -67.01675518 77.78541942
v -36.31283205 -37.30475905 5.16777697
v -36.31740995 -37.30475905 4.36292436
v -35.24927569 -67.01675518 54.20329466
v -36.17397650 -42.36871681 4.36292436
v -35.16992966 -67.01675518 75.51171224
v -36.24111374 -40.41805814 4.36292436
v -35.18213527 -67.01675518 73.37885570
v -36.20449372 -41.49027470 4.36292436
f 1 2 3
f 1 3 4
f 1 4 5
f 1 5 6
f 1 6 7
f 1 7 2
f 2 8 9
f 2 9 10
f 2 10 11
f 2 11 12
f 2 12 13
f 2 13 14
f 2 14 3
f 2 7 8
f 3 14 15
f 3 15 16
f 3 16 5
f 3 5 4
f 5 16 17
f 5 17 6
f 6 17 18
f 6 18 7
f 7 18 19
f 7 19 20
f 7 20 21
f 7 21 22
f 7 22 23
f 7 23 24
f 7 24 25
f 7 25 8
f 8 25 26
f 8 26 9
f 9 27 57
f 9 57 60
f 9 60 59
f 9 59 58
f 9 58 56
f 9 56 76
f 9 76 75
f 9 75 92
f 9 92 106
f 9 106 123
f 9 123 143
f 9 143 172
f 9 172 174
f 9 174 163
f 9 163 133
f 9 133 119
f 9 119 109
f 9 109 96
f 9 96 79
f 9 79 67
f 9 67 42
f 9 42 62
f 9 62 61
f 9 61 31
f 9 31 30
f 9 30 29
f 9 29 12
f 9 12 11
f 9 11 10
f 9 26 28
f 9 28 27
f 12 29 13
f 13 29 14
f 14 29 15
f 15 29 30
f 15 30 31
f 15 31 32
f 15 32 33
f 15 33 34
f 15 34 16
f 16 35 36
f 16 36 37
f 16 37 38
f 16 38 39
f 16 39 40
f 16 40 41
f 16 41 17
f 16 34 42
f 16 42 43
f 16 43 35
f 17 41 44
f 17 44 40
f 17 40 66
f 17 66 65
f 17 65 64
f 17 64 38
f 17 38 37
f 17 37 36
f 17 36 63
f 17 63 77
f 17 77 93
f 17 93 95
f 17 95 108
f 17 108 130
f 17 130 155
f 17 155 176
f 17 176 190
f 17 190 195
f 17 195 197
f 17 197 193
f 17 193 187
f 17 187 171
f 17 171 141
f 17 141 140
f 17 140 138
f 17 138 120
f 17 120 103
f 17 103 91
f 17 91 74
f 17 74 73
f 17 73 90
f 17 90 89
f 17 89 88
f 17 88 87
f 17 87 86
f 17 86 85
f 17 85 84
f 17 84 69
f 17 69 45
f 17 45 18
f 18 45 46
f 18 46 20
f 18 20 19
f 20 46 47
f 20 47 21
f 21 47 48
f 21 48 49
f 21 49 50
f 21 50 51
f 21 51 22
f 22 51 52
f 22 52 23
f 23 52 53
f 23 53 54
f 23 54 24
f 24 54 55
f 24 55 56
f 24 56 28
f 24 28 26
f 24 26 25
f 27 28 57
f 28 56 58
f 28 58 59
f 28 59 60
f 28 60 57
f 31 61 32
f 32 61 62
f 32 62 33
f 33 62 42
f 33 42 34
f 35 43 36
f 36 43 63
f 38 64 39
f 39 64 65
f 39 65 66
f 39 66 40
f 40 44 41
f 42 67 43
f 43 67 68
f 43 68 63
f 45 69 70
f 45 70 71
f 45 71 46
f 46 71 70
f 46 70 47
f 47 70 48
f 48 70 72
f 48 72 73
f 48 73 49
f 49 51 50
f 49 73 74
f 49 74 53
f 49 53 52
f 49 52 51
f 53 75 54
f 53 74 75
f 54 75 76
f 54 76 56
f 54 56 55
f 63 68 78
f 63 78 77
f 67 79 80
f 67 80 81
f 67 81 68
f 68 81 82
f 68 82 83
f 68 83 78
f 69 84 70
f 70 84 85
f 70 85 86
f 70 86 87
f 70 87 88
f 70 88 89
f 70 89 90
f 70 90 72
f 72 90 73
f 74 91 104
f 74 104 122
f 74 122 139
f 74 139 170
f 74 170 186
f 74 186 189
f 74 189 188
f 74 188 194
f 74 194 198
f 74 198 196
f 74 196 192
f 74 192 181
f 74 181 180
f 74 180 179
f 74 179 178
f 74 178 175
f 74 175 149
f 74 149 127
f 74 127 125
f 74 125 117
f 74 117 116
f 74 116 115
f 74 115 114
f 74 114 113
f 74 113 112
f 74 112 111
f 74 111 132
f 74 132 162
f 74 162 161
f 74 161 160
f 74 160 137
f 74 137 169
f 74 169 168
f 74 168 135
f 74 135 134
f 74 134 167
f 74 167 166
f 74 166 165
f 74 165 164
f 74 164 185
f 74 185 184
f 74 184 183
f 74 183 182
f 74 182 173
f 74 173 148
f 74 148 147
f 74 147 146
f 74 146 145
f 74 145 144
f 74 144 124
f 74 124 105
f 74 105 92
f 74 92 75
f 77 78 93
f 78 83 94
f 78 94 95
f 78 95 93
f 79 96 80
f 80 82 81
f 80 96 82
f 82 97 98
f 82 98 99
f 82 99 100
f 82 100 83
f 82 96 101
f 82 101 97
f 83 100 102
f 83 102 94
f 91 103 104
f 92 105 106
f 94 102 107
f 94 107 108
f 94 108 95
f 96 109 101
f 97 101 110
f 97 110 98
f 98 110 111
f 98 111 112
f 98 112 99
f 99 112 113
f 99 113 114
f 99 114 100
f 100 114 115
f 100 115 116
f 100 116 117
f 100 117 118
f 100 118 107
f 100 107 102
f 101 109 119
f 101 119 110
f 103 120 104
f 104 120 121
f 104 121 122
f 105 123 106
f 105 124 123
f 107 118 117
f 107 117 125
f 107 125 126
f 107 126 127
f 107 127 128
f 107 128 129
f 107 129 108
f 108 129 130
f 110 119 131
f 110 131 132
f 110 132 111
f 119 133 134
f 119 134 135
f 119 135 136
f 119 136 137
f 119 137 131
f 120 138 122
f 120 122 121
f 122 138 140
f 122 140 141
f 122 141 142
f 122 142 139
f 123 124 144
f 123 144 145
f 123 145 146
f 123 146 147
f 123 147 148
f 123 148 143
f 125 127 126
f 127 149 150
f 127 150 151
f 127 151 152
f 127 152 128
f 128 152 129
f 129 152 151
f 129 151 153
f 129 153 154
f 129 154 130
f 130 154 153
f 130 153 156
f 130 156 157
f 130 157 158
f 130 158 159
f 130 159 155
f 131 137 160
f 131 160 161
f 131 161 162
f 131 162 132
f 133 163 164
f 133 164 165
f 133 165 166
f 133 166 167
f 133 167 134
f 135 168 136
f 136 168 169
f 136 169 137
f 139 142 170
f 141 171 142
f 142 171 170
f 143 148 172
f 148 173 174
f 148 174 172
f 149 175 157
f 149 157 150
f 150 153 151
f 150 157 156
f 150 156 153
f 155 159 176
f 157 175 158
f 158 175 177
f 158 177 159
f 159 177 175
f 159 175 178
f 159 178 179
f 159 179 180
f 159 180 181
f 159 181 176
f 163 174 182
f 163 182 183
f 163 183 184
f 163 184 185
f 163 185 164
f 170 171 186
f 171 187 188
f 171 188 189
f 171 189 186
f 173 182 174
f 176 181 191
f 176 191 190
f 181 192 191
f 187 193 194
f 187 194 188
f 190 191 195
f 191 192 196
f 191 196 195
f 193 197 196
f 193 196 198
f 193 198 194
f 195 196 197

