# https://github.com/mikedh/trimesh
v 33.21776514 64.42089221 96.83198598
v 33.16373576 65.02525758 96.83198598
v 32.73151975 67.15723095 98.96466462
v 32.90850434 65.02525758 98.96466462
v 32.91968382 64.42089221 98.96466462
v 29.87366811 64.42089221 4.36292754
v 29.87553294 65.02525758 4.36292754
v 29.84758584 66.82332700 4.36292754
v 29.82895655 67.90517273 4.36292754
v 29.78424498 69.28920431 4.36292754
v 29.71345115 71.37443291 4.36292754
v 29.62216319 73.55315105 4.36292754
v 29.49920480 75.68512441 4.36292754
v 32.86938411 67.15723095 96.83198598
v 29.27564381 77.81709778 4.36292754
v 32.33283583 69.28920431 98.96466462
v 31.99749593 70.43115681 100.14507656
v 32.11486616 69.28920431 100.46249879
v 32.29557725 67.15723095 100.73032340
v 32.33283583 65.02525758 100.69065039
v 32.31979469 64.42089221 100.67080752
v 17.48840641 64.42089221 4.36292754
v 32.39431502 69.28920431 96.83198598
v 29.29054978 77.81709778 5.16640137
v 28.41679995 79.54504687 4.36292754
v 32.03475768 70.57139113 98.96466462
v 31.02314349 73.55315105 101.09734325
v 29.82150674 76.54993130 104.02357747
v 31.65097655 71.25422571 100.94855039
v 31.75530565 71.63654547 98.96466462
v 31.81678484 69.28920431 101.52387898
v 31.79256423 67.15723095 101.79170994
v 31.74039968 65.02525758 101.76194883
v 31.72549688 64.42089221 101.73218772
v 14.18716246 68.62306747 4.36292754
v 17.03197137 64.42089221 10.19555947
v 32.05152214 70.62314904 96.83198598
v 28.43542923 79.53336226 5.16640137
v 29.31104073 77.81709778 7.29908319
v 26.64880615 80.39984020 4.36292754
v 26.64880615 80.55343652 13.68720402
v 26.64880615 80.57179895 22.21792492
v 28.35159426 79.59680477 11.56444364
v 29.87366811 76.82039909 102.60509568
v 31.13865206 73.55315105 98.96466462
v 29.33712300 77.64513903 103.27962586
v 27.97526612 79.11765338 104.48979256
v 28.42424975 77.81709778 104.76754178
v 29.89230058 75.12750381 104.33108780
v 31.76275864 71.68996807 96.83198598
v 31.20571941 73.55315105 96.83198598
v 30.76045908 67.15723095 103.23002824
v 29.92955915 73.55315105 104.37076081
v 30.79212951 69.28920431 103.23002824
v 30.52013046 64.82491648 103.43833063
v 31.42368907 64.42089221 102.15872344
v 14.18716246 81.02256800 4.36292754
v 16.95931429 64.42089221 11.14782616
v 16.92764386 64.42089221 11.56444364
v 16.77115022 64.42089221 13.68720402
v 16.67054761 64.42089221 15.21479931
v 16.63142420 64.42089221 15.81988583
v 16.54386273 64.42089221 17.34747794
v 16.51219231 64.42089221 17.95256447
v 16.40227506 64.42089221 20.08524628
v 16.29608430 64.42089221 22.21792492
v 16.20479634 64.42089221 24.35060673
v 14.18716246 65.14379373 84.03590145
v 28.44101739 79.52000661 9.43176182
v 29.87366811 76.82039909 102.01984883
v 25.31303153 80.55343652 4.36292754
v 24.51752852 80.81889117 15.81988583
v 24.51752852 80.83391786 22.21792492
v 19.44642594 81.06097026 102.28767345
v 26.64880615 80.50502070 35.01400945
v 28.31060919 79.56174461 35.01400945
v 28.16343019 79.22616962 103.23002824
v 26.64880615 79.27792753 104.60882431
v 26.64880615 77.81709778 105.14447353
v 26.64880615 79.70532101 103.23002824
v 28.97756249 75.77694927 104.82705130
v 29.91838285 71.42284872 104.36084256
v 29.86435347 65.40089951 104.31124494
v 29.85131233 64.42089221 104.29140208
v 30.19783170 64.42089221 103.84502985
v 28.78008378 73.55315105 105.01552353
v 28.78008378 71.42284872 105.04528465
v 28.78008378 69.28920431 105.03536639
v 30.54062459 64.42089221 103.37882110
v 14.35296916 81.01923226 4.36292754
v 14.18716246 81.02423904 4.59107278
v 16.15077014 64.42089221 26.48328537
v 14.18716246 65.13377382 84.36324194
v 24.51752852 80.63190572 4.36292754
v 18.12182921 80.90236716 4.36292754
v 15.99055000 80.97582323 4.36292754
v 14.74978984 81.01088339 4.36292754
v 14.18716246 81.47667914 101.09734325
v 15.99055000 81.41991445 101.09734325
v 18.26155523 81.20287562 101.02790912
v 18.12182921 81.16280867 102.48606393
v 15.99055000 80.50669175 103.73591635
v 22.38624930 79.39312159 104.65842193
v 15.99055000 81.21623762 102.67453616
v 26.64880615 75.68512441 105.31310926
v 20.25497009 79.41148402 104.64851003
v 15.99055000 79.44153741 104.55922669
v 28.78008378 67.15723095 105.00560528
v 28.93843908 64.42089221 104.86673702
v 29.40046703 64.42089221 104.57906955
v 26.64880615 69.28920431 105.66028625
v 26.64880615 67.15723095 105.69996562
v 16.13027601 64.42089221 28.01088066
v 14.18716246 65.12376026 86.16858009
v 16.12282462 64.42089221 28.61596718
v 14.18716246 81.24795570 102.78364965
v 14.18716246 80.08764077 103.90454572
v 14.18716246 79.35973247 104.37076081
v 14.25981795 79.27291439 104.43027669
v 26.64880615 64.42089221 105.38254339
v 14.25981795 78.19106867 104.43027669
v 14.18716246 78.11927729 104.41044018
v 17.93739163 64.42089221 88.30125872
v 18.10506317 64.42089221 90.01732624
v 14.18716246 65.13210913 86.49592057
v 16.11723488 64.42089221 30.74864582
v 16.13586416 64.42089221 32.88132763
v 16.15822153 64.42089221 34.40892292
v 16.16753618 64.42089221 35.01400945
v 16.19734336 64.42089221 36.54160473
v 16.21038449 64.42089221 37.14668808
v 16.24950791 64.42089221 38.67428337
v 16.31285193 64.42089221 40.80696201
v 14.18716246 79.06422443 104.41044018
v 14.18716246 77.67352137 104.34099970
v 14.18716246 75.85708316 103.99382271
v 14.18716246 69.92695881 102.58525917
v 25.32793592 64.42089221 104.70801955
v 18.17213052 64.42089221 90.43394372
v 14.18716246 65.25064528 88.30125872
v 14.18716246 69.10054782 101.09734325
v 14.18716246 68.42773316 99.02418049
v 20.64433937 64.42089221 97.02045186
v 18.52423804 64.42089221 91.60443740
v 19.73519261 64.42089221 94.75882322
v 14.18716246 65.30740361 88.62860556
v 14.18716246 65.82996405 90.79103896
v 14.18716246 65.76652153 90.58273658
f 1 2 3
f 1 3 4
f 1 4 5
f 1 5 21
f 1 21 34
f 1 34 56
f 1 56 89
f 1 89 85
f 1 85 84
f 1 84 110
f 1 110 109
f 1 109 120
f 1 120 138
f 1 138 143
f 1 143 145
f 1 145 144
f 1 144 139
f 1 139 124
f 1 124 123
f 1 123 133
f 1 133 132
f 1 132 131
f 1 131 130
f 1 130 129
f 1 129 128
f 1 128 127
f 1 127 126
f 1 126 115
f 1 115 113
f 1 113 92
f 1 92 67
f 1 67 66
f 1 66 65
f 1 65 64
f 1 64 63
f 1 63 62
f 1 62 61
f 1 61 60
f 1 60 59
f 1 59 58
f 1 58 36
f 1 36 22
f 1 22 6
f 1 6 7
f 1 7 8
f 1 8 9
f 1 9 10
f 1 10 11
f 1 11 12
f 1 12 13
f 1 13 2
f 2 14 3
f 2 13 15
f 2 15 14
f 3 14 16
f 3 16 17
f 3 17 18
f 3 18 19
f 3 19 4
f 4 19 5
f 5 19 20
f 5 20 21
f 6 22 35
f 6 35 57
f 6 57 90
f 6 90 97
f 6 97 96
f 6 96 95
f 6 95 94
f 6 94 71
f 6 71 40
f 6 40 25
f 6 25 15
f 6 15 13
f 6 13 12
f 6 12 11
f 6 11 10
f 6 10 9
f 6 9 8
f 6 8 7
f 14 23 16
f 14 15 24
f 14 24 23
f 15 25 24
f 16 23 26
f 16 26 17
f 17 27 28
f 17 28 29
f 17 29 18
f 17 26 30
f 17 30 27
f 18 29 31
f 18 31 19
f 19 31 32
f 19 32 20
f 20 32 33
f 20 33 21
f 21 33 34
f 22 36 35
f 23 37 26
f 23 24 37
f 24 25 38
f 24 38 39
f 24 39 37
f 25 40 41
f 25 41 42
f 25 42 43
f 25 43 38
f 26 37 30
f 27 44 28
f 27 30 45
f 27 45 44
f 28 46 47
f 28 47 48
f 28 48 49
f 28 49 31
f 28 31 29
f 28 44 46
f 30 37 50
f 30 50 51
f 30 51 45
f 31 49 32
f 32 52 33
f 32 49 53
f 32 53 54
f 32 54 52
f 33 52 55
f 33 55 56
f 33 56 34
f 35 36 58
f 35 58 59
f 35 59 60
f 35 60 61
f 35 61 62
f 35 62 63
f 35 63 64
f 35 64 65
f 35 65 66
f 35 66 67
f 35 67 68
f 35 68 93
f 35 93 114
f 35 114 125
f 35 125 140
f 35 140 146
f 35 146 148
f 35 148 147
f 35 147 142
f 35 142 141
f 35 141 137
f 35 137 136
f 35 136 135
f 35 135 122
f 35 122 134
f 35 134 118
f 35 118 117
f 35 117 116
f 35 116 98
f 35 98 91
f 35 91 57
f 37 39 50
f 38 43 69
f 38 69 44
f 38 44 70
f 38 70 39
f 39 70 51
f 39 51 50
f 40 71 41
f 41 71 72
f 41 72 73
f 41 73 42
f 42 73 74
f 42 74 75
f 42 75 76
f 42 76 43
f 43 76 69
f 44 45 51
f 44 51 70
f 44 69 46
f 46 77 47
f 46 69 76
f 46 76 77
f 47 78 79
f 47 79 48
f 47 77 80
f 47 80 78
f 48 79 81
f 48 81 49
f 49 81 53
f 52 54 82
f 52 82 83
f 52 83 84
f 52 84 85
f 52 85 55
f 53 81 86
f 53 86 87
f 53 87 88
f 53 88 82
f 53 82 54
f 55 85 89
f 55 89 56
f 57 91 90
f 67 92 68
f 68 92 93
f 71 94 72
f 72 94 95
f 72 95 96
f 72 96 97
f 72 97 98
f 72 98 99
f 72 99 73
f 73 99 100
f 73 100 74
f 74 100 99
f 74 99 101
f 74 101 78
f 74 78 80
f 74 80 75
f 75 80 77
f 75 77 76
f 78 102 103
f 78 103 79
f 78 101 104
f 78 104 102
f 79 105 81
f 79 103 106
f 79 106 107
f 79 107 105
f 81 105 86
f 82 88 83
f 83 88 108
f 83 108 109
f 83 109 110
f 83 110 84
f 86 105 111
f 86 111 112
f 86 112 87
f 87 112 88
f 88 112 108
f 90 91 97
f 91 98 97
f 92 113 93
f 93 113 115
f 93 115 114
f 98 116 104
f 98 104 99
f 99 104 101
f 102 117 107
f 102 107 106
f 102 106 103
f 102 104 116
f 102 116 117
f 105 107 111
f 107 118 119
f 107 119 111
f 107 117 118
f 108 112 109
f 109 112 120
f 111 119 112
f 112 119 121
f 112 121 122
f 112 122 120
f 114 123 124
f 114 124 125
f 114 115 126
f 114 126 127
f 114 127 128
f 114 128 129
f 114 129 130
f 114 130 131
f 114 131 132
f 114 132 133
f 114 133 123
f 118 134 119
f 119 134 122
f 119 122 121
f 120 122 135
f 120 135 136
f 120 136 137
f 120 137 138
f 124 139 125
f 125 139 140
f 137 141 138
f 138 141 142
f 138 142 143
f 139 144 140
f 140 144 145
f 140 145 143
f 140 143 146
f 142 147 143
f 143 147 148
f 143 148 146

