# https://github.com/mikedh/trimesh
v -1.27373788 81.34680784 4.35343499
v -3.19823009 81.37703278 4.35343499
v -1.27373788 69.00269958 4.35343499
v -1.27373788 81.51663807 -92.61809115
v -1.36112461 81.51951634 -92.61809115
v -18.12148452 81.97286502 -92.61809115
v -21.56134099 81.66919238 0.88846997
v -5.33125897 81.40581541 4.35343499
v -1.27373788 68.92066591 -14.03460656
v -21.56134099 68.56805643 4.35343499
v -21.56134099 67.38934095 -26.99262357
v -1.27373788 69.03580279 -92.61809115
v -18.41343603 81.97286502 -92.61809115
v -21.56134099 81.60442828 3.02440809
v -11.72438579 81.47633604 4.35343499
v -9.59532961 81.45618819 4.35343499
v -7.46230072 81.43171978 4.35343499
v -20.25252706 81.95127487 -92.61809115
v -20.54646412 81.94264008 -92.61809115
v -21.56134099 81.90522266 -91.60233747
v -21.56134099 67.38358442 -28.80579594
v -21.56134099 67.27852464 -63.10419005
v -1.27373788 68.88036387 -58.79434360
v -21.56134099 81.55117723 4.35343499
v -21.56134099 67.27132581 -92.60859860
v -11.36093677 68.82567687 -92.61809115
v -1.27373788 68.90483228 -71.59098090
v -20.25252706 81.54973492 4.35343499
v -21.56134099 81.90378035 -92.61809115
v -1.27373788 68.88036387 -60.93028172
v -21.56134099 69.16533098 -92.61809115
v -20.25252706 68.65872490 -92.61809115
v -1.27373788 68.89188327 -69.45504278
v -1.27373788 68.88612039 -67.31911100
f 1 2 8
f 1 8 17
f 1 17 16
f 1 16 15
f 1 15 28
f 1 28 24
f 1 24 10
f 1 10 3
f 1 3 9
f 1 9 23
f 1 23 30
f 1 30 34
f 1 34 33
f 1 33 27
f 1 27 12
f 1 12 4
f 1 4 5
f 1 5 6
f 1 6 2
f 2 7 8
f 2 6 7
f 3 10 11
f 3 11 9
f 4 12 26
f 4 26 32
f 4 32 31
f 4 31 29
f 4 29 19
f 4 19 18
f 4 18 13
f 4 13 6
f 4 6 5
f 6 13 7
f 7 14 15
f 7 15 16
f 7 16 17
f 7 17 8
f 7 13 18
f 7 18 19
f 7 19 20
f 7 20 29
f 7 29 31
f 7 31 25
f 7 25 22
f 7 22 21
f 7 21 11
f 7 11 10
f 7 10 24
f 7 24 14
f 9 11 21
f 9 21 22
f 9 22 23
f 12 25 26
f 12 27 25
f 14 24 28
f 14 28 15
f 19 29 20
f 22 25 23
f 23 25 30
f 25 31 32
f 25 32 26
f 25 27 33
f 25 33 34
f 25 34 30

