# https://github.com/mikedh/trimesh
v 28.60189514 49.99452892 43.37105925
v 29.83265763 45.82583173 4.36674299
v 29.84338599 49.99452892 4.36674299
v 16.21306261 49.99452892 43.37105925
v 28.41797222 -3.20848350 43.37105925
v 29.82499179 43.70240420 4.36674299
v 17.42543090 49.99452892 4.36674299
v 16.07205472 49.99452892 41.40060537
v 16.21153135 49.92939631 43.37105925
v 28.35666458 -18.11158056 43.37105925
v 29.81579469 42.24335987 4.36674299
v 28.04552624 -77.81515352 43.37105925
v 17.33959925 49.99452892 5.16103402
v 14.18683206 -69.30840544 4.36674299
v 16.06592491 49.99452892 41.29368076
v 15.84368233 43.70240420 39.26976298
v 14.18683206 -69.21721596 43.37105925
v 28.79808404 -77.81515352 4.36674299
v 27.88306003 -79.69106948 43.37105925
v 16.54566085 49.99452892 13.58129283
v 14.18683206 -81.86661073 4.36674299
v 14.18683206 -68.26623273 18.92748875
v 14.70641733 -7.46837255 24.34624010
v 14.72940691 -5.33191421 24.34624010
v 15.49116022 33.03314013 24.34624010
v 15.84368233 49.99452892 24.23931548
v 15.88659895 47.96229087 22.21539929
v 15.93717664 49.99452892 22.10847468
v 16.00614853 47.96229087 20.08455849
v 16.05519496 49.99452892 20.08455849
v 16.20693280 49.99452892 17.95371768
v 16.21459705 49.99452892 17.84679307
v 16.36173475 49.99452892 15.81905667
v 16.53646375 49.99452892 13.68821745
v 15.96170065 49.99452892 39.26976298
v 15.88046755 45.82583173 39.26976298
v 15.74712232 43.70240420 37.13510514
v 15.71033710 41.56594507 37.13510514
v 14.18683206 -69.19116546 42.99300606
v 14.18683206 -82.33558972 43.37105925
v 15.55859926 37.30605840 35.00426275
v 15.52487974 35.16959291 35.00426275
v 15.46817065 35.16959291 32.87342353
v 14.71408158 -7.46837255 26.47708090
v 28.55898170 -79.14392627 4.36674299
v 27.86466584 -79.76923371 43.37105925
v 28.41030956 -79.93858741 4.36674299
v 23.72024009 -81.94477495 4.36674299
v 22.38525653 -82.73942974 13.68821745
v 22.38525653 -82.90878344 15.81905667
v 14.18683206 -82.30953286 11.88578536
v 14.18683206 -68.07082217 22.27268022
v 14.18683206 -68.08385378 23.54812886
v 14.18683206 -68.40952957 30.82659402
v 15.43598398 35.16959291 30.74258114
v 15.39153451 33.03314013 28.60792330
v 15.42065707 33.03314013 26.47708090
v 15.76091638 49.99452892 26.47708090
v 15.86667349 49.99452892 37.13510514
v 15.86207494 49.99452892 37.02818052
v 15.79003735 49.99452892 35.00426275
v 15.59691733 39.42948593 35.00426275
v 14.18683206 -82.53099393 39.26976298
v 15.99082162 -82.57007604 39.26976298
v 15.99082162 -82.46586131 41.40060537
v 15.85594354 -82.36164023 43.37105925
v 15.50648713 37.30605840 32.87342353
v 27.61636957 -80.75929905 43.37105925
v 28.09457108 -80.70719169 4.36674299
v 24.51724419 -81.93174335 4.36674299
v 24.51724419 -82.00990757 5.16103402
v 24.51724419 -82.45282970 11.55737585
v 24.51724419 -82.73942974 17.95371768
v 22.38525653 -82.97392241 17.95371768
v 20.25480012 -83.09116239 22.21539929
v 18.12281087 -83.01300452 22.21539929
v 14.18683206 -82.73942974 20.08455849
v 14.18683206 -82.63521501 17.95371768
v 14.18683206 -82.54402553 16.14746776
v 15.73945807 49.99452892 32.87342353
v 15.73792681 49.99452892 32.76649891
v 15.71340280 49.99452892 30.74258114
v 15.71340280 49.99452892 30.63565652
v 15.71493565 49.99452892 28.60792330
v 15.78697165 49.99452892 34.89734131
v 14.18683206 -82.60915815 37.13510514
v 15.99082162 -82.66126551 37.13510514
v 18.12281087 -82.66126551 37.13510514
v 18.12281087 -82.55705079 39.26976298
v 18.12281087 -82.34861497 43.37105925
v 15.99082162 -82.36164023 43.37105925
v 26.55114058 -81.46276436 43.37105925
v 27.88306003 -81.18919593 4.36674299
v 26.64923344 -81.64514967 4.36674299
v 22.38525653 -82.99997292 22.21539929
v 22.38525653 -83.01300452 20.08455849
v 24.51724419 -82.66126551 26.47708090
v 18.12281087 -83.05208028 24.34624010
v 15.99082162 -82.99997292 24.34624010
v 22.38525653 -82.75245499 32.87342353
v 14.18683206 -82.92180869 24.34624010
v 14.18683206 -82.89575819 28.60792330
v 15.99082162 -82.72640449 35.00426275
v 22.38525653 -82.67429712 35.00426275
v 20.25480012 -82.62218340 37.13510514
v 20.25480012 -82.51796867 39.26976298
v 20.25480012 -82.30953286 43.37105925
v 26.37334747 -81.63211806 37.13510514
v 26.40093559 -81.51487808 43.37105925
v 24.51724419 -82.50494342 35.00426275
v 15.99082162 -82.98694766 26.47708090
v 14.18683206 -82.94786555 26.47708090
v 22.38525653 -82.58310764 37.13510514
v 22.38525653 -82.23136864 43.37105925
v 24.51724419 -82.04898968 43.37105925
v 24.51724419 -82.41375394 37.13510514
f 1 2 3
f 1 3 7
f 1 7 13
f 1 13 20
f 1 20 34
f 1 34 33
f 1 33 32
f 1 32 31
f 1 31 30
f 1 30 28
f 1 28 26
f 1 26 58
f 1 58 84
f 1 84 83
f 1 83 82
f 1 82 81
f 1 81 80
f 1 80 85
f 1 85 61
f 1 61 60
f 1 60 59
f 1 59 35
f 1 35 15
f 1 15 8
f 1 8 4
f 1 4 9
f 1 9 17
f 1 17 40
f 1 40 66
f 1 66 91
f 1 91 90
f 1 90 107
f 1 107 114
f 1 114 115
f 1 115 109
f 1 109 92
f 1 92 68
f 1 68 46
f 1 46 19
f 1 19 12
f 1 12 10
f 1 10 5
f 1 5 2
f 2 5 6
f 2 6 11
f 2 11 18
f 2 18 45
f 2 45 47
f 2 47 69
f 2 69 93
f 2 93 94
f 2 94 70
f 2 70 48
f 2 48 21
f 2 21 14
f 2 14 7
f 2 7 3
f 4 8 9
f 5 10 6
f 6 10 12
f 6 12 11
f 7 14 13
f 8 15 16
f 8 16 17
f 8 17 9
f 11 12 18
f 12 19 18
f 13 14 20
f 14 21 51
f 14 51 79
f 14 79 78
f 14 78 77
f 14 77 101
f 14 101 112
f 14 112 102
f 14 102 86
f 14 86 63
f 14 63 40
f 14 40 17
f 14 17 39
f 14 39 54
f 14 54 53
f 14 53 52
f 14 52 22
f 14 22 23
f 14 23 24
f 14 24 25
f 14 25 26
f 14 26 27
f 14 27 28
f 14 28 29
f 14 29 30
f 14 30 31
f 14 31 32
f 14 32 33
f 14 33 34
f 14 34 20
f 15 35 36
f 15 36 16
f 16 36 37
f 16 37 38
f 16 38 17
f 17 38 41
f 17 41 42
f 17 42 43
f 17 43 44
f 17 44 23
f 17 23 39
f 18 19 45
f 19 46 47
f 19 47 45
f 21 48 49
f 21 49 50
f 21 50 51
f 22 52 23
f 23 44 24
f 23 52 53
f 23 53 54
f 23 54 39
f 24 44 55
f 24 55 56
f 24 56 57
f 24 57 25
f 25 57 58
f 25 58 26
f 26 28 27
f 28 30 29
f 35 59 36
f 36 59 37
f 37 59 60
f 37 60 61
f 37 61 62
f 37 62 41
f 37 41 38
f 40 63 64
f 40 64 65
f 40 65 66
f 41 67 43
f 41 43 42
f 41 62 67
f 43 67 55
f 43 55 44
f 46 68 47
f 47 68 69
f 48 70 71
f 48 71 49
f 49 71 50
f 50 71 72
f 50 72 73
f 50 73 74
f 50 74 75
f 50 75 76
f 50 76 77
f 50 77 78
f 50 78 79
f 50 79 51
f 55 67 80
f 55 80 81
f 55 81 82
f 55 82 56
f 56 82 83
f 56 83 84
f 56 84 57
f 57 84 58
f 61 85 62
f 62 85 67
f 63 86 87
f 63 87 64
f 64 87 88
f 64 88 89
f 64 89 65
f 65 89 90
f 65 90 91
f 65 91 66
f 67 85 80
f 68 92 93
f 68 93 69
f 70 94 71
f 71 94 72
f 72 94 73
f 73 95 96
f 73 96 74
f 73 94 93
f 73 93 97
f 73 97 95
f 74 96 75
f 75 98 99
f 75 99 76
f 75 96 95
f 75 95 100
f 75 100 98
f 76 99 101
f 76 101 77
f 86 102 87
f 87 102 103
f 87 103 88
f 88 104 105
f 88 105 106
f 88 106 89
f 88 103 98
f 88 98 100
f 88 100 104
f 89 106 107
f 89 107 90
f 92 108 93
f 92 109 110
f 92 110 97
f 92 97 108
f 93 108 97
f 95 97 110
f 95 110 100
f 98 111 112
f 98 112 99
f 98 103 111
f 99 112 101
f 100 110 104
f 102 112 111
f 102 111 103
f 104 110 116
f 104 116 113
f 104 113 105
f 105 113 106
f 106 113 107
f 107 113 114
f 109 115 116
f 109 116 110
f 113 116 114
f 114 116 115

