# https://github.com/mikedh/trimesh
v 14.18529921 79.06414183 104.41720696
v 14.18529921 78.11794935 104.41720696
v 14.18529921 79.35961175 104.36804775
v -14.39842570 81.19396126 104.41720696
v -20.24999984 81.19220127 104.48603748
v 5.32704086 73.55406599 104.81050605
v 5.32704086 71.81820009 104.66302207
v 14.18529921 77.67299401 104.34838280
v 14.18529921 80.08772337 103.90592449
v -6.38621907 81.01632859 104.28938793
v -20.24999984 81.24672307 104.47620818
v -15.98940632 82.12432647 103.22749308
v -20.24999984 82.26677826 103.21766378
v -20.24999984 79.88194980 104.51553809
v 3.90459669 72.02924731 104.60402085
v -9.59177546 71.57197834 102.89318885
v -20.24999984 69.85195241 100.50392545
v 5.32704086 70.75065673 103.72893990
v 9.59100506 69.97330329 102.96201302
v 11.72467171 69.87305332 102.82436469
v 9.59100506 71.42248656 103.98458431
v 6.98206600 72.05386821 104.46637252
v -20.24999984 79.71487075 104.49586678
v -20.24999984 78.89002915 104.33854714
v 14.18529921 75.85799175 103.99441361
v 14.18529921 81.24847671 102.78503478
v 11.72467171 81.36279395 102.89318885
v -9.59177546 82.72932723 101.09386138
v -18.11970387 82.94388808 101.09386138
v -20.24999984 82.95444172 101.09386138
v -9.59177546 73.55406599 103.65028008
v -11.72544290 71.73202375 102.68671001
v 14.18529921 68.42914370 99.01923725
v 14.18529921 69.10097353 101.09386138
v 11.72467171 69.16956260 101.09386138
v -20.24999984 71.42248656 101.27085233
v -20.24999984 69.44392525 98.96023603
v 11.72467171 65.78929984 90.31758056
v 14.18529921 65.76643258 90.58305427
v 14.18529921 65.82974802 90.78953311
v 14.18529921 69.92581513 102.57855593
v 11.72467171 71.42248656 103.57162661
v 14.18529921 81.47535755 101.09386138
v 11.72467171 81.65474388 101.09386138
v 7.46070830 81.92910653 101.09386138
v -3.19751568 82.47079184 101.09386138
v 14.18529921 81.02336222 4.36292119
v 13.68306135 81.03567585 4.36292119
v 9.59100506 81.13240583 4.36292119
v 7.46070830 81.17812764 4.36292119
v 3.19674449 81.26255034 4.36292119
v 1.06307745 81.30475851 4.36292119
v -0.27172861 81.32937942 4.36292119
v -1.06721912 81.34345304 4.36292119
v -2.40202518 81.36455395 4.36292119
v -3.19751568 81.37686758 4.36292119
v -5.32781205 81.40500848 4.36292119
v -6.66261850 81.42259575 4.36292119
v -9.59177546 81.45601029 4.36292119
v -10.92658192 81.46831756 4.36292119
v -13.06024936 81.48766483 4.36292119
v -13.85573967 81.49469847 4.36292119
v -20.24999984 81.55098026 4.36292119
v -20.24999984 67.75027388 90.43557028
v 9.59100506 65.39885995 88.30194493
v 14.18529921 65.30740997 88.62640716
v 14.18529921 68.62260365 4.36292119
v -20.24999984 81.51580573 4.36292119
v -20.24999984 67.44425669 88.30194493
v -9.59177546 66.40309423 86.16831323
v 9.59100506 65.09108276 86.16831323
v 13.85496927 65.25816181 88.30194493
v 14.18529921 65.25112817 88.30194493
v -20.24999984 69.03062445 4.37275366
v -18.91519418 69.12559443 4.36292119
v 14.18529921 65.14384456 84.03468788
v 11.72467171 65.09108276 81.90106253
v 9.59100506 65.03304732 81.90106253
v 7.46070830 65.05766822 81.90106253
v -20.24999984 67.32641945 86.16831323
v -9.59177546 66.23601518 84.03468788
v -1.06721912 65.44282812 81.90106253
v -1.06721912 65.62573444 84.03468788
v 14.18529921 65.13153729 86.49278181
v 7.46070830 65.04535459 84.03468788
v 9.59100506 64.98731915 84.03468788
v -7.46147949 65.90185709 79.77726648
v -8.77606107 66.04255523 78.40073236
v -18.11970387 66.94125955 79.77726648
v -20.24999984 67.18396766 79.77726648
v 14.18529921 65.13329093 84.36899211
v 11.72467171 65.05239458 84.03468788
v -20.24999984 67.18572130 81.90106253
v -18.11970387 66.95884682 81.90106253
v 14.18529921 65.12449730 86.16831323
f 1 2 8
f 1 8 25
f 1 25 41
f 1 41 34
f 1 34 33
f 1 33 40
f 1 40 39
f 1 39 66
f 1 66 73
f 1 73 84
f 1 84 95
f 1 95 91
f 1 91 76
f 1 76 67
f 1 67 47
f 1 47 43
f 1 43 26
f 1 26 9
f 1 9 3
f 1 3 4
f 1 4 5
f 1 5 6
f 1 6 2
f 2 6 7
f 2 7 8
f 3 9 10
f 3 10 4
f 4 11 5
f 4 10 12
f 4 12 13
f 4 13 11
f 5 14 6
f 5 11 13
f 5 13 30
f 5 30 63
f 5 63 68
f 5 68 74
f 5 74 90
f 5 90 93
f 5 93 80
f 5 80 69
f 5 69 64
f 5 64 37
f 5 37 17
f 5 17 36
f 5 36 24
f 5 24 23
f 5 23 14
f 6 14 7
f 7 15 16
f 7 16 17
f 7 17 18
f 7 18 19
f 7 19 20
f 7 20 21
f 7 21 22
f 7 22 8
f 7 14 23
f 7 23 24
f 7 24 15
f 8 22 21
f 8 21 25
f 9 26 27
f 9 27 10
f 10 27 12
f 12 27 13
f 13 27 28
f 13 28 29
f 13 29 30
f 15 24 31
f 15 31 16
f 16 31 32
f 16 32 17
f 17 33 34
f 17 34 35
f 17 35 19
f 17 19 18
f 17 32 36
f 17 37 38
f 17 38 39
f 17 39 40
f 17 40 33
f 19 35 34
f 19 34 20
f 20 41 21
f 20 34 41
f 21 41 42
f 21 42 25
f 24 32 31
f 24 36 32
f 25 42 41
f 26 43 44
f 26 44 45
f 26 45 27
f 27 45 46
f 27 46 28
f 28 46 47
f 28 47 29
f 29 47 48
f 29 48 49
f 29 49 50
f 29 50 51
f 29 51 52
f 29 52 53
f 29 53 54
f 29 54 55
f 29 55 56
f 29 56 57
f 29 57 58
f 29 58 59
f 29 59 60
f 29 60 61
f 29 61 62
f 29 62 63
f 29 63 30
f 37 64 65
f 37 65 38
f 38 65 66
f 38 66 39
f 43 47 44
f 44 47 45
f 45 47 46
f 47 67 75
f 47 75 68
f 47 68 63
f 47 63 62
f 47 62 61
f 47 61 60
f 47 60 59
f 47 59 58
f 47 58 57
f 47 57 56
f 47 56 55
f 47 55 54
f 47 54 53
f 47 53 52
f 47 52 51
f 47 51 50
f 47 50 49
f 47 49 48
f 64 69 70
f 64 70 65
f 65 70 71
f 65 71 72
f 65 72 66
f 66 72 73
f 67 74 75
f 67 76 77
f 67 77 78
f 67 78 79
f 67 79 74
f 68 75 74
f 69 80 81
f 69 81 70
f 70 81 82
f 70 82 83
f 70 83 71
f 71 84 73
f 71 73 72
f 71 83 85
f 71 85 86
f 71 86 84
f 74 79 82
f 74 82 87
f 74 87 88
f 74 88 89
f 74 89 90
f 76 91 77
f 77 91 92
f 77 92 86
f 77 86 78
f 78 86 79
f 79 86 85
f 79 85 82
f 80 93 94
f 80 94 81
f 81 94 87
f 81 87 82
f 82 85 83
f 84 86 95
f 86 92 95
f 87 94 89
f 87 89 88
f 89 94 93
f 89 93 90
f 91 95 92

