# https://github.com/mikedh/trimesh
v 34.12797616 -68.33959985 -98.07128793
v 32.01424767 -76.86702949 -102.37413887
v 32.01424767 -76.86702949 -102.59366839
v 34.12451017 -68.33959985 -98.32374910
v 29.86240603 -68.33959985 -10.54338136
v 29.05849696 -77.81704060 0.89429956
v 29.15205322 -77.81704060 -1.24614657
v 29.68568512 -77.81704060 -14.03395848
v 30.45494066 -79.51586395 -101.43014480
v 29.88319561 -78.94958950 -35.84458533
v 29.89705638 -78.97490296 -37.49108529
v 30.31633927 -79.37062920 -103.57059411
v 31.27964248 -77.67314014 -103.40594221
v 30.22624264 -77.81704060 -104.88779027
v 31.39052868 -75.68384730 -103.77915065
v 32.08355155 -75.68384730 -102.71441566
v 32.82855471 -71.42146995 -101.43014480
v 32.92557695 -69.28961095 -101.43014480
v 32.89785540 -68.33959985 -101.43014480
v 29.80696293 -68.33959985 -9.54450332
v 29.73073026 -68.33959985 -8.31511960
v 29.68221913 -68.33959985 -7.63456603
v 28.79861140 -77.81704060 4.36292436
v 28.55605261 -79.15210994 4.36292436
v 28.41051606 -79.94889324 4.36292436
v 28.49368071 -79.94889324 3.02377589
v 28.61842450 -79.94889324 0.89429956
v 28.78128464 -80.51916422 -101.43014480
v 27.92886445 -81.23600424 3.02377589
v 27.96005199 -81.22667689 0.89429956
v 28.00509712 -81.25065606 -31.09169284
v 28.78128464 -80.23669414 -103.57059411
v 30.00793940 -79.05618054 -104.74509704
v 30.32326807 -75.68384730 -104.93169490
v 28.78128464 -77.81704060 -105.44759657
v 31.30043206 -73.55332260 -103.86696627
v 32.20482936 -69.28961095 -102.82418359
v 32.20482936 -71.42146995 -102.81320426
v 32.16325021 -73.55332260 -102.80222492
v 32.58946190 -68.33959985 -102.03386209
v 29.51935900 -68.33959985 -5.50509288
v 28.79514859 -77.02025729 4.36292436
v 28.09172776 -80.71503225 4.36292436
v 27.88381931 -81.19603260 4.36292436
v 26.04383717 -81.06545603 -102.68148401
v 27.96351480 -81.14273708 -54.52686416
v 26.64676817 -81.65171312 4.36292436
v 26.71260765 -80.71902878 -103.46082618
v 28.78128464 -79.36796061 -104.98657887
v 30.09110405 -68.33959985 -104.78900167
v 30.68017587 -68.33959985 -104.28407934
v 31.15489868 -68.33959985 -103.86696627
v 31.73703853 -68.33959985 -103.27422196
v 28.78128464 -75.68384730 -105.48053457
v 26.64676817 -77.81704060 -105.83178434
v 26.64676817 -75.68384730 -105.91959361
v 32.19097176 -68.33959985 -102.80222492
v 29.42579956 -68.33959985 -4.31961380
v 28.87831007 -68.33959985 2.06880249
v 28.66693563 -68.33959985 4.36292436
v 29.34610090 -68.33959985 -3.37561973
v 29.24561266 -68.33959985 -2.19014065
v 24.51571610 -81.07877991 -102.72539499
v 20.25361038 -80.82028900 -103.74621900
v 26.64676817 -81.47317185 -31.09169284
v 24.51571610 -81.94218261 4.36292436
v 23.71873742 -81.95017567 4.36292436
v 24.51571610 -80.65640591 -103.79012363
v 26.64676817 -79.60246599 -105.14025144
v 28.78128464 -68.33959985 -105.14025144
v 26.64676817 -71.42146995 -105.75495441
v 24.51571610 -77.81704060 -105.95253161
v 7.46382960 -71.42146995 -107.71977249
v 24.51571610 -75.68384730 -106.11718351
v 7.46382960 -69.28961095 -107.77465645
v 24.51571610 -71.42146995 -106.05132021
v 15.68310956 -68.33959985 4.36292436
v 9.59488246 -81.13873419 -99.30066847
v 9.59488246 -81.08810726 -101.43014480
v 15.99150465 -81.06278744 -102.81320426
v 13.86045258 -80.88824270 -103.87793925
v 20.25361038 -79.75435950 -105.23904004
v 15.19452597 -81.87689115 4.36292436
v 7.46382960 -81.12141378 -99.30066847
v 7.46382960 -77.98225798 -106.39159064
v 22.38466245 -77.81704060 -106.01839491
v 26.64676817 -68.33959985 -105.53541854
v 7.46382960 -76.91632848 -106.83066238
v 9.09590409 -76.83505091 -106.79773708
v 5.33277673 -73.55332260 -107.43437331
v -1.06384705 -71.42146995 -107.73075182
v -1.26828951 -71.42146995 -107.73075182
v -1.26828951 -71.21627457 -107.73075182
v -1.26828951 -68.33959985 -107.71977249
v 7.46382960 -68.33959985 -107.73075182
v 24.51571610 -69.28961095 -105.89764764
v 9.59488246 -68.33959985 -107.50023662
v -1.26828951 -68.59409423 -28.96221969
v -1.26828951 -68.60875240 -26.82177038
v -1.26828951 -68.68869568 -18.29290478
v -1.26828951 -68.71534345 -15.95487510
v -1.26828951 -68.76197385 -11.90448850
v -1.26828951 -68.76464244 -11.69593196
v -1.26828951 -68.79395243 -9.77501535
v -1.26828951 -68.79794896 -9.56645881
v -1.26828951 -68.92852553 -3.16706319
v -1.26828951 -68.98848617 -1.03759004
v -1.26828951 -69.18301991 4.36292436
v -1.26828951 -68.33959985 -94.26238635
v -1.26828951 -68.43420766 -60.92625978
v -1.26828951 -81.00149886 -101.69358530
v 13.86045258 -81.04946356 -102.81320426
v -1.06384705 -80.80430289 -103.57059411
v -1.06384705 -79.75303156 -105.37076664
v 13.86045258 -79.82231320 -105.28295738
v 18.11909232 -79.77967932 -105.26099871
v 13.86045258 -81.86356727 4.36292436
v -1.26828951 -81.05479438 -97.37975503
v -1.26828951 -81.03747397 -99.32262714
v -1.26828951 -81.03613968 -99.45434104
v -1.26828951 -81.01881927 -100.72763892
v 15.99150465 -79.76102462 -105.30490334
v -1.26828951 -79.56515659 -105.46955524
v -1.26828951 -77.81704060 -106.33670667
v 24.51571610 -68.33959985 -105.80983838
v 5.85601067 -76.88701214 -106.81968305
v -1.26828951 -73.55332260 -107.39046868
v -1.26828951 -81.54112555 4.36292436
v -1.26828951 -80.79097901 -103.57059411
v -1.06384705 -81.00016457 -101.73748994
v 9.59488246 -81.02948091 -102.58269541
v -1.26828951 -80.68971243 -103.74621900
v -1.26828951 -79.73837339 -105.37076664
v 13.06347390 -81.85423992 4.36292436
v -1.26828951 -81.05612868 -97.17119849
v 0.27022793 -81.58775595 4.36292436
v 10.93242025 -81.82093339 4.36292436
v 8.79790299 -81.78362399 4.36292436
v 6.66685012 -81.74231805 4.36292436
v 4.53579805 -81.69834988 4.36292436
v 3.19825868 -81.66903353 4.36292436
v 2.40474440 -81.64905089 4.36292436
f 1 2 3
f 1 3 4
f 1 4 19
f 1 19 40
f 1 40 57
f 1 57 53
f 1 53 52
f 1 52 51
f 1 51 50
f 1 50 70
f 1 70 87
f 1 87 125
f 1 125 97
f 1 97 95
f 1 95 94
f 1 94 109
f 1 109 77
f 1 77 60
f 1 60 59
f 1 59 62
f 1 62 61
f 1 61 58
f 1 58 41
f 1 41 22
f 1 22 21
f 1 21 20
f 1 20 5
f 1 5 6
f 1 6 7
f 1 7 8
f 1 8 2
f 2 9 3
f 2 8 10
f 2 10 11
f 2 11 9
f 3 12 13
f 3 13 14
f 3 14 15
f 3 15 16
f 3 16 4
f 3 9 12
f 4 17 18
f 4 18 19
f 4 16 17
f 5 20 6
f 6 20 21
f 6 21 22
f 6 22 23
f 6 23 24
f 6 24 25
f 6 25 26
f 6 26 27
f 6 27 7
f 7 27 8
f 8 27 10
f 9 28 12
f 9 11 29
f 9 29 30
f 9 30 31
f 9 31 28
f 10 27 29
f 10 29 11
f 12 32 33
f 12 33 13
f 12 28 32
f 13 33 14
f 14 34 15
f 14 33 35
f 14 35 34
f 15 34 36
f 15 36 37
f 15 37 38
f 15 38 39
f 15 39 16
f 16 39 17
f 17 39 18
f 18 39 38
f 18 38 37
f 18 37 40
f 18 40 19
f 22 41 23
f 23 42 60
f 23 60 77
f 23 77 108
f 23 108 128
f 23 128 136
f 23 136 142
f 23 142 141
f 23 141 140
f 23 140 139
f 23 139 138
f 23 138 137
f 23 137 134
f 23 134 117
f 23 117 83
f 23 83 67
f 23 67 66
f 23 66 47
f 23 47 44
f 23 44 43
f 23 43 25
f 23 25 24
f 23 41 42
f 25 43 26
f 26 43 27
f 27 43 44
f 27 44 29
f 28 45 32
f 28 31 46
f 28 46 45
f 29 44 47
f 29 47 31
f 29 31 30
f 31 47 46
f 32 45 48
f 32 48 49
f 32 49 33
f 33 49 35
f 34 50 51
f 34 51 52
f 34 52 53
f 34 53 37
f 34 37 36
f 34 35 54
f 34 54 50
f 35 55 56
f 35 56 54
f 35 49 55
f 37 53 57
f 37 57 40
f 41 58 42
f 42 59 60
f 42 58 61
f 42 61 62
f 42 62 59
f 45 63 64
f 45 64 48
f 45 46 65
f 45 65 66
f 45 66 67
f 45 67 63
f 46 47 65
f 47 66 65
f 48 64 68
f 48 68 69
f 48 69 49
f 49 69 55
f 50 54 70
f 54 56 71
f 54 71 70
f 55 72 73
f 55 73 74
f 55 74 56
f 55 69 72
f 56 74 75
f 56 75 76
f 56 76 71
f 63 78 79
f 63 79 80
f 63 80 81
f 63 81 64
f 63 67 78
f 64 81 82
f 64 82 68
f 67 83 84
f 67 84 78
f 68 82 69
f 69 82 85
f 69 85 86
f 69 86 72
f 70 71 87
f 71 76 87
f 72 86 88
f 72 88 89
f 72 89 73
f 73 89 88
f 73 88 90
f 73 90 91
f 73 91 75
f 73 75 74
f 75 91 92
f 75 92 93
f 75 93 94
f 75 94 95
f 75 95 76
f 76 96 87
f 76 95 97
f 76 97 96
f 77 98 99
f 77 99 100
f 77 100 101
f 77 101 102
f 77 102 103
f 77 103 104
f 77 104 105
f 77 105 106
f 77 106 107
f 77 107 108
f 77 109 110
f 77 110 98
f 78 84 111
f 78 111 79
f 79 111 112
f 79 112 80
f 80 112 81
f 81 112 113
f 81 113 114
f 81 114 115
f 81 115 116
f 81 116 82
f 82 116 85
f 83 117 118
f 83 118 84
f 84 118 119
f 84 119 120
f 84 120 121
f 84 121 111
f 85 116 122
f 85 122 115
f 85 115 114
f 85 114 123
f 85 123 124
f 85 124 88
f 85 88 86
f 87 96 125
f 88 124 126
f 88 126 127
f 88 127 90
f 90 127 92
f 90 92 91
f 92 127 124
f 92 124 123
f 92 123 133
f 92 133 132
f 92 132 129
f 92 129 111
f 92 111 121
f 92 121 120
f 92 120 119
f 92 119 118
f 92 118 135
f 92 135 128
f 92 128 108
f 92 108 107
f 92 107 106
f 92 106 105
f 92 105 104
f 92 104 103
f 92 103 102
f 92 102 101
f 92 101 100
f 92 100 99
f 92 99 98
f 92 98 110
f 92 110 109
f 92 109 94
f 92 94 93
f 96 97 125
f 111 129 113
f 111 113 130
f 111 130 112
f 112 130 131
f 112 131 113
f 113 131 130
f 113 129 132
f 113 132 114
f 114 133 123
f 114 132 133
f 115 122 116
f 117 134 135
f 117 135 118
f 124 127 126
f 128 135 136
f 134 137 135
f 135 137 138
f 135 138 139
f 135 139 140
f 135 140 141
f 135 141 142
f 135 142 136

